{
.formatVersion = 3;
date = "2011-08-01 20:36:00 +0000";
familyName = HammersmithOne;
fontMaster = (
{
customParameters = (
{
name = typoAscender;
value = 1844;
},
{
name = typoDescender;
value = -716;
},
{
name = typoLineGap;
value = 0;
},
{
name = winAscent;
value = 1844;
},
{
name = winDescent;
value = 716;
},
{
name = hheaAscender;
value = 1844;
},
{
name = hheaDescender;
value = -716;
},
{
name = hheaLineGap;
value = 0;
}
);
id = "4de0c4ad-9814-44bf-ac31-cb508b764638";
metricValues = (
{
},
{
pos = -50;
},
{
pos = 50;
},
{
pos = 1638;
},
{
pos = -410;
},
{
pos = 1434;
},
{
pos = 1331;
},
{
},
{
pos = 287;
},
{
pos = 1434;
},
{
pos = 1331;
},
{
},
{
pos = 977;
},
{
pos = 180;
},
{
pos = 674;
}
);
name = Regular;
visible = 1;
}
);
glyphs = (
{
category = Letter;
glyphname = exclam;
layers = (
{
layerId = "4de0c4ad-9814-44bf-ac31-cb508b764638";
name = Fore;
shapes = (
{
closed = 1;
nodes = (
(417,380,o),
(293,380,q),
(213,380,l),
(211,1358,l),
(302,1354,l),
(324,1354,l),
(440,1354,o),
(472,1362,q),
(468,374,l)
);
},
{
closed = 1;
nodes = (
(470,190,o),
(470,112.5,q),
(470,35,o),
(474,0,q),
(209,0,l),
(217,62,o),
(217,122.5,q),
(217,183,o),
(211,240,q),
(474,240,l)
);
}
);
width = 684;
}
);
unicode = 33;
},
{
category = Letter;
glyphname = quotedbl;
layers = (
{
layerId = "4de0c4ad-9814-44bf-ac31-cb508b764638";
name = Fore;
shapes = (
{
closed = 1;
nodes = (
(196,1340,o),
(187,1430,q),
(438,1430,l),
(426,1319,o),
(421,1109,q),
(418,977,l),
(207,977,l),
(203,1110,l)
);
},
{
closed = 1;
nodes = (
(597,1340,o),
(588,1430,q),
(839,1430,l),
(827,1319,o),
(822,1109,q),
(819,977,l),
(608,977,l),
(604,1110,l)
);
}
);
width = 1026;
}
);
unicode = 34;
},
{
category = Letter;
glyphname = numbersign;
layers = (
{
layerId = "4de0c4ad-9814-44bf-ac31-cb508b764638";
name = Fore;
shapes = (
{
closed = 1;
nodes = (
(1205,496,o),
(1129,496,q),
(1035,496,l),
(991,177,l),
(765,177,l),
(809,496,l),
(625,496,l),
(581,177,l),
(355,177,l),
(399,496,l),
(358,496,l),
(282,496,o),
(234,491,q),
(237,698,l),
(260,692,o),
(369,692,q),
(427,692,l),
(455,893,l),
(385,893,l),
(309,893,o),
(261,888,q),
(264,1095,l),
(286,1089,o),
(396,1089,q),
(482,1089,l),
(527,1410,l),
(753,1410,l),
(708,1089,l),
(892,1089,l),
(937,1410,l),
(1163,1410,l),
(1118,1089,l),
(1165,1089,l),
(1274,1089,o),
(1297,1095,q),
(1300,888,l),
(1252,893,o),
(1176,893,q),
(1091,893,l),
(1063,692,l),
(1118,692,l),
(1228,692,o),
(1250,698,q),
(1253,491,l)
);
},
{
closed = 1;
nodes = (
(865,893,l),
(681,893,l),
(653,692,l),
(837,692,l)
);
}
);
width = 1535;
}
);
unicode = 35;
},
{
category = Letter;
glyphname = dollar;
layers = (
{
layerId = "4de0c4ad-9814-44bf-ac31-cb508b764638";
name = Fore;
shapes = (
{
closed = 1;
nodes = (
(421,-161,o),
(421,-60,q),
(421,-13,l),
(329,3,o),
(255,36.5,q),
(181,70,o),
(144,110,q),
(173,362,l),
(180,368,l),
(218,311,o),
(330,264,q),
(447,215,o),
(562,215,q),
(717,215,o),
(774,309,q),
(791,337,o),
(791,366,q),
(791,395,o),
(780.5,417,q),
(770,439,o),
(744,460,q),
(694,500,o),
(576.5,546.5,q),
(459,593,o),
(388.5,636,q),
(318,679,o),
(276,727,q),
(198,815,o),
(198,950,q),
(198,1070,o),
(285,1176,q),
(376,1287,o),
(521,1331,q),
(521,1411,l),
(521,1512,o),
(512,1546,q),
(781,1546,l),
(777,1488,o),
(777,1422,q),
(777,1348,l),
(879,1333,o),
(974,1284,q),
(943,1037,l),
(936,1035,l),
(787,1116,o),
(661,1116,q),
(571,1116,o),
(509,1072,q),
(454,1032,o),
(454,977,q),
(454,928,o),
(492,896,q),
(562,838,o),
(676.5,800.5,q),
(791,763,o),
(860,723.5,q),
(929,684,o),
(971,638,q),
(1049,551,o),
(1049,418,q),
(1049,275,o),
(958,158,q),
(854,23,o),
(677,-12,q),
(677,-71,l),
(681,-192,o),
(681,-195,q),
(412,-195,l)
);
}
);
width = 1193;
}
);
unicode = 36;
},
{
category = Letter;
glyphname = percent;
layers = (
{
layerId = "4de0c4ad-9814-44bf-ac31-cb508b764638";
name = Fore;
shapes = (
{
closed = 1;
nodes = (
(461,612,o),
(388,639,q),
(315,666,o),
(262,714,q),
(148,819,o),
(148,977,q),
(148,1127,o),
(251,1234,q),
(368,1355,o),
(567,1355,q),
(749,1355,o),
(861,1242,q),
(965,1136,o),
(965,985,q),
(965,831,o),
(850,724,q),
(731,612,o),
(551,612,q)
);
},
{
closed = 1;
nodes = (
(1591,1330,l),
(841,0,l),
(596,0,l),
(1346,1330,l)
);
},
{
closed = 1;
nodes = (
(609,816,o),
(645,830,q),
(681,844,o),
(706,868,q),
(759,916,o),
(759,988,q),
(759,1055,o),
(706,1104,q),
(650,1157,o),
(557,1157,q),
(466,1157,o),
(410,1105,q),
(359,1057,o),
(359,985,q),
(359,915,o),
(412,868,q),
(469,816,o),
(562,816,q)
);
},
{
closed = 1;
nodes = (
(1249,408,o),
(1274.5,475.5,q),
(1300,543,o),
(1352,597,q),
(1469,718,o),
(1668,718,q),
(1850,718,o),
(1962,604,q),
(2066,499,o),
(2066,348,q),
(2066,194,o),
(1952,87,q),
(1832,-25,o),
(1646,-25,q),
(1475,-25,o),
(1363,78,q),
(1249,182,o),
(1249,334,q)
);
},
{
closed = 1;
nodes = (
(1461,314,o),
(1474.5,283.5,q),
(1488,253,o),
(1514,230,q),
(1571,178,o),
(1666,178,q),
(1753,178,o),
(1808,230,q),
(1861,278,o),
(1861,350,q),
(1861,417,o),
(1808,466,q),
(1752,519,o),
(1659,519,q),
(1568,519,o),
(1512,467,q),
(1461,419,o),
(1461,348,q)
);
}
);
width = 2214;
}
);
unicode = 37;
},
{
category = Letter;
glyphname = ampersand;
layers = (
{
layerId = "4de0c4ad-9814-44bf-ac31-cb508b764638";
name = Fore;
shapes = (
{
closed = 1;
nodes = (
(823,-25,o),
(589,-25,q),
(359,-25,o),
(209,112,q),
(62,245,o),
(62,442,q),
(62,620,o),
(216,738,q),
(262,774,o),
(315,798,q),
(258,894,o),
(258,986,q),
(258,1078,o),
(288,1143,q),
(318,1208,o),
(371,1255,q),
(484,1355,o),
(661,1355,q),
(787,1355,o),
(892,1295,q),
(887,1210,o),
(887,1164,q),
(887,1101,o),
(888.5,1085,q),
(890,1069,o),
(889.5,1062.5,q),
(889,1056,o),
(888,1052,q),
(884,1046,o),
(886,1038,q),
(881,1031,l),
(841,1091,o),
(726,1117,q),
(691,1125,o),
(636,1125,q),
(581,1125,o),
(545.5,1092,q),
(510,1059,o),
(510,1009,q),
(510,923,o),
(632,790,q),
(670,748,o),
(724,695,q),
(959,480,l),
(991,567,o),
(991,663,q),
(991,722,o),
(961,761,q),
(954,770,o),
(950,773,q),
(950,785,l),
(1095,727,l),
(1137,710,o),
(1163,701,q),
(1189,692,o),
(1202,686,q),
(1225,676,o),
(1225,664,q),
(1225,484,o),
(1144,322,q),
(1246,238,o),
(1275,227,q),
(1304,216,o),
(1319,214,q),
(1367,208,o),
(1375,218,q),
(1380,212,l),
(1277,-13,l),
(1260,-25,o),
(1219,-25,q),
(1156,-25,o),
(988,118,q)
);
},
{
closed = 1;
nodes = (
(712,215,o),
(805,279,q),
(697,378,l),
(524,535,o),
(422,652,q),
(313,573,o),
(313,466,q),
(313,359,o),
(396,287,q),
(479,215,o),
(595.5,215,q)
);
}
);
width = 1364;
}
);
unicode = 38;
},
{
category = Letter;
glyphname = quotesingle;
layers = (
{
layerId = "4de0c4ad-9814-44bf-ac31-cb508b764638";
name = Fore;
shapes = (
{
closed = 1;
nodes = (
(225,1340,o),
(216,1430,q),
(467,1430,l),
(455,1319,o),
(450,1109,q),
(447,977,l),
(236,977,l),
(232,1110,l)
);
}
);
width = 684;
}
);
unicode = 39;
},
{
category = Letter;
glyphname = parenleft;
layers = (
{
layerId = "4de0c4ad-9814-44bf-ac31-cb508b764638";
name = Fore;
shapes = (
{
closed = 1;
nodes = (
(182,174,o),
(182,680,q),
(182,1017,o),
(362,1276,q),
(421,1362,o),
(500,1430,q),
(756,1430,l),
(756,1424,l),
(507,1198,o),
(454,896,q),
(436,794,o),
(436,675,q),
(436,240,o),
(746,-94,q),
(746,-100,l),
(500,-100,l)
);
}
);
width = 929;
}
);
unicode = 40;
},
{
category = Letter;
glyphname = parenright;
layers = (
{
layerId = "4de0c4ad-9814-44bf-ac31-cb508b764638";
name = Fore;
shapes = (
{
closed = 1;
nodes = (
(746,174,o),
(746,680,q),
(746,1017,o),
(566,1276,q),
(507,1362,o),
(428,1430,q),
(172,1430,l),
(172,1424,l),
(421,1198,o),
(474,896,q),
(492,794,o),
(492,675,q),
(492,240,o),
(182,-94,q),
(182,-100,l),
(428,-100,l)
);
}
);
width = 929;
}
);
unicode = 41;
},
{
category = Letter;
glyphname = asterisk;
layers = (
{
layerId = "4de0c4ad-9814-44bf-ac31-cb508b764638";
name = Fore;
shapes = (
{
closed = 1;
nodes = (
(515,1041,l),
(257,842,l),
(129,1033,l),
(418,1166,l),
(130,1336,l),
(287,1516,l),
(512,1299,l),
(472,1605,l),
(716,1605,l),
(674,1287,l),
(902,1488,l),
(1053,1307,l),
(750,1161,l),
(1063,1011,l),
(929,825,l),
(675,1031,l),
(712,724,l),
(479,724,l),
(479,725,o),
(483,759,q)
);
}
);
width = 1193;
}
);
unicode = 42;
},
{
category = Letter;
glyphname = plus;
layers = (
{
layerId = "4de0c4ad-9814-44bf-ac31-cb508b764638";
name = Fore;
shapes = (
{
closed = 1;
nodes = (
(275,500,o),
(227,495,q),
(230,742,l),
(252,736,o),
(362,736,q),
(564,736,l),
(564,928,l),
(564,1038,o),
(558,1060,q),
(805,1063,l),
(800,1015,o),
(800,939,q),
(800,736,l),
(1001,736,l),
(1110,736,o),
(1133,742,q),
(1136,495,l),
(1088,500,o),
(1012,500,q),
(800,500,l),
(800,278,l),
(800,202,o),
(805,154,q),
(558,157,l),
(564,180,o),
(564,289,q),
(564,500,l),
(351,500,l)
);
}
);
width = 1364;
}
);
unicode = 43;
},
{
category = Letter;
glyphname = comma;
layers = (
{
layerId = "4de0c4ad-9814-44bf-ac31-cb508b764638";
name = Fore;
shapes = (
{
closed = 1;
nodes = (
(158,140,o),
(147,220,q),
(396,260,l),
(404,209,l),
(412,153,o),
(412,93.5,q),
(412,34,o),
(406,-16.5,q),
(400,-67,o),
(390,-110,q),
(367,-204,o),
(338,-222,q),
(289,-253,o),
(103,-292,q),
(97,-286,l),
(131,-226,o),
(144.5,-116.5,q),
(158,-7,o),
(158,66.5,q)
);
}
);
width = 510;
}
);
unicode = 44;
},
{
category = Letter;
glyphname = hyphen;
layers = (
{
layerId = "4de0c4ad-9814-44bf-ac31-cb508b764638";
name = Fore;
shapes = (
{
closed = 1;
nodes = (
(226,500,o),
(178,495,q),
(181,742,l),
(204,736,o),
(313,736,q),
(702,736,l),
(812,736,o),
(834,742,q),
(837,495,l),
(789,500,o),
(713,500,q),
(302,500,l)
);
}
);
width = 1016;
}
);
unicode = 45;
},
{
category = Letter;
glyphname = period;
layers = (
{
layerId = "4de0c4ad-9814-44bf-ac31-cb508b764638";
name = Fore;
shapes = (
{
closed = 1;
nodes = (
(118,61,o),
(118,108,q),
(118,155,o),
(117.5,172.5,q),
(117,190,o),
(116,207,q),
(115,224,o),
(114,239,q),
(111,264,l),
(401,264,l),
(398,226,o),
(398,202,q),
(396,160,l),
(396,141,o),
(396,88.5,q),
(396,36,o),
(401,0,q),
(109,0,l)
);
}
);
width = 510;
}
);
unicode = 46;
},
{
category = Letter;
glyphname = slash;
layers = (
{
layerId = "4de0c4ad-9814-44bf-ac31-cb508b764638";
name = Fore;
shapes = (
{
closed = 1;
nodes = (
(855,1530,l),
(256,-170,l),
(0,-170,l),
(599,1530,l)
);
}
);
width = 855;
}
);
unicode = 47;
},
{
category = Letter;
glyphname = zero;
layers = (
{
layerId = "4de0c4ad-9814-44bf-ac31-cb508b764638";
name = Fore;
shapes = (
{
closed = 1;
nodes = (
(106,797,o),
(150.5,928,q),
(195,1059,o),
(275,1154,q),
(446,1355,o),
(708,1355,q),
(959,1355,o),
(1110,1166,q),
(1257,982,o),
(1257,679,q),
(1257,337,o),
(1079,146,q),
(920,-25,o),
(671,-25,q),
(430,-25,o),
(269,161,q),
(106,350,o),
(106,646,q)
);
},
{
closed = 1;
nodes = (
(622,210,o),
(685.5,210,q),
(749,210,o),
(804,238,q),
(859,266,o),
(903,322,q),
(1002,450,o),
(1002,657,q),
(1002,869,o),
(918,996,q),
(833,1121,o),
(688,1121,q),
(542,1121,o),
(452,991,q),
(361,860,o),
(361,652,q),
(361,453,o),
(456,330,q),
(500,273,o),
(561,241.5,q)
);
}
);
width = 1364;
}
);
unicode = 48;
},
{
category = Letter;
glyphname = one;
layers = (
{
layerId = "4de0c4ad-9814-44bf-ac31-cb508b764638";
name = Fore;
shapes = (
{
closed = 1;
nodes = (
(472,1330,l),
(472,0,l),
(217,0,l),
(217,1330,l)
);
}
);
width = 689;
}
);
unicode = 49;
},
{
category = Letter;
glyphname = two;
layers = (
{
layerId = "4de0c4ad-9814-44bf-ac31-cb508b764638";
name = Fore;
shapes = (
{
closed = 1;
nodes = (
(701,788,o),
(723,897,q),
(730,931,o),
(730,962,q),
(730,1035,o),
(675,1079,q),
(620,1123,o),
(517,1123,q),
(420,1123,o),
(316,1072,q),
(221,1025,o),
(181,965,q),
(168,963,l),
(176,1263,l),
(264,1320,o),
(422,1346,q),
(471,1355,o),
(516,1355,q),
(768,1355,o),
(892,1234,q),
(998,1133,o),
(998,964,q),
(998,848,o),
(926,714,q),
(864,602,o),
(763,472,q),
(567,230,l),
(891,230,l),
(957,230,o),
(994.5,235.5,q),
(1032,241,o),
(1058,261,q),
(1065,258,l),
(992,-15,l),
(883,-9,l),
(600,7,o),
(83,-7,q),
(553,600,l)
);
}
);
width = 1193;
}
);
unicode = 50;
},
{
category = Letter;
glyphname = three;
layers = (
{
layerId = "4de0c4ad-9814-44bf-ac31-cb508b764638";
name = Fore;
shapes = (
{
closed = 1;
nodes = (
(1113,676,o),
(1113,432,q),
(1113,238,o),
(954,110,q),
(787,-25,o),
(512,-25,q),
(247,-25,o),
(86,98,q),
(82,365,l),
(92,377,l),
(212,214,o),
(510,214,q),
(858,214,o),
(858,445,q),
(858,528,o),
(756,575,q),
(664,617,o),
(542,617,q),
(374,617,o),
(284,560,q),
(278,567,l),
(288,803,l),
(409,836,o),
(542,836,q),
(594,836,l),
(622,836,o),
(649,834,q),
(713,872,o),
(732,948,q),
(738,969,o),
(738,990.5,q),
(738,1012,o),
(725,1034.5,q),
(712,1057,o),
(686,1074,q),
(629,1113,o),
(557.5,1113,q),
(486,1113,o),
(437,1105,q),
(388,1097,o),
(342,1082,q),
(243,1049,o),
(194,1000,q),
(189,1005,l),
(177,1261,l),
(338,1355,o),
(568,1355,q),
(749,1355,o),
(870,1272,q),
(1000,1182,o),
(1000,1032,q),
(1000,950,o),
(964,884.5,q),
(928,819,o),
(872,778,q)
);
},
{
closed = 1;
nodes = (
(581,809,o),
(598,813,q),
(556,809,l)
);
}
);
width = 1193;
}
);
unicode = 51;
},
{
category = Letter;
glyphname = four;
layers = (
{
layerId = "4de0c4ad-9814-44bf-ac31-cb508b764638";
name = Fore;
shapes = (
{
closed = 1;
nodes = (
(1074,563,o),
(1174,589,q),
(1179,582,l),
(1106,350,l),
(922,350,l),
(922,0,l),
(667,0,l),
(667,350,l),
(51,350,l),
(47,424,l),
(600,1328,l),
(922,1330,l),
(922,563,l)
);
},
{
closed = 1;
nodes = (
(667,1037,l),
(394,563,l),
(667,563,l)
);
}
);
width = 1193;
}
);
unicode = 52;
},
{
category = Letter;
glyphname = five;
layers = (
{
layerId = "4de0c4ad-9814-44bf-ac31-cb508b764638";
name = Fore;
shapes = (
{
closed = 1;
nodes = (
(582,896,o),
(701,896,q),
(820,896,o),
(920.5,863,q),
(1021,830,o),
(1088,774,q),
(1224,662,o),
(1224,486,q),
(1224,262,o),
(1058,118,q),
(891,-25,o),
(637,-25,q),
(352,-25,o),
(186,113,q),
(175,396,l),
(185,403,l),
(327,208,o),
(641,208,q),
(783,208,o),
(868,274,q),
(953,340,o),
(953,442,q),
(953,609,o),
(780,666,q),
(722,685,o),
(658,685,q),
(594,685,o),
(538.5,679.5,q),
(483,674,o),
(430,664,q),
(320,643,o),
(248,604,q),
(248,1330,l),
(875,1330,l),
(1067,1330,o),
(1102,1362,q),
(1106,1359,l),
(1082,1115,l),
(1038,1094,o),
(879,1094,q),
(483,1094,l),
(483,875,l)
);
}
);
width = 1364;
}
);
unicode = 53;
},
{
category = Letter;
glyphname = six;
layers = (
{
layerId = "4de0c4ad-9814-44bf-ac31-cb508b764638";
name = Fore;
shapes = (
{
closed = 1;
nodes = (
(119,472,o),
(119,584,q),
(119,696,o),
(137,789,q),
(155,882,o),
(192,966,q),
(229,1050,o),
(286,1121,q),
(343,1192,o),
(420,1244,q),
(586,1355,o),
(818,1355,q),
(993,1355,o),
(1119,1296,q),
(1128,1050,l),
(1124,1044,l),
(1014,1125,o),
(800,1125,q),
(639,1125,o),
(522,1016,q),
(410,911,o),
(375,748,q),
(499,872,o),
(688,908,q),
(744,918,o),
(820,918,q),
(896,918,o),
(981,888,q),
(1066,858,o),
(1126,802,q),
(1254,682,o),
(1254,484,q),
(1254,264,o),
(1088,118,q),
(927,-25,o),
(694,-25,q),
(419,-25,o),
(263,159,q),
(191,244,o),
(155,358,q)
);
},
{
closed = 1;
nodes = (
(417,333,o),
(493,269.5,q),
(569,206,o),
(686,206,q),
(820,206,o),
(907,278,q),
(998,352,o),
(998,476,q),
(998,569,o),
(938,629,q),
(873,694,o),
(762,694,q),
(621,694,o),
(516,620,q),
(417,549,o),
(384,444,q)
);
}
);
width = 1364;
}
);
unicode = 54;
},
{
category = Letter;
glyphname = seven;
layers = (
{
layerId = "4de0c4ad-9814-44bf-ac31-cb508b764638";
name = Fore;
shapes = (
{
closed = 1;
nodes = (
(582,60,o),
(589,0,q),
(285,0,l),
(285,148,o),
(388,478,q),
(509,870,o),
(672,1105,q),
(180,1097,l),
(71,1097,o),
(42,1072,q),
(35,1077,l),
(27,1337,l),
(547,1334,l),
(638,1334,o),
(711.5,1334,q),
(785,1334,o),
(842,1335,q),
(972,1337,o),
(1047,1341,q),
(875,991,l),
(582,397,o),
(582,128,q)
);
}
);
width = 1031;
}
);
unicode = 55;
},
{
category = Letter;
glyphname = eight;
layers = (
{
layerId = "4de0c4ad-9814-44bf-ac31-cb508b764638";
name = Fore;
shapes = (
{
closed = 1;
nodes = (
(1151,670,o),
(1212,580,q),
(1268,500,o),
(1268,399.5,q),
(1268,299,o),
(1228,220,q),
(1188,141,o),
(1114,86,q),
(963,-28,o),
(695,-28,q),
(453,-28,o),
(282,77,q),
(95,192,o),
(95,400,q),
(95,546,o),
(220,659,q),
(259,695,o),
(309,720,q),
(186,818,o),
(186,974,q),
(186,1138,o),
(315,1244,q),
(453,1357,o),
(694,1357,q),
(929,1357,o),
(1069,1238,q),
(1196,1131,o),
(1196,967.5,q),
(1196,804,o),
(1036,710,q)
);
},
{
closed = 1;
nodes = (
(441,1009,o),
(441,977.5,q),
(441,946,o),
(460.5,916,q),
(480,886,o),
(522,859,q),
(613,802,o),
(800,773,q),
(895,821,o),
(929,910,q),
(972,1024,o),
(876,1084,q),
(808,1127,o),
(681,1127,q),
(513,1127,o),
(458,1036,q)
);
},
{
closed = 1;
nodes = (
(361,532,o),
(361,425,q),
(361,206,o),
(706,202,q),
(927,199,o),
(983,294,q),
(1003,328,o),
(1003,370.5,q),
(1003,413,o),
(985,438,q),
(967,463,o),
(931,482,q),
(874,511,o),
(774,530.5,q),
(674,550,o),
(639,558,q),
(604,566,o),
(576,574,q),
(525,587,o),
(485,604,q)
);
}
);
width = 1364;
}
);
unicode = 56;
},
{
category = Letter;
glyphname = nine;
layers = (
{
layerId = "4de0c4ad-9814-44bf-ac31-cb508b764638";
name = Fore;
shapes = (
{
closed = 1;
nodes = (
(354,205,o),
(568,205,q),
(723,205,o),
(836,305,q),
(945,402,o),
(982,555,q),
(867,448,o),
(677,420,q),
(623,412,o),
(547.5,412,q),
(472,412,o),
(387,442,q),
(302,472,o),
(242,528,q),
(114,648,o),
(114,846,q),
(114,1066,o),
(280,1212,q),
(441,1355,o),
(674,1355,q),
(949,1355,o),
(1105,1171,q),
(1249,1001,o),
(1249,729,q),
(1249,417,o),
(1082,209,q),
(894,-25,o),
(550,-25,q),
(375,-25,o),
(249,34,q),
(240,280,l),
(244,286,l)
);
},
{
closed = 1;
nodes = (
(681,636,o),
(743.5,654,q),
(806,672,o),
(854,702,q),
(952,765,o),
(981,865,q),
(934,1051,o),
(790,1106,q),
(742,1124,o),
(679.5,1124,q),
(617,1124,o),
(560,1105.5,q),
(503,1087,o),
(461,1052,q),
(370,978,o),
(370,854,q),
(370,761,o),
(430,701,q),
(495,636,o),
(614,636,q)
);
}
);
width = 1364;
}
);
unicode = 57;
},
{
category = Letter;
glyphname = colon;
layers = (
{
layerId = "4de0c4ad-9814-44bf-ac31-cb508b764638";
name = Fore;
shapes = (
{
closed = 1;
nodes = (
(396,751,o),
(396,698.5,q),
(396,646,o),
(401,610,q),
(109,610,l),
(118,671,o),
(118,718,q),
(118,765,o),
(117.5,782.5,q),
(117,800,o),
(116,817,q),
(115,834,o),
(114,849,q),
(111,874,l),
(401,874,l),
(398,836,o),
(398,812,q),
(396,770,l)
);
},
{
closed = 1;
nodes = (
(396,141,o),
(396,88.5,q),
(396,36,o),
(401,0,q),
(109,0,l),
(118,61,o),
(118,108,q),
(118,155,o),
(117.5,172.5,q),
(117,190,o),
(116,207,q),
(115,224,o),
(114,239,q),
(111,264,l),
(401,264,l),
(398,226,o),
(398,202,q),
(396,160,l)
);
}
);
width = 510;
}
);
unicode = 58;
},
{
category = Letter;
glyphname = semicolon;
layers = (
{
layerId = "4de0c4ad-9814-44bf-ac31-cb508b764638";
name = Fore;
shapes = (
{
closed = 1;
nodes = (
(398,640,o),
(398,562.5,q),
(398,485,o),
(402,450,q),
(137,450,l),
(145,512,o),
(145,572.5,q),
(145,633,o),
(139,690,q),
(402,690,l)
);
},
{
closed = 1;
nodes = (
(162,140,o),
(151,220,q),
(400,260,l),
(408,209,l),
(416,153,o),
(416,93.5,q),
(416,34,o),
(410,-16.5,q),
(404,-67,o),
(394,-110,q),
(371,-204,o),
(342,-222,q),
(293,-253,o),
(107,-292,q),
(101,-286,l),
(135,-226,o),
(148.5,-116.5,q),
(162,-7,o),
(162,66.5,q)
);
}
);
width = 518;
}
);
unicode = 59;
},
{
category = Letter;
glyphname = less;
layers = (
{
layerId = "4de0c4ad-9814-44bf-ac31-cb508b764638";
name = Fore;
shapes = (
{
closed = 1;
nodes = (
(1019,1065,l),
(1019,784,l),
(579,536,l),
(1019,265,l),
(1019,-15,l),
(344,434,l),
(344,648,l)
);
}
);
width = 1364;
}
);
unicode = 60;
},
{
category = Letter;
glyphname = equal;
layers = (
{
layerId = "4de0c4ad-9814-44bf-ac31-cb508b764638";
name = Fore;
shapes = (
{
closed = 1;
nodes = (
(275,720,o),
(227,715,q),
(230,962,l),
(252,956,o),
(362,956,q),
(1001,956,l),
(1110,956,o),
(1133,962,q),
(1136,715,l),
(1088,720,o),
(1012,720,q),
(351,720,l)
);
},
{
closed = 1;
nodes = (
(275,300,o),
(227,295,q),
(230,542,l),
(252,536,o),
(362,536,q),
(1001,536,l),
(1110,536,o),
(1133,542,q),
(1136,295,l),
(1088,300,o),
(1012,300,q),
(351,300,l)
);
}
);
width = 1364;
}
);
unicode = 61;
},
{
category = Letter;
glyphname = greater;
layers = (
{
layerId = "4de0c4ad-9814-44bf-ac31-cb508b764638";
name = Fore;
shapes = (
{
closed = 1;
nodes = (
(781,536,l),
(342,784,l),
(342,1065,l),
(1017,648,l),
(1017,434,l),
(342,-15,l),
(342,265,l)
);
}
);
width = 1359;
}
);
unicode = 62;
},
{
category = Letter;
glyphname = question;
layers = (
{
layerId = "4de0c4ad-9814-44bf-ac31-cb508b764638";
name = Fore;
shapes = (
{
closed = 1;
nodes = (
(523,391,o),
(422,343,q),
(297,391,o),
(297,521,q),
(297,577,o),
(326,624,q),
(384,714,o),
(495,807,q),
(576,875,o),
(598,907,q),
(631,955,o),
(631,996,q),
(631,1037,o),
(614,1065.5,q),
(597,1094,o),
(567,1114,q),
(506,1155,o),
(413,1155,q),
(291,1155,o),
(194,1072,q),
(161,1044,o),
(140,1004,q),
(133,1002,l),
(136,1046,o),
(124,1091,q),
(82,1241,l),
(224,1375,o),
(449,1375,q),
(640,1375,o),
(768,1266,q),
(888,1162,o),
(888,1017,q),
(888,945,o),
(858,893,q),
(809,807,o),
(730,737.5,q),
(651,668,o),
(621,637,q),
(591,606,o),
(576,585,q),
(553,553,o),
(553,524,q),
(553,495,o),
(570.5,477.5,q),
(588,460,o),
(610,456,q)
);
},
{
closed = 1;
nodes = (
(584,190,o),
(584,112.5,q),
(584,35,o),
(588,0,q),
(323,0,l),
(331,62,o),
(331,122.5,q),
(331,183,o),
(325,240,q),
(588,240,l)
);
}
);
width = 1026;
}
);
unicode = 63;
},
{
category = Letter;
glyphname = at;
layers = (
{
layerId = "4de0c4ad-9814-44bf-ac31-cb508b764638";
name = Fore;
shapes = (
{
closed = 1;
nodes = (
(1121,875,o),
(1229.5,875,q),
(1338,875,o),
(1434,836,q),
(1436,855,l),
(1689,855,l),
(1646,400,l),
(1642,366,o),
(1642,320,q),
(1642,215,o),
(1754,215,q),
(1888,215,o),
(1946,363,q),
(1976,440,o),
(1976,557.5,q),
(1976,675,o),
(1927.5,783.5,q),
(1879,892,o),
(1787,971,q),
(1590,1140,o),
(1265,1140,q),
(892,1140,o),
(658,923,q),
(407,692,o),
(407,353,q),
(407,77,o),
(606,-94,q),
(815,-273,o),
(1177,-273,q),
(1386,-273,o),
(1582,-222,q),
(1765,-176,o),
(1827,-118,q),
(1833,-121,l),
(1738,-361,l),
(1488,-487,o),
(1148,-487,q),
(685,-487,o),
(419,-276,q),
(150,-61,o),
(150,323,q),
(150,360,o),
(158.5,454,q),
(167,548,o),
(213,663.5,q),
(259,779,o),
(334,881,q),
(409,983,o),
(509.5,1069,q),
(610,1155,o),
(730,1218,q),
(984,1349,o),
(1274,1349,q),
(1578,1349,o),
(1807,1240,q),
(2014,1141,o),
(2128,962,q),
(2235,793,o),
(2235,591,q),
(2235,425,o),
(2178.5,308,q),
(2122,191,o),
(2052,123,q),
(1908,-15,o),
(1728,-15,q),
(1548,-15,o),
(1456,86,q),
(1304,-15,o),
(1123,-15,q),
(910,-15,o),
(784,107,q),
(666,221,o),
(666,391,q),
(666,504,o),
(718,594,q),
(770,684,o),
(845.5,744.5,q),
(921,805,o),
(1021,840,q)
);
},
{
closed = 1;
nodes = (
(1336,645,o),
(1217,645,q),
(1096,645,o),
(1016,584,q),
(939,526,o),
(931,434,q),
(915,286,o),
(1060,236,q),
(1109,220,o),
(1199,220,q),
(1289,220,o),
(1384,276,q),
(1382,304,o),
(1386,332,q),
(1411,598,l)
);
}
);
width = 2385;
}
);
unicode = 64;
},
{
category = Letter;
glyphname = A;
layers = (
{
layerId = "4de0c4ad-9814-44bf-ac31-cb508b764638";
name = Fore;
shapes = (
{
closed = 1;
nodes = (
(183,0,o),
(68,0,q),
(-11,0,l),
(424,1219,l),
(453,1301,o),
(453,1314.5,q),
(453,1328,o),
(452,1331,q),
(453,1333,l),
(518,1330,o),
(591,1330,q),
(651,1330,o),
(735,1332,q),
(736,1330,l),
(734,1326,o),
(734,1319,q),
(734,1300,o),
(764,1218,q),
(1208,-3,l),
(1188,-2,o),
(1161,-2,q),
(1161,-2,o),
(1109,0,q),
(1084,0,o),
(1064,0,q),
(909,0,l),
(815,288,l),
(363,288,l),
(269,-8,l)
);
},
{
closed = 1;
nodes = (
(586,993,l),
(439,528,l),
(737,528,l)
);
}
);
width = 1197;
}
);
unicode = 65;
},
{
category = Letter;
glyphname = B;
layers = (
{
layerId = "4de0c4ad-9814-44bf-ac31-cb508b764638";
name = Fore;
shapes = (
{
closed = 1;
nodes = (
(705,-25,o),
(534.5,-25,q),
(364,-25,o),
(172,6,q),
(172,1324,l),
(366,1355,o),
(508.5,1355,q),
(651,1355,o),
(742.5,1328,q),
(834,1301,o),
(892,1255,q),
(1006,1166,o),
(1006,1024.5,q),
(1006,883,o),
(903,790,q),
(1025,752,o),
(1092,646,q),
(1153,551,o),
(1153,435.5,q),
(1153,320,o),
(1119.5,238,q),
(1086,156,o),
(1012.5,97.5,q),
(939,39,o),
(822,7,q)
);
},
{
closed = 1;
nodes = (
(479,820,o),
(542,820,q),
(605,820,o),
(645.5,836.5,q),
(686,853,o),
(708,878,q),
(744,919,o),
(744,992,q),
(744,1145,o),
(564,1145,q),
(488,1145,o),
(437,1139,q),
(437,827,l)
);
},
{
closed = 1;
nodes = (
(501,613,o),
(437,602,q),
(437,209,l),
(507,191,o),
(584,191,q),
(661,191,o),
(719.5,209.5,q),
(778,228,o),
(818,260,q),
(899,326,o),
(899,428,q),
(899,613,o),
(585,613,q)
);
}
);
width = 1197;
}
);
unicode = 66;
},
{
category = Letter;
glyphname = C;
layers = (
{
layerId = "4de0c4ad-9814-44bf-ac31-cb508b764638";
name = Fore;
shapes = (
{
closed = 1;
nodes = (
(955,1355,o),
(1087,1290,q),
(1087,984,l),
(1085,982,l),
(1029,1068,o),
(849,1096,q),
(796,1105,o),
(715,1105,q),
(634,1105,o),
(556,1074.5,q),
(478,1044,o),
(428,988,q),
(331,879,o),
(331,677,q),
(331,442,o),
(454,327,q),
(556,231,o),
(724,231,q),
(914,231,o),
(1032,312,q),
(1075,341,o),
(1105,384,q),
(1108,382,l),
(1108,102,l),
(955,-25,o),
(696,-25,q),
(391,-25,o),
(218,169,q),
(52,354,o),
(52,659,q),
(52,982,o),
(234,1168,q),
(418,1355,o),
(768,1355,q)
);
}
);
width = 1188;
}
);
unicode = 67;
},
{
category = Letter;
glyphname = D;
layers = (
{
layerId = "4de0c4ad-9814-44bf-ac31-cb508b764638";
name = Fore;
shapes = (
{
closed = 1;
nodes = (
(334,-25,o),
(191,1,q),
(191,1339,l),
(323,1355,o),
(497.5,1355,q),
(672,1355,o),
(813.5,1307.5,q),
(955,1260,o),
(1050,1172,q),
(1242,996,o),
(1242,679,q),
(1242,324,o),
(1028,140,q),
(836,-25,o),
(496,-25,q)
);
},
{
closed = 1;
nodes = (
(516,207,o),
(581,207,q),
(646,207,o),
(721,232.5,q),
(796,258,o),
(851,312,q),
(969,426,o),
(969,644,q),
(969,1002,o),
(708,1084,q),
(622,1111,o),
(509,1111,q),
(482,1111,l),
(467,1111,o),
(451,1110,q),
(451,219,l)
);
}
);
width = 1364;
}
);
unicode = 68;
},
{
category = Letter;
glyphname = E;
layers = (
{
layerId = "4de0c4ad-9814-44bf-ac31-cb508b764638";
name = Fore;
shapes = (
{
closed = 1;
nodes = (
(903,240,o),
(927,252,q),
(931,251,l),
(921,0,l),
(172,0,l),
(172,1337,l),
(199,1335,o),
(232,1334,q),
(302,1332,l),
(372,1330,o),
(454,1330,q),
(683,1330,o),
(907,1338,q),
(896,1250,o),
(896,1103,q),
(896,1087,o),
(898,1079,q),
(896,1076,l),
(844,1091,o),
(748,1091,q),
(433,1091,l),
(433,836,l),
(670,836,l),
(780,836,o),
(802,842,q),
(805,595,l),
(757,600,o),
(681,600,q),
(433,600,l),
(433,240,l),
(841,240,l)
);
}
);
width = 1026;
}
);
unicode = 69;
},
{
category = Letter;
glyphname = F;
layers = (
{
layerId = "4de0c4ad-9814-44bf-ac31-cb508b764638";
name = Fore;
shapes = (
{
closed = 1;
nodes = (
(825,580,o),
(749,580,q),
(446,580,l),
(446,0,l),
(172,0,l),
(172,1337,l),
(199,1335,o),
(234,1334,q),
(308,1332,l),
(384,1330,o),
(466,1330,q),
(712,1330,o),
(936,1338,q),
(925,1250,o),
(925,1103,q),
(925,1087,o),
(927,1079,q),
(925,1076,l),
(872,1091,o),
(777,1091,q),
(446,1091,l),
(446,816,l),
(738,816,l),
(848,816,o),
(870,822,q),
(873,575,l)
);
}
);
width = 1022;
}
);
unicode = 70;
},
{
category = Letter;
glyphname = G;
layers = (
{
layerId = "4de0c4ad-9814-44bf-ac31-cb508b764638";
name = Fore;
shapes = (
{
closed = 1;
nodes = (
(1249,768,o),
(1249,639,q),
(1249,329,l),
(1249,188,o),
(1103,84,q),
(952,-25,o),
(733,-25,q),
(429,-25,o),
(248,166,q),
(73,348,o),
(73,630,q),
(73,930,o),
(251,1130,q),
(450,1355,o),
(799,1355,q),
(1032,1355,o),
(1168,1265,q),
(1152,970,l),
(1144,968,l),
(1109,1029,o),
(1006,1068,q),
(908,1105,o),
(800.5,1105,q),
(693,1105,o),
(612.5,1071,q),
(532,1037,o),
(476,974,q),
(358,845,o),
(358,633,q),
(358,448,o),
(462,336,q),
(566,225,o),
(730,225,q),
(911,225,o),
(974,319,q),
(994,349,o),
(994,387,q),
(994,553,l),
(865,553,l),
(761,553,o),
(752,535,q),
(749,536,l),
(740,797,l),
(768,789,o),
(967,789,q),
(1085,789,l),
(1195,789,o),
(1265,804,q),
(1268,802,l)
);
}
);
width = 1364;
}
);
unicode = 71;
},
{
category = Letter;
glyphname = H;
layers = (
{
layerId = "4de0c4ad-9814-44bf-ac31-cb508b764638";
name = Fore;
shapes = (
{
closed = 1;
nodes = (
(346,0,o),
(214,0,q),
(182,0,l),
(182,1335,l),
(244,1330,o),
(270,1330,q),
(311,1330,l),
(390,1330,o),
(442,1338,q),
(442,805,l),
(912,805,l),
(912,1335,l),
(995,1330,o),
(1073.5,1330,q),
(1152,1330,o),
(1172,1338,q),
(1172,-6,l),
(1124,0,o),
(982,0,q),
(912,0,l),
(912,565,l),
(442,565,l),
(442,-6,l)
);
}
);
width = 1364;
}
);
unicode = 72;
},
{
category = Letter;
glyphname = I;
layers = (
{
layerId = "4de0c4ad-9814-44bf-ac31-cb508b764638";
name = Fore;
shapes = (
{
closed = 1;
nodes = (
(303,1330,o),
(324,1330,q),
(396,1330,l),
(449,1330,o),
(481,1338,q),
(480,0,l),
(203,0,l),
(203,1334,l)
);
}
);
width = 684;
}
);
unicode = 73;
},
{
category = Letter;
glyphname = J;
layers = (
{
layerId = "4de0c4ad-9814-44bf-ac31-cb508b764638";
name = Fore;
shapes = (
{
closed = 1;
nodes = (
(510,1330,o),
(538,1330,q),
(616,1330,l),
(665,1330,o),
(713,1338,q),
(713,442,l),
(713,222,o),
(596,96,q),
(485,-25,o),
(296,-25,q),
(166,-25,o),
(78,27,q),
(45,46,o),
(12,73,q),
(12,362,l),
(19,364,l),
(61,298,o),
(117.5,256,q),
(174,214,o),
(258,214,q),
(448,214,o),
(448,434,q),
(448,1335,l)
);
}
);
width = 860;
}
);
unicode = 74;
},
{
category = Letter;
glyphname = K;
layers = (
{
layerId = "4de0c4ad-9814-44bf-ac31-cb508b764638";
name = Fore;
shapes = (
{
closed = 1;
nodes = (
(358,0,o),
(251,0,q),
(172,0,l),
(172,1334,l),
(212,1332,l),
(254,1330,o),
(275,1330,q),
(304,1330,l),
(392,1330,o),
(427,1338,q),
(427,773,l),
(832,1334,l),
(896,1330,o),
(940,1330,q),
(995,1330,l),
(1098,1330,o),
(1142,1338,q),
(756,834,l),
(1136,80,l),
(1160,25,o),
(1181,0,q),
(1120,0,l),
(909,0,o),
(857,-8,q),
(846,59,o),
(827,109,q),
(572,595,l),
(427,405,l),
(427,-6,l)
);
}
);
width = 1193;
}
);
unicode = 75;
},
{
category = Letter;
glyphname = L;
layers = (
{
layerId = "4de0c4ad-9814-44bf-ac31-cb508b764638";
name = Fore;
shapes = (
{
closed = 1;
nodes = (
(220,0,o),
(172,-6,q),
(172,1336,l),
(196,1330,o),
(271.5,1330,q),
(347,1330,o),
(447,1334,q),
(447,240,l),
(654,240,l),
(744,240,o),
(798,246,q),
(791,12,o),
(791,3,q),
(791,-7,l),
(693,0,o),
(462,0,q),
(367,0,l)
);
}
);
width = 855;
}
);
unicode = 76;
},
{
category = Letter;
glyphname = M;
layers = (
{
layerId = "4de0c4ad-9814-44bf-ac31-cb508b764638";
name = Fore;
shapes = (
{
closed = 1;
nodes = (
(394,0,o),
(257,0,q),
(177,0,l),
(177,1334,l),
(241,1330,o),
(318,1330,q),
(395,1330,o),
(427,1338,q),
(763,767,l),
(1086,1338,l),
(1118,1330,o),
(1208,1330,q),
(1298,1330,o),
(1362,1334,q),
(1362,0,l),
(1282,0,l),
(1145,0,o),
(1097,-6,q),
(1097,890,l),
(770,305,l),
(442,843,l),
(442,-6,l)
);
}
);
width = 1539;
}
);
unicode = 77;
},
{
category = Letter;
glyphname = N;
layers = (
{
layerId = "4de0c4ad-9814-44bf-ac31-cb508b764638";
name = Fore;
shapes = (
{
closed = 1;
nodes = (
(187,34,o),
(187,74,q),
(187,1330,l),
(387,1330,l),
(917,496,l),
(917,1262,l),
(917,1317,o),
(907,1330,q),
(1177,1330,l),
(1172,1290,o),
(1172,1242,q),
(1172,0,l),
(964,0,l),
(442,801,l),
(442,0,l),
(181,0,l)
);
}
);
width = 1359;
}
);
unicode = 78;
},
{
category = Letter;
glyphname = O;
layers = (
{
layerId = "4de0c4ad-9814-44bf-ac31-cb508b764638";
name = Fore;
shapes = (
{
closed = 1;
nodes = (
(85,489,o),
(85,634.5,q),
(85,780,o),
(134,910,q),
(183,1040,o),
(274,1139,q),
(365,1238,o),
(494,1296.5,q),
(623,1355,o),
(783,1355,q),
(1059,1355,o),
(1248,1181,q),
(1450,995,o),
(1450,679,q),
(1450,373,o),
(1242,170,q),
(1114,45,o),
(937,-2,q),
(850,-25,o),
(733.5,-25,q),
(617,-25,o),
(494.5,23,q),
(372,71,o),
(281,158,q),
(190,245,o),
(137.5,367,q)
);
},
{
closed = 1;
nodes = (
(363,555,o),
(394,477,q),
(425,399,o),
(480,343,q),
(597,225,o),
(781,225,q),
(956,225,o),
(1062,338,q),
(1170,455,o),
(1170,657,q),
(1170,847,o),
(1067,974,q),
(956,1110,o),
(763,1110,q),
(576,1110,o),
(466,972,q),
(363,843,o),
(363,648,q)
);
}
);
width = 1535;
}
);
unicode = 79;
},
{
category = Letter;
glyphname = P;
layers = (
{
layerId = "4de0c4ad-9814-44bf-ac31-cb508b764638";
name = Fore;
shapes = (
{
closed = 1;
nodes = (
(292,1355,o),
(438,1355,q),
(710,1355,o),
(851.5,1227.5,q),
(993,1100,o),
(993,846,q),
(993,619,o),
(838,487,q),
(693,363,o),
(465,363,q),
(439,363,o),
(408,366,q),
(408,0,l),
(153,0,l),
(153,1337,l)
);
},
{
closed = 1;
nodes = (
(438,1114,o),
(408,1112,q),
(408,586,l),
(440,582,o),
(486,582,q),
(532,582,o),
(582,601.5,q),
(632,621,o),
(666,656,q),
(737,729,o),
(737,848,q),
(737,1114,o),
(468,1114,q)
);
}
);
width = 1026;
}
);
unicode = 80;
},
{
category = Letter;
glyphname = Q;
layers = (
{
layerId = "4de0c4ad-9814-44bf-ac31-cb508b764638";
name = Fore;
shapes = (
{
closed = 1;
nodes = (
(834,-25,o),
(724,-25,q),
(614,-25,o),
(491.5,23,q),
(369,71,o),
(278,158,q),
(82,345,o),
(82,637,q),
(82,933,o),
(272,1139,q),
(472,1355,o),
(782,1355,q),
(1064,1355,o),
(1250,1177,q),
(1447,987,o),
(1447,679,q),
(1447,432,o),
(1307,247,q),
(1263,189,o),
(1209,143,q),
(1245,133,o),
(1296,110,q),
(1405,59,o),
(1502,57,q),
(1522,57,l),
(1574,57,o),
(1591,71,q),
(1595,68,l),
(1519,-123,l),
(1505,-166,o),
(1466,-166,q),
(1409,-166,o),
(1350,-142,q),
(1291,-118,o),
(1244.5,-97,q),
(1198,-76,o),
(1156,-60,q),
(1114,-44,o),
(1076,-33,q),
(1011,-15,o),
(918,-6,q)
);
},
{
closed = 1;
nodes = (
(350,555,o),
(382.5,475.5,q),
(415,396,o),
(472,338,q),
(594,215,o),
(778,215,q),
(954,215,o),
(1065,334,q),
(1180,456,o),
(1180,657,q),
(1180,847,o),
(1072,974,q),
(955,1110,o),
(762,1110,q),
(574,1110,o),
(458,972,q),
(350,842,o),
(350,648,q)
);
}
);
width = 1535;
}
);
unicode = 81;
},
{
category = Letter;
glyphname = R;
layers = (
{
layerId = "4de0c4ad-9814-44bf-ac31-cb508b764638";
name = Fore;
shapes = (
{
closed = 1;
nodes = (
(572,515,o),
(538,515,q),
(504,515,o),
(437,520,q),
(437,0,l),
(172,0,l),
(172,1337,l),
(312,1355,o),
(516,1355,q),
(794,1355,o),
(930.5,1252.5,q),
(1067,1150,o),
(1067,936,q),
(1067,770,o),
(942,652,q),
(901,614,o),
(848,586,q),
(1052,156,l),
(1112,23,o),
(1144,-2,q),
(1139,-7,l),
(1042,9,o),
(834,-8,q),
(602,517,l)
);
},
{
closed = 1;
nodes = (
(484,1119,o),
(437,1114,q),
(437,732,l),
(486,725,o),
(552,725,q),
(618,725,o),
(663,736.5,q),
(708,748,o),
(741,772,q),
(812,825,o),
(812,931,q),
(812,1037,o),
(738,1080,q),
(669,1119,o),
(535,1119,q)
);
}
);
width = 1193;
}
);
unicode = 82;
},
{
category = Letter;
glyphname = S;
layers = (
{
layerId = "4de0c4ad-9814-44bf-ac31-cb508b764638";
name = Fore;
shapes = (
{
closed = 1;
nodes = (
(956,962,l),
(949,960,l),
(875,1071,o),
(697,1104,q),
(641,1115,o),
(589.5,1115,q),
(538,1115,o),
(501.5,1106,q),
(465,1097,o),
(439,1080,q),
(384,1044,o),
(384,986,q),
(384,910,o),
(432,872,q),
(492,826,o),
(631,807.5,q),
(770,789,o),
(854,757,q),
(938,725,o),
(992,676,q),
(1094,584,o),
(1094,416,q),
(1094,196,o),
(928,77,q),
(786,-25,o),
(570,-25,q),
(396,-25,o),
(226,41,q),
(170,63,o),
(128,92,q),
(139,426,l),
(143,429,l),
(267,215,o),
(550,215,q),
(751,215,o),
(816,312,q),
(838,345,o),
(838,385.5,q),
(838,426,o),
(825,452.5,q),
(812,479,o),
(782,498,q),
(724,536,o),
(587,549,q),
(450,562,o),
(363,598,q),
(276,634,o),
(224,687,q),
(130,783,o),
(130,955,q),
(130,1133,o),
(255,1243,q),
(382,1355,o),
(597.5,1355,q),
(813,1355,o),
(975,1256,q)
);
}
);
width = 1193;
}
);
unicode = 83;
},
{
category = Letter;
glyphname = T;
layers = (
{
layerId = "4de0c4ad-9814-44bf-ac31-cb508b764638";
name = Fore;
shapes = (
{
closed = 1;
nodes = (
(604,0,o),
(405,0,q),
(373,0,l),
(373,1106,l),
(175,1106,l),
(87,1106,o),
(71,1097,q),
(55,1088,o),
(46,1081,q),
(43,1082,l),
(43,1338,l),
(46,1341,l),
(79,1330,o),
(224,1330,q),
(851,1330,l),
(939,1330,o),
(955,1339,q),
(971,1348,o),
(980,1355,q),
(983,1354,l),
(983,1098,l),
(980,1095,l),
(947,1106,o),
(802,1106,q),
(652,1106,l),
(652,-6,l)
);
}
);
width = 1026;
}
);
unicode = 84;
},
{
category = Letter;
glyphname = U;
layers = (
{
layerId = "4de0c4ad-9814-44bf-ac31-cb508b764638";
name = Fore;
shapes = (
{
closed = 1;
nodes = (
(992,1330,o),
(1033,1330,q),
(1116,1330,l),
(1158,1330,o),
(1204,1338,q),
(1204,511,l),
(1204,265,o),
(1055,116,q),
(914,-25,o),
(701,-25,q),
(468,-25,o),
(324,96,q),
(163,232,o),
(163,488,q),
(163,1335,l),
(246,1330,o),
(319.5,1330,q),
(393,1330,o),
(441,1338,q),
(441,475,l),
(441,349,o),
(518,279,q),
(590,215,o),
(698,215,q),
(858,215,o),
(911,379,q),
(930,438,o),
(930,525,q),
(930,1335,l)
);
}
);
width = 1368;
}
);
unicode = 85;
},
{
category = Letter;
glyphname = V;
layers = (
{
layerId = "4de0c4ad-9814-44bf-ac31-cb508b764638";
name = Fore;
shapes = (
{
closed = 1;
nodes = (
(709,0,o),
(636,0,q),
(526,0,l),
(499,0,o),
(477,-2,q),
(476,0,l),
(480,7,o),
(480,16,q),
(480,25,o),
(478.5,35,q),
(477,45,o),
(470,71,q),
(463,97,o),
(448,146,q),
(406,280,l),
(34,1334,l),
(96,1330,o),
(192,1330,q),
(288,1330,o),
(315,1338,q),
(616,429,l),
(880,1334,l),
(940,1330,o),
(1028,1330,q),
(1148,1330,o),
(1168,1338,q),
(803,283,l),
(803,283,o),
(768,166,q),
(739,66,o),
(739,36.5,q),
(739,7,o),
(743,-1,q),
(741,-4,l)
);
}
);
width = 1193;
}
);
unicode = 86;
},
{
category = Letter;
glyphname = W;
layers = (
{
layerId = "4de0c4ad-9814-44bf-ac31-cb508b764638";
name = Fore;
shapes = (
{
closed = 1;
nodes = (
(618,0,o),
(546,0,q),
(430,0,l),
(396,0,o),
(374,-2,q),
(373,0,l),
(377,7,o),
(377,16,q),
(377,25,o),
(375.5,35,q),
(374,45,o),
(367.5,71,q),
(361,97,o),
(348,146,q),
(8,1334,l),
(72,1330,o),
(163,1330,q),
(254,1330,o),
(281,1338,q),
(517,433,l),
(747,1334,l),
(762,1333,o),
(774,1332,q),
(796,1332,l),
(829,1330,o),
(879,1330,q),
(929,1330,o),
(982,1338,q),
(1216,433,l),
(1417,1334,l),
(1477,1330,o),
(1574,1330,q),
(1671,1330,o),
(1692,1338,q),
(1404,283,l),
(1349,101,o),
(1346,67,q),
(1343,33,o),
(1343,20,q),
(1343,7,o),
(1347,-1,q),
(1345,-4,l),
(1313,0,o),
(1244,0,q),
(1184,0,o),
(1135,0,q),
(1086,0,o),
(1064,-2,q),
(1063,0,l),
(1067,7,o),
(1067,16,q),
(1067,25,o),
(1066,34,q),
(1065,43,o),
(1060.5,68.5,q),
(1056,94,o),
(1046,144,q),
(1019,280,l),
(855,903,l),
(699,283,l),
(651,92,o),
(649,63,q),
(645,8,o),
(650,-1,q),
(648,-4,l)
);
}
);
width = 1710;
}
);
unicode = 87;
},
{
category = Letter;
glyphname = X;
layers = (
{
layerId = "4de0c4ad-9814-44bf-ac31-cb508b764638";
name = Fore;
shapes = (
{
closed = 1;
nodes = (
(800,1277,o),
(800,1298.5,q),
(800,1320,o),
(796,1330,q),
(1156,1330,l),
(1145,1318,o),
(1128,1301.5,q),
(1111,1285,o),
(1090,1262,q),
(1040,1206,o),
(998,1132,q),
(757,692,l),
(982,269,l),
(1009,214,l),
(1085,56,o),
(1138,0,q),
(812,0,l),
(808,35,o),
(778,94,q),
(582,470,l),
(375,51,o),
(370,38,q),
(365,21,o),
(362,0,q),
(36,0,l),
(73,38,o),
(112,107,q),
(232,320,l),
(445,681,l),
(165,1208,l),
(120,1293,o),
(86,1330,q),
(422,1330,l),
(418,1320,o),
(418,1308,q),
(418,1281,o),
(443,1233,q),
(610,899,l),
(779,1233,l)
);
}
);
width = 1193;
}
);
unicode = 88;
},
{
category = Letter;
glyphname = Y;
layers = (
{
layerId = "4de0c4ad-9814-44bf-ac31-cb508b764638";
name = Fore;
shapes = (
{
closed = 1;
nodes = (
(464,39,o),
(464,182,q),
(464,460,l),
(291,841,o),
(243,935.5,q),
(195,1030,o),
(162,1085,q),
(58,1261,o),
(36.5,1287,q),
(15,1313,o),
(-7,1330,q),
(338,1330,l),
(349,1310,o),
(368,1271,q),
(610,760,l),
(627,802,o),
(650,854,q),
(868,1323,o),
(871,1330,q),
(1201,1330,l),
(1150,1289,o),
(1076,1158,q),
(1053,1119,o),
(1030,1069,q),
(804,598,l),
(766,513,o),
(739,445,q),
(739,158,l),
(739,58,o),
(751,0,q),
(451,0,l)
);
}
);
width = 1193;
}
);
unicode = 89;
},
{
category = Letter;
glyphname = Z;
layers = (
{
layerId = "4de0c4ad-9814-44bf-ac31-cb508b764638";
name = Fore;
shapes = (
{
closed = 1;
nodes = (
(143,1273,o),
(140,1330,q),
(1088,1330,l),
(506,240,l),
(869,240,l),
(1011,240,o),
(1036.5,248.5,q),
(1062,257,o),
(1077,264,q),
(1077,-15,l),
(1034,-11,o),
(1006,-8,q),
(978,-5,o),
(947,-3,q),
(900,0,o),
(765,0,q),
(92,0,l),
(694,1090,l),
(379,1090,l),
(184,1090,o),
(131,1069,q),
(143,1119,o),
(143,1210,q),
(143,1240,l)
);
}
);
width = 1189;
}
);
unicode = 90;
},
{
category = Letter;
glyphname = bracketleft;
layers = (
{
layerId = "4de0c4ad-9814-44bf-ac31-cb508b764638";
name = Fore;
shapes = (
{
closed = 1;
nodes = (
(199,-46,o),
(199,-34,q),
(199,1190,l),
(199,1330,o),
(194,1430,q),
(358,1430,o),
(514,1430,q),
(670,1430,o),
(708,1435,q),
(705,1188,l),
(681,1194,o),
(583,1194,q),
(454,1194,l),
(463,126,l),
(530,126,l),
(681,126,o),
(705,132,q),
(708,-115,l),
(633,-110,o),
(562,-110,q),
(195,-110,l)
);
}
);
width = 929;
}
);
unicode = 91;
},
{
category = Letter;
glyphname = backslash;
layers = (
{
layerId = "4de0c4ad-9814-44bf-ac31-cb508b764638";
name = Fore;
shapes = (
{
closed = 1;
nodes = (
(0,1530,l),
(599,-170,l),
(855,-170,l),
(256,1530,l)
);
}
);
width = 855;
}
);
unicode = 92;
},
{
category = Letter;
glyphname = bracketright;
layers = (
{
layerId = "4de0c4ad-9814-44bf-ac31-cb508b764638";
name = Fore;
shapes = (
{
closed = 1;
nodes = (
(703,-46,o),
(703,-34,q),
(703,1190,l),
(703,1330,o),
(708,1430,q),
(544,1430,o),
(388,1430,q),
(232,1430,o),
(194,1435,q),
(197,1188,l),
(221,1194,o),
(319,1194,q),
(448,1194,l),
(439,126,l),
(372,126,l),
(221,126,o),
(197,132,q),
(194,-115,l),
(269,-110,o),
(340,-110,q),
(707,-110,l)
);
}
);
width = 929;
}
);
unicode = 93;
},
{
category = Letter;
glyphname = asciicircum;
layers = (
{
layerId = "4de0c4ad-9814-44bf-ac31-cb508b764638";
name = Fore;
shapes = (
{
closed = 1;
nodes = (
(694,1415,l),
(1111,510,l),
(829,510,l),
(589,1121,l),
(362,510,l),
(81,510,l),
(480,1415,l)
);
}
);
width = 1193;
}
);
unicode = 94;
},
{
category = Letter;
glyphname = underscore;
layers = (
{
layerId = "4de0c4ad-9814-44bf-ac31-cb508b764638";
name = Fore;
shapes = (
{
closed = 1;
nodes = (
(1384,-334,l),
(-29,-334,l),
(-29,-174,l),
(1384,-174,l)
);
}
);
width = 1353;
}
);
unicode = 95;
},
{
category = Letter;
glyphname = grave;
layers = (
{
layerId = "4de0c4ad-9814-44bf-ac31-cb508b764638";
name = Fore;
shapes = (
{
closed = 1;
nodes = (
(302,1503,o),
(452,1503,q),
(621,1190,l),
(395,1190,l),
(133,1513,l),
(132,1520,l)
);
}
);
width = 803;
}
);
unicode = 96;
},
{
category = Letter;
glyphname = a;
layers = (
{
layerId = "4de0c4ad-9814-44bf-ac31-cb508b764638";
name = Fore;
shapes = (
{
closed = 1;
nodes = (
(695,-15,o),
(580,-15,q),
(465,-15,o),
(383,6.5,q),
(301,28,o),
(244,70,q),
(128,155,o),
(128,316,q),
(128,460,o),
(270,556,q),
(424,660,o),
(688,660,q),
(728,659,l),
(740,658,o),
(755,657.5,q),
(770,657,o),
(782,655,q),
(774,815,o),
(644,842,q),
(601,851,o),
(552.5,851,q),
(504,851,o),
(457.5,842.5,q),
(411,834,o),
(367,820,q),
(270,789,o),
(228,749,q),
(225,751,l),
(195,972,l),
(372,1065,o),
(582,1065,q),
(908,1065,o),
(999,830,q),
(1028,755,o),
(1028,661,q),
(1028,299,l),
(1028,183,o),
(1110,141,q),
(929,-25,l),
(872,5,o),
(837,62,q)
);
},
{
closed = 1;
nodes = (
(756,480,o),
(727,480,q),
(687,480,l),
(466,480,o),
(406,382,q),
(388,353,o),
(388,321,q),
(388,289,o),
(399.5,264.5,q),
(411,240,o),
(438,224,q),
(490,194,o),
(592.5,194,q),
(695,194,o),
(784,243,q),
(783,254,o),
(783,266,q),
(783,475,l)
);
}
);
width = 1193;
}
);
unicode = 97;
},
{
category = Letter;
glyphname = b;
layers = (
{
layerId = "4de0c4ad-9814-44bf-ac31-cb508b764638";
name = Fore;
shapes = (
{
closed = 1;
nodes = (
(509,1065,o),
(626,1065,q),
(743,1065,o),
(827.5,1028.5,q),
(912,992,o),
(976,924,q),
(1115,773,o),
(1115,542,q),
(1115,289,o),
(964,134,q),
(819,-15,o),
(603,-15,q),
(413,-15,o),
(290,84,q),
(152,196,o),
(152,393,q),
(152,1488,l),
(397,1488,l),
(397,1007,l)
);
},
{
closed = 1;
nodes = (
(397,220,o),
(616,220,q),
(723,220,o),
(796,314,q),
(870,410,o),
(870,553,q),
(870,697,o),
(792,770,q),
(722,835,o),
(604,835,q),
(533,835,o),
(447,787,q),
(420,772,o),
(397,754,q),
(397,396,l)
);
}
);
width = 1187;
}
);
unicode = 98;
},
{
category = Letter;
glyphname = c;
layers = (
{
layerId = "4de0c4ad-9814-44bf-ac31-cb508b764638";
name = Fore;
shapes = (
{
closed = 1;
nodes = (
(852,-15,o),
(613,-15,q),
(381,-15,o),
(234,126,q),
(85,269,o),
(85,506,q),
(85,747,o),
(232,902,q),
(388,1065,o),
(649,1065,q),
(834,1065,o),
(959,984,q),
(919,728,l),
(912,729,l),
(864,787,o),
(811,805,q),
(725,835,o),
(639,835,q),
(553,835,o),
(504,813,q),
(455,791,o),
(420,752,q),
(350,672,o),
(350,540,q),
(350,306,o),
(512,234,q),
(568,210,o),
(630.5,210,q),
(693,210,o),
(739.5,221,q),
(786,232,o),
(824,251,q),
(905,291,o),
(934,344,q),
(941,341,l),
(964,97,l)
);
}
);
width = 1026;
}
);
unicode = 99;
},
{
category = Letter;
glyphname = d;
layers = (
{
layerId = "4de0c4ad-9814-44bf-ac31-cb508b764638";
name = Fore;
shapes = (
{
closed = 1;
nodes = (
(737,-15,o),
(610,-15,q),
(483,-15,o),
(388,25,q),
(293,65,o),
(226,135,q),
(88,279,o),
(88,509,q),
(88,747,o),
(248,905,q),
(409,1065,o),
(660,1065,q),
(737,1065,o),
(811,1045,q),
(811,1490,l),
(1056,1490,l),
(1056,421,l),
(1056,288,o),
(1068.5,247,q),
(1081,206,o),
(1096.5,187,q),
(1112,168,o),
(1136,151,q),
(948,-15,l),
(896,13,o),
(864,56,q)
);
},
{
closed = 1;
nodes = (
(741,215,o),
(811,247,q),
(811,801,l),
(741,830,o),
(659,830,q),
(577,830,o),
(518.5,808,q),
(460,786,o),
(418,747,q),
(330,665,o),
(330,534,q),
(330,391,o),
(410,306,q),
(496,215,o),
(657,215,q)
);
}
);
width = 1197;
}
);
unicode = 100;
},
{
category = Letter;
glyphname = e;
layers = (
{
layerId = "4de0c4ad-9814-44bf-ac31-cb508b764638";
name = Fore;
shapes = (
{
closed = 1;
nodes = (
(97,631,o),
(137,731,q),
(177,831,o),
(250,906,q),
(406,1065,o),
(658,1065,q),
(871,1065,o),
(1000,924,q),
(1127,788,o),
(1127,582,q),
(1127,503,o),
(1115,474,q),
(1015,446,o),
(708,446,q),
(356,446,l),
(382,339,o),
(477,279.5,q),
(572,220,o),
(724,220,q),
(883,220,o),
(997,277,q),
(1027,292,o),
(1042,305,q),
(1040,263,o),
(1037,219,q),
(1026,63,l),
(950,11,o),
(780,-9,q),
(730,-15,o),
(684,-15,q),
(430,-15,o),
(264,133,q),
(97,282,o),
(97,514,q)
);
},
{
closed = 1;
nodes = (
(820,855,o),
(627,855,q),
(475,855,o),
(396,724,q),
(372,684,o),
(359,636,q),
(383,635,o),
(418,634,q),
(492,634,l),
(529,633,o),
(563,633,q),
(620,633,l),
(671,633,o),
(720,634,q),
(802,637,l),
(835,638,o),
(861,640,q)
);
}
);
width = 1197;
}
);
unicode = 101;
},
{
category = Letter;
glyphname = f;
layers = (
{
layerId = "4de0c4ad-9814-44bf-ac31-cb508b764638";
name = Fore;
shapes = (
{
closed = 1;
nodes = (
(638,901,o),
(638,784,q),
(638,696,l),
(397,696,l),
(397,0,l),
(152,0,l),
(152,696,l),
(5,696,l),
(6,762,o),
(7,813,q),
(9,920,l),
(9,930,l),
(152,930,l),
(152,992,l),
(152,1232,o),
(264,1378,q),
(381,1529,o),
(586,1529,q),
(673,1529,o),
(701,1517,q),
(702,1266,l),
(700,1261,l),
(662,1299,o),
(603.5,1299,q),
(545,1299,o),
(509,1279.5,q),
(473,1260,o),
(448,1224,q),
(397,1152,o),
(397,1027,q),
(397,930,l),
(646,930,l)
);
}
);
width = 684;
}
);
unicode = 102;
},
{
category = Letter;
glyphname = g;
layers = (
{
layerId = "4de0c4ad-9814-44bf-ac31-cb508b764638";
name = Fore;
shapes = (
{
closed = 1;
nodes = (
(379,229,o),
(379,200.5,q),
(379,172,o),
(388,156.5,q),
(397,141,o),
(427,127,q),
(493,96,o),
(644,72.5,q),
(795,49,o),
(880.5,14,q),
(966,-21,o),
(1019,-72,q),
(1118,-169,o),
(1118,-347,q),
(1118,-525,o),
(993,-620.5,q),
(868,-716,o),
(622,-716,q),
(374,-716,o),
(222,-608,q),
(70,-500,o),
(66,-321,q),
(60,-113,o),
(229,-20,q),
(183,18,o),
(167.5,69.5,q),
(152,121,o),
(152,187,q),
(152,298,o),
(249,375,q),
(136,482,o),
(136,641,q),
(136,819,o),
(264,939,q),
(399,1065,o),
(614,1065,q),
(727,1065,o),
(826,1023,q),
(956,1078,o),
(1017,1119.5,q),
(1078,1161,o),
(1095,1180,q),
(1101,1179,l),
(1110,1155,o),
(1122,1111,q),
(1140,1039,l),
(1164,950,o),
(1169,917,q),
(1125,869,o),
(1014,849,q),
(1057,766,o),
(1057,673,q),
(1057,580,o),
(1025,504.5,q),
(993,429,o),
(934,372,q),
(803,249,o),
(600,249,q),
(501,249,o),
(416,278,q)
);
},
{
closed = 1;
nodes = (
(376,692,o),
(376,655,q),
(376,618,o),
(391.5,584,q),
(407,550,o),
(437,523,q),
(504,463,o),
(612,463,q),
(694,463,o),
(754,518,q),
(817,578,o),
(817,662.5,q),
(817,747,o),
(760,799,q),
(703,851,o),
(603,851,q),
(438,851,o),
(390,728,q)
);
},
{
closed = 1;
nodes = (
(881,-504,o),
(881,-332,q),
(881,-250,o),
(801,-200,q),
(711,-143,o),
(492,-111,q),
(440,-102,l),
(374,-137,o),
(343,-192,q),
(312,-247,o),
(312.5,-296.5,q),
(313,-346,o),
(336,-382,q),
(359,-418,o),
(400,-445,q),
(491,-504,o),
(635,-504,q)
);
}
);
width = 1193;
}
);
unicode = 103;
},
{
category = Letter;
glyphname = h;
layers = (
{
layerId = "4de0c4ad-9814-44bf-ac31-cb508b764638";
name = Fore;
shapes = (
{
closed = 1;
nodes = (
(418,26,o),
(422,0,q),
(173,0,l),
(173,1430,l),
(418,1430,l),
(418,967,l),
(547,1065,o),
(684,1065,q),
(852,1065,o),
(954,954,q),
(1054,843,o),
(1054,660,q),
(1054,262,l),
(1054,93,o),
(1059,59,q),
(1064,25,o),
(1072.5,15,q),
(1081,5,o),
(1087,-3,q),
(1085,-7,l),
(1004,0,o),
(967,0,q),
(896,0,l),
(863,0,o),
(809,-3,q),
(809,576,l),
(809,714,o),
(748,780,q),
(702,830,o),
(623,830,q),
(506,830,o),
(418,695,q),
(418,112,l)
);
}
);
width = 1193;
}
);
unicode = 104;
},
{
category = Letter;
glyphname = i;
layers = (
{
layerId = "4de0c4ad-9814-44bf-ac31-cb508b764638";
name = Fore;
shapes = (
{
closed = 1;
nodes = (
(195,1468,o),
(282,1563,q),
(497,1394,l),
(454,1341,o),
(417,1290,q),
(417,1290,o),
(340,1181,q),
(115,1343,l)
);
},
{
closed = 1;
nodes = (
(378,26,o),
(382,0,q),
(128,0,l),
(128,1045,l),
(378,1045,l),
(378,112,l)
);
}
);
width = 513;
}
);
unicode = 105;
},
{
category = Letter;
glyphname = j;
layers = (
{
layerId = "4de0c4ad-9814-44bf-ac31-cb508b764638";
name = Fore;
shapes = (
{
closed = 1;
nodes = (
(160,1440,o),
(244,1532,q),
(435,1381,l),
(385,1317,o),
(367,1293,q),
(332,1244,l),
(315,1221,o),
(296,1192,q),
(95,1336,l)
);
},
{
closed = 1;
nodes = (
(132,-155,o),
(132,65,q),
(132,1045,l),
(375,1045,l),
(375,137,l),
(375,-283,o),
(136,-360,q),
(58,-385,o),
(-41,-385,q),
(-145,-122,l),
(-143,-117,l),
(-86,-155,o),
(-16,-155,q)
);
}
);
width = 513;
}
);
unicode = 106;
},
{
category = Letter;
glyphname = k;
layers = (
{
layerId = "4de0c4ad-9814-44bf-ac31-cb508b764638";
name = Fore;
shapes = (
{
closed = 1;
nodes = (
(407,46,o),
(414,0,q),
(162,0,l),
(162,1430,l),
(407,1430,l),
(407,554,l),
(864,1045,l),
(1161,1045,l),
(767,630,l),
(992,323,l),
(1065,207,o),
(1102,153,q),
(1168,60,l),
(1198,21,o),
(1218,0,q),
(1060,0,l),
(972,0,o),
(909,-15,q),
(597,441,l),
(407,239,l),
(407,132,l)
);
}
);
width = 1193;
}
);
unicode = 107;
},
{
category = Letter;
glyphname = l;
layers = (
{
layerId = "4de0c4ad-9814-44bf-ac31-cb508b764638";
name = Fore;
shapes = (
{
closed = 1;
nodes = (
(379,26,o),
(383,0,q),
(129,0,l),
(129,1490,l),
(379,1490,l),
(379,112,l)
);
}
);
width = 513;
}
);
unicode = 108;
},
{
category = Letter;
glyphname = m;
layers = (
{
layerId = "4de0c4ad-9814-44bf-ac31-cb508b764638";
name = Fore;
shapes = (
{
closed = 1;
nodes = (
(417,64,o),
(425,0,q),
(164,0,l),
(164,1045,l),
(417,1045,l),
(417,955,l),
(554,1065,o),
(698,1065,q),
(868,1065,o),
(945,918,q),
(1022,997,o),
(1073,1022,q),
(1158,1065,o),
(1243.5,1065,q),
(1329,1065,o),
(1389,1036,q),
(1449,1007,o),
(1488,954,q),
(1567,847,o),
(1567,660,q),
(1567,262,l),
(1567,93,o),
(1572,59,q),
(1577,25,o),
(1585.5,15,q),
(1594,5,o),
(1600,-3,q),
(1598,-7,l),
(1518,0,o),
(1480,0,q),
(1405,0,l),
(1368,0,o),
(1314,-3,q),
(1314,538,l),
(1314,772,o),
(1242,816,q),
(1218,830,o),
(1185.5,830,q),
(1153,830,o),
(1128,822.5,q),
(1103,815,o),
(1081,798,q),
(1044,771,o),
(997,692,q),
(998,684,o),
(998,676,q),
(998,668,o),
(998,412,q),
(998,156,o),
(1010,0,q),
(925,0,o),
(865.5,0,q),
(806,0,o),
(752,-3,q),
(752,539,l),
(752,702,o),
(732.5,751,q),
(713,800,o),
(691,815,q),
(669,830,o),
(637,830,q),
(505,830,o),
(417,703,q),
(417,289,l)
);
}
);
width = 1710;
}
);
unicode = 109;
},
{
category = Letter;
glyphname = n;
layers = (
{
layerId = "4de0c4ad-9814-44bf-ac31-cb508b764638";
name = Fore;
shapes = (
{
closed = 1;
nodes = (
(410,40,o),
(418,0,q),
(167,0,l),
(167,1045,l),
(410,1045,l),
(410,956,l),
(542,1065,o),
(692,1065,q),
(856,1065,o),
(954,953.5,q),
(1052,842,o),
(1052,660,q),
(1052,262,l),
(1052,93,o),
(1057,59,q),
(1062,25,o),
(1070.5,15,q),
(1079,5,o),
(1085,-3,q),
(1083,-7,l),
(1002,0,o),
(965,0,q),
(895,0,l),
(863,0,o),
(809,-3,q),
(809,542,l),
(809,835,o),
(631,835,q),
(499,835,o),
(410,699,q),
(410,128,l)
);
}
);
width = 1197;
}
);
unicode = 110;
},
{
category = Letter;
glyphname = o;
layers = (
{
layerId = "4de0c4ad-9814-44bf-ac31-cb508b764638";
name = Fore;
shapes = (
{
closed = 1;
nodes = (
(71,627,o),
(108.5,727.5,q),
(146,828,o),
(216,903,q),
(369,1065,o),
(613,1065,q),
(856,1065,o),
(999,912,q),
(1136,766,o),
(1136,533,q),
(1136,300,o),
(995,147,q),
(846,-15,o),
(600,-15,q),
(346,-15,o),
(202,144,q),
(71,289,o),
(71,517,q)
);
},
{
closed = 1;
nodes = (
(314,460,o),
(335,401,q),
(356,342,o),
(395,300,q),
(478,209,o),
(613,209,q),
(738,209,o),
(810,298,q),
(880,384,o),
(880,522,q),
(880,662,o),
(808,748,q),
(731,840,o),
(597,840,q),
(461,840,o),
(384,742,q),
(314,652,o),
(314,523,q)
);
}
);
width = 1197;
}
);
unicode = 111;
},
{
category = Letter;
glyphname = p;
layers = (
{
layerId = "4de0c4ad-9814-44bf-ac31-cb508b764638";
name = Fore;
shapes = (
{
closed = 1;
nodes = (
(407,-273,l),
(407,-359,o),
(411,-385,q),
(162,-385,l),
(162,1045,l),
(407,1045,l),
(407,980,l),
(528,1065,o),
(639,1065,q),
(750,1065,o),
(836,1034,q),
(922,1003,o),
(987,938,q),
(1130,797,o),
(1130,536,q),
(1130,363,o),
(1049,227,q),
(980,112,o),
(858,43,q),
(750,-18,o),
(624,-18,q),
(498,-18,o),
(407,21,q)
);
},
{
closed = 1;
nodes = (
(483,209,o),
(604,209,q),
(802,209,o),
(860,400,q),
(880,465,o),
(880,539.5,q),
(880,614,o),
(866,658.5,q),
(852,703,o),
(829.5,735.5,q),
(807,768,o),
(779,789.5,q),
(751,811,o),
(722,824,q),
(671,847,o),
(617,847,q),
(563,847,o),
(505,822,q),
(447,797,o),
(407,755,q),
(407,273,l)
);
}
);
width = 1193;
}
);
unicode = 112;
},
{
category = Letter;
glyphname = q;
layers = (
{
layerId = "4de0c4ad-9814-44bf-ac31-cb508b764638";
name = Fore;
shapes = (
{
closed = 1;
nodes = (
(848,-359,o),
(848,-273,q),
(848,92,l),
(724,-15,o),
(573,-15,q),
(366,-15,o),
(237,118,q),
(102,256,o),
(102,486,q),
(102,746,o),
(246,904,q),
(386,1055,o),
(601,1055,q),
(765,1055,o),
(859,1003,q),
(1093,1045,l),
(1093,-385,l),
(844,-385,l)
);
},
{
closed = 1;
nodes = (
(776,838,o),
(618,838,q),
(494,838,o),
(420,744,q),
(347,651,o),
(347,511,q),
(347,303,o),
(495,234,q),
(545,210,o),
(613,210,q),
(754,210,o),
(848,340,q),
(848,769,l)
);
}
);
width = 1193;
}
);
unicode = 113;
},
{
category = Letter;
glyphname = r;
layers = (
{
layerId = "4de0c4ad-9814-44bf-ac31-cb508b764638";
name = Fore;
shapes = (
{
closed = 1;
nodes = (
(383,26,o),
(387,0,q),
(138,0,l),
(138,1045,l),
(383,1045,l),
(383,968,l),
(468,1065,o),
(561.5,1065,q),
(655,1065,o),
(709,1042,q),
(691,773,l),
(687,770,l),
(652,832,o),
(542,832,q),
(500,832,o),
(456.5,803.5,q),
(413,775,o),
(383,728,q),
(383,112,l)
);
}
);
width = 684;
}
);
unicode = 114;
},
{
category = Letter;
glyphname = s;
layers = (
{
layerId = "4de0c4ad-9814-44bf-ac31-cb508b764638";
name = Fore;
shapes = (
{
closed = 1;
nodes = (
(217,-15,o),
(74,88,q),
(76,118,o),
(80,156,q),
(89,228,l),
(97,299,o),
(99,316.5,q),
(101,334,o),
(102,335.5,q),
(103,337,o),
(118,319.5,q),
(133,302,o),
(175,277,q),
(217,252,o),
(272,233,q),
(391,192,o),
(520,192,q),
(693,192,o),
(693,307,q),
(693,344,o),
(660,362,q),
(601,392,o),
(486.5,407.5,q),
(372,423,o),
(299,453,q),
(226,483,o),
(180,525,q),
(95,604,o),
(95,732,q),
(95,888,o),
(215,977,q),
(334,1065,o),
(544,1065,q),
(752,1065,o),
(899,947,q),
(892,921,o),
(884,897,q),
(861,831,o),
(850,802,q),
(827,743,l),
(825,735,o),
(824,735,q),
(822,735,o),
(808,756,q),
(745,829,o),
(612,852,q),
(571,860,o),
(528,860,q),
(346,860,o),
(346,750,q),
(346,712,o),
(384,692,q),
(455,654,o),
(578.5,636,q),
(702,618,o),
(766,587.5,q),
(830,557,o),
(869,514,q),
(941,436,o),
(941,307,q),
(941,166,o),
(828,78,q),
(710,-15,o),
(499,-15,q)
);
}
);
width = 1026;
}
);
unicode = 115;
},
{
category = Letter;
glyphname = t;
layers = (
{
layerId = "4de0c4ad-9814-44bf-ac31-cb508b764638";
name = Fore;
shapes = (
{
closed = 1;
nodes = (
(740,220,o),
(788,287,q),
(796,287,l),
(799,55,l),
(750,6,o),
(617,-10,q),
(581,-15,o),
(527.5,-15,q),
(474,-15,o),
(411.5,5,q),
(349,25,o),
(305,70,q),
(214,163,o),
(214,361,q),
(214,815,l),
(63,815,l),
(62,844,o),
(62,874,q),
(62,1028,l),
(62,1045,o),
(63,1045,q),
(214,1045,l),
(214,1330,l),
(459,1330,l),
(459,1045,l),
(734,1045,l),
(734,815,l),
(459,815,l),
(459,407,l),
(459,250,o),
(546,228,q),
(574,220,o),
(611,220,q)
);
}
);
width = 855;
}
);
unicode = 116;
},
{
category = Letter;
glyphname = u;
layers = (
{
layerId = "4de0c4ad-9814-44bf-ac31-cb508b764638";
name = Fore;
shapes = (
{
closed = 1;
nodes = (
(645,-15,o),
(494,-15,q),
(332,-15,o),
(240,94,q),
(152,200,o),
(152,385,q),
(152,782,l),
(152,982,o),
(143.5,1011.5,q),
(135,1041,o),
(131,1049,q),
(177,1045,o),
(227,1045,q),
(310,1045,l),
(343,1045,o),
(397,1048,q),
(397,469,l),
(397,263,o),
(509,230,q),
(543,220,o),
(583,220,q),
(701,220,o),
(773,306,q),
(773,1045,l),
(1021,1045,l),
(1021,128,l),
(1021,40,o),
(1029,0,q),
(773,0,l),
(773,91,l)
);
}
);
width = 1193;
}
);
unicode = 117;
},
{
category = Letter;
glyphname = v;
layers = (
{
layerId = "4de0c4ad-9814-44bf-ac31-cb508b764638";
name = Fore;
shapes = (
{
closed = 1;
nodes = (
(279,1045,l),
(523,357,l),
(759,1045,l),
(1036,1045,l),
(623,0,l),
(417,0,l),
(-4,1045,l)
);
}
);
width = 1031;
}
);
unicode = 118;
},
{
category = Letter;
glyphname = w;
layers = (
{
layerId = "4de0c4ad-9814-44bf-ac31-cb508b764638";
name = Fore;
shapes = (
{
closed = 1;
nodes = (
(276,1045,l),
(462,294,l),
(662,1045,l),
(892,1045,l),
(1099,278,l),
(1285,1045,l),
(1527,1045,l),
(1219,0,l),
(960,0,l),
(762,685,l),
(578,0,l),
(321,0,l),
(7,1045,l)
);
}
);
width = 1535;
}
);
unicode = 119;
},
{
category = Letter;
glyphname = x;
layers = (
{
layerId = "4de0c4ad-9814-44bf-ac31-cb508b764638";
name = Fore;
shapes = (
{
closed = 1;
nodes = (
(20,1045,l),
(333,1045,l),
(518,726,l),
(718,1045,l),
(1009,1045,l),
(1008,1045,o),
(987,1016,q),
(661,551,l),
(1031,0,l),
(721,0,l),
(521,339,l),
(323,0,l),
(10,0,l),
(374,533,l)
);
}
);
width = 1031;
}
);
unicode = 120;
},
{
category = Letter;
glyphname = y;
layers = (
{
layerId = "4de0c4ad-9814-44bf-ac31-cb508b764638";
name = Fore;
shapes = (
{
closed = 1;
nodes = (
(117,-295,l),
(266,-174,o),
(364,62,q),
(410,173,l),
(27,1045,l),
(307,1045,l),
(547,441,l),
(770,1045,l),
(1058,1045,l),
(1006,973,o),
(931,777,q),
(781,406,l),
(480,-302,o),
(309,-438,q),
(51,-348,l)
);
}
);
width = 1025;
}
);
unicode = 121;
},
{
category = Letter;
glyphname = z;
layers = (
{
layerId = "4de0c4ad-9814-44bf-ac31-cb508b764638";
name = Fore;
shapes = (
{
closed = 1;
nodes = (
(143,1045,l),
(988,1045,l),
(478,200,l),
(871,200,l),
(959,200,o),
(990,225,q),
(924,-15,l),
(880,-12,o),
(818,-10,q),
(694,-4,l),
(579,0,o),
(477,0,q),
(251,0,o),
(56,-15,q),
(579,849,l),
(331,849,l),
(215,849,o),
(141,823,q),
(145,901,o),
(145,944,q),
(145,998,l)
);
}
);
width = 1024;
}
);
unicode = 122;
},
{
category = Letter;
glyphname = braceleft;
layers = (
{
layerId = "4de0c4ad-9814-44bf-ac31-cb508b764638";
name = Fore;
shapes = (
{
closed = 1;
nodes = (
(698,-105,o),
(617,-105,q),
(536,-105,o),
(467,-84,q),
(398,-63,o),
(354,-27,q),
(267,43,o),
(267,160,q),
(267,274,o),
(353,363,q),
(380,424,o),
(394.5,461.5,q),
(409,499,o),
(409,534,q),
(409,615,o),
(222,648,q),
(222,703,l),
(358,727,o),
(394,762,q),
(409,776,o),
(409,794,q),
(409,812,o),
(406.5,827.5,q),
(404,843,o),
(398,861,q),
(386,893,o),
(354,957,q),
(267,1040,o),
(267,1166,q),
(267,1274,o),
(351,1352,q),
(451,1445,o),
(631,1445,q),
(690,1445,o),
(767,1433,q),
(757,1230,l),
(753,1228,l),
(725,1235,o),
(704.5,1236.5,q),
(684,1238,o),
(659,1240.5,q),
(634,1243,o),
(608,1236.5,q),
(582,1230,o),
(563,1218,q),
(523,1191,o),
(523,1153,q),
(523,1074,o),
(623,978,q),
(681,856,o),
(681,793,q),
(681,715,o),
(522,665,q),
(681,614,o),
(681,546,q),
(681,486,o),
(631,375,q),
(582,318,l),
(523,249,o),
(523,203,q),
(523,157,o),
(566,126,q),
(611,92,o),
(674,100,q),
(694,102,o),
(712.5,103.5,q),
(731,105,o),
(753,112,q),
(757,110,l),
(767,-93,l)
);
}
);
width = 1026;
}
);
unicode = 123;
},
{
category = Letter;
glyphname = bar;
layers = (
{
layerId = "4de0c4ad-9814-44bf-ac31-cb508b764638";
name = Fore;
shapes = (
{
closed = 1;
nodes = (
(337,-106,o),
(337,-51,q),
(337,1408,l),
(337,1430,o),
(332,1530,q),
(597,1530,l),
(592,1430,o),
(592,1347,q),
(592,-58,l),
(592,-144,o),
(596,-170,q),
(333,-170,l)
);
}
);
width = 929;
}
);
unicode = 124;
},
{
category = Letter;
glyphname = braceright;
layers = (
{
layerId = "4de0c4ad-9814-44bf-ac31-cb508b764638";
name = Fore;
shapes = (
{
closed = 1;
nodes = (
(291,-105,o),
(372,-105,q),
(453,-105,o),
(522,-84,q),
(591,-63,o),
(635,-27,q),
(722,43,o),
(722,160,q),
(722,274,o),
(636,363,q),
(609,424,o),
(594.5,461.5,q),
(580,499,o),
(580,534,q),
(580,615,o),
(767,648,q),
(767,703,l),
(631,727,o),
(595,762,q),
(580,776,o),
(580,794,q),
(580,812,o),
(582.5,827.5,q),
(585,843,o),
(591,861,q),
(603,893,o),
(635,957,q),
(722,1040,o),
(722,1166,q),
(722,1274,o),
(638,1352,q),
(538,1445,o),
(358,1445,q),
(299,1445,o),
(222,1433,q),
(232,1230,l),
(236,1228,l),
(264,1235,o),
(284.5,1236.5,q),
(305,1238,o),
(330,1240.5,q),
(355,1243,o),
(381,1236.5,q),
(407,1230,o),
(426,1218,q),
(466,1191,o),
(466,1153,q),
(466,1074,o),
(366,978,q),
(308,856,o),
(308,793,q),
(308,715,o),
(467,665,q),
(308,614,o),
(308,546,q),
(308,486,o),
(358,375,q),
(407,318,l),
(466,249,o),
(466,203,q),
(466,157,o),
(423,126,q),
(378,92,o),
(315,100,q),
(295,102,o),
(276.5,103.5,q),
(258,105,o),
(236,112,q),
(232,110,l),
(222,-93,l)
);
}
);
width = 1026;
}
);
unicode = 125;
},
{
category = Letter;
glyphname = asciitilde;
layers = (
{
layerId = "4de0c4ad-9814-44bf-ac31-cb508b764638";
name = Fore;
shapes = (
{
closed = 1;
nodes = (
(1305,543,o),
(1376,748,q),
(1382,745,l),
(1401,472,l),
(1314,313,o),
(1063,313,q),
(927,313,o),
(744,446,q),
(631,528,o),
(568,553,q),
(505,578,o),
(454,578,q),
(403,578,o),
(361,569,q),
(319,560,o),
(282,538,q),
(208,495,o),
(148,393,q),
(142,396,l),
(134,672,l),
(256,814,o),
(481,814,q),
(602,814,o),
(800,678.5,q),
(998,543,o),
(1093,543,q)
);
}
);
width = 1535;
}
);
unicode = 126;
},
{
category = Letter;
glyphname = exclamdown;
layers = (
{
layerId = "4de0c4ad-9814-44bf-ac31-cb508b764638";
name = Fore;
shapes = (
{
closed = 1;
nodes = (
(266,982,o),
(390,982,q),
(470,982,l),
(472,4,l),
(381,8,l),
(359,8,l),
(243,8,o),
(211,0,q),
(215,988,l)
);
},
{
closed = 1;
nodes = (
(213,1172,o),
(213,1249.5,q),
(213,1327,o),
(209,1362,q),
(474,1362,l),
(466,1300,o),
(466,1239.5,q),
(466,1179,o),
(472,1122,q),
(209,1122,l)
);
}
);
width = 684;
}
);
unicode = 161;
},
{
category = Letter;
glyphname = cent;
layers = (
{
layerId = "4de0c4ad-9814-44bf-ac31-cb508b764638";
name = Fore;
shapes = (
{
closed = 1;
nodes = (
(659,-161,o),
(659,-60,q),
(659,-23,l),
(434,-5,o),
(292,141,q),
(151,286,o),
(151,496,q),
(151,711,o),
(290,865,q),
(426,1015,o),
(652,1054,q),
(652,1121,l),
(652,1222,o),
(643,1256,q),
(912,1256,l),
(908,1198,o),
(908,1132,q),
(908,1060,l),
(1075,1047,o),
(1172,1009,q),
(1144,737,l),
(1135,728,l),
(1055,796,o),
(874,818,q),
(821,825,o),
(752,825,q),
(683,825,o),
(615,801.5,q),
(547,778,o),
(502,738,q),
(413,659,o),
(413,532,q),
(413,394,o),
(513,308,q),
(620,215,o),
(791,215,q),
(995,215,o),
(1121,328,q),
(1160,363,o),
(1180,407,q),
(1187,401,l),
(1173,106,l),
(1088,27,o),
(915,-5,q),
(915,-71,l),
(919,-192,o),
(919,-195,q),
(650,-195,l)
);
}
);
width = 1364;
}
);
unicode = 162;
},
{
category = Letter;
glyphname = sterling;
layers = (
{
layerId = "4de0c4ad-9814-44bf-ac31-cb508b764638";
name = Fore;
shapes = (
{
closed = 1;
nodes = (
(660,536,o),
(660,450.5,q),
(660,365,o),
(624,261,q),
(683,250,o),
(710,246,q),
(737,242,o),
(759.5,237,q),
(782,232,o),
(808,227,q),
(870,215,o),
(928.5,215,q),
(987,215,o),
(1023.5,218,q),
(1060,221,o),
(1088,228,q),
(1145,242,o),
(1177,268,q),
(1183,269,l),
(1175,9,l),
(1091,-25,o),
(973,-25,q),
(930,-25,o),
(850,-12,q),
(733,8,l),
(679,17,o),
(647,23,q),
(592,33,l),
(552,40,o),
(521,40,q),
(476,40,o),
(444,33,q),
(360,-10,o),
(232,-26,q),
(182,228,l),
(231,256,o),
(353,271,q),
(405,388,o),
(405,461,q),
(405,534,o),
(401,576,q),
(226,576,l),
(213,816,l),
(358,816,l),
(346,893,o),
(346,976,q),
(346,1059,o),
(378,1131,q),
(410,1203,o),
(468,1252,q),
(590,1355,o),
(792,1355,q),
(980,1355,o),
(1102,1312,q),
(1066,1062,l),
(1064,1057,l),
(988,1090,o),
(900.5,1102.5,q),
(813,1115,o),
(785,1115,q),
(601,1115,o),
(601,952,q),
(601,868,o),
(609,816,q),
(865,816,l),
(974,816,o),
(997,822,q),
(1000,571,l),
(952,576,o),
(876,576,q),
(656,576,l)
);
}
);
width = 1359;
}
);
unicode = 163;
},
{
category = Letter;
glyphname = currency;
layers = (
{
layerId = "4de0c4ad-9814-44bf-ac31-cb508b764638";
name = Fore;
shapes = (
{
closed = 1;
nodes = (
(1227,767,o),
(1227,651,q),
(1227,535,o),
(1159,436,q),
(1236,360,l),
(1282,313,o),
(1327,275,q),
(1136,85,l),
(1114,121,o),
(1047,186,q),
(957,276,l),
(866,239,o),
(764,239,q),
(662,239,o),
(577,273,q),
(489,185,l),
(417,113,o),
(400,83,q),
(210,274,l),
(233,293,o),
(256,314,q),
(378,436,l),
(319,528,o),
(319,641.5,q),
(319,755,o),
(376,851,q),
(301,926,l),
(236,993,o),
(200,1015,q),
(390,1206,l),
(428,1161,o),
(475,1115,q),
(567,1022,l),
(666,1065,o),
(776,1065,q),
(886,1065,o),
(970,1030,q),
(1107,1166,o),
(1143,1209,q),
(1334,1019,l),
(1304,1002,o),
(1232,930,q),
(1167,865,l)
);
},
{
closed = 1;
nodes = (
(569,614,o),
(586,581,q),
(603,548,o),
(632,524,q),
(692,475,o),
(779,475,q),
(864,475,o),
(922,523,q),
(983,573,o),
(983,656,q),
(983,727,o),
(926,779,q),
(864,835,o),
(773,835,q),
(683,835,o),
(624,780,q),
(569,728,o),
(569,652,q)
);
}
);
width = 1535;
}
);
unicode = 164;
},
{
category = Letter;
glyphname = yen;
layers = (
{
layerId = "4de0c4ad-9814-44bf-ac31-cb508b764638";
name = Fore;
shapes = (
{
closed = 1;
nodes = (
(675,39,o),
(675,182,q),
(675,370,l),
(324,370,l),
(324,566,l),
(675,566,l),
(675,660,l),
(324,660,l),
(324,856,l),
(541,856,l),
(373,1094,l),
(257,1261,o),
(168,1330,q),
(523,1330,l),
(530,1299,o),
(575,1230,q),
(796,862,l),
(1014,1230,l),
(1059,1311,o),
(1056,1330,q),
(1366,1330,l),
(1344,1318,o),
(1210,1100,q),
(1051,856,l),
(1134,856,l),
(1244,856,o),
(1266,862,q),
(1266,655,l),
(1218,660,o),
(1144,660,q),
(930,660,l),
(930,566,l),
(1132,566,l),
(1242,566,o),
(1264,572,q),
(1264,365,l),
(1216,370,o),
(1134,370,q),
(930,370,l),
(930,158,l),
(930,58,o),
(942,0,q),
(662,0,l)
);
}
);
width = 1535;
}
);
unicode = 165;
},
{
category = Letter;
glyphname = brokenbar;
layers = (
{
layerId = "4de0c4ad-9814-44bf-ac31-cb508b764638";
name = Fore;
shapes = (
{
closed = 1;
nodes = (
(592,877,o),
(596,851,q),
(333,851,l),
(337,915,o),
(337,928,q),
(337,1408,l),
(337,1430,o),
(332,1530,q),
(597,1530,l),
(592,1430,o),
(592,1347,q),
(592,963,l)
);
},
{
closed = 1;
nodes = (
(592,-144,o),
(596,-170,q),
(333,-170,l),
(335,-137,l),
(337,-103,o),
(337,-64,q),
(337,385,l),
(337,407,o),
(332,507,q),
(597,507,l),
(592,407,o),
(592,324,q),
(592,-58,l)
);
}
);
width = 929;
}
);
unicode = 166;
},
{
category = Letter;
glyphname = section;
layers = (
{
layerId = "4de0c4ad-9814-44bf-ac31-cb508b764638";
name = Fore;
shapes = (
{
closed = 1;
nodes = (
(1155,69,o),
(1155,-72,q),
(1155,-258,o),
(992,-362,q),
(847,-456,o),
(646,-456,q),
(483,-456,o),
(328,-386,q),
(283,-365,o),
(253,-341,q),
(242,-35,l),
(245,-33,l),
(292,-112,o),
(420,-170,q),
(546,-227,o),
(675,-227,q),
(770,-227,o),
(820,-202.5,q),
(870,-178,o),
(889,-157,q),
(908,-136,o),
(908,-110,q),
(908,-5,o),
(600,51,q),
(284,108,o),
(182,280,q),
(148,336,o),
(148,400,q),
(148,610,o),
(352,725,q),
(207,841,o),
(207,983,q),
(207,1143,o),
(346,1246,q),
(492,1355,o),
(743,1355,q),
(915,1355,o),
(1048,1293,q),
(1086,1275,o),
(1111,1256,q),
(1073,968,l),
(1068,965,l),
(987,1073,o),
(816,1110,q),
(758,1122,o),
(697.5,1122,q),
(637,1122,o),
(594.5,1112.5,q),
(552,1103,o),
(522,1087,q),
(460,1054,o),
(460,1005,q),
(460,923,o),
(626,869,q),
(678,852,o),
(772,836.5,q),
(866,821,o),
(955,785,q),
(1044,749,o),
(1102,703,q),
(1215,612,o),
(1215,495,q),
(1215,287,o),
(1020,175,q)
);
},
{
closed = 1;
nodes = (
(392,490,o),
(392,462.5,q),
(392,435,o),
(419,410.5,q),
(446,386,o),
(488.5,366,q),
(531,346,o),
(583,331,q),
(635,316,o),
(684,305,q),
(761,288,o),
(838,277,q),
(894,316,l),
(946,352,o),
(959.5,378.5,q),
(973,405,o),
(973,433,q),
(973,461,o),
(936,489,q),
(899,517,o),
(840,540,q),
(736,581,o),
(567,612,q),
(453,583,o),
(407,513,q)
);
}
);
width = 1364;
}
);
unicode = 167;
},
{
category = Letter;
glyphname = dieresis;
layers = (
{
layerId = "4de0c4ad-9814-44bf-ac31-cb508b764638";
name = Fore;
shapes = (
{
closed = 1;
nodes = (
(783,1380,o),
(783,1302.5,q),
(783,1225,o),
(787,1190,q),
(522,1190,l),
(530,1252,o),
(530,1312.5,q),
(530,1373,o),
(524,1430,q),
(787,1430,l)
);
},
{
closed = 1;
nodes = (
(353,1380,o),
(353,1302.5,q),
(353,1225,o),
(357,1190,q),
(92,1190,l),
(100,1252,o),
(100,1312.5,q),
(100,1373,o),
(94,1430,q),
(357,1430,l)
);
}
);
width = 869;
}
);
unicode = 168;
},
{
category = Letter;
glyphname = copyright;
layers = (
{
layerId = "4de0c4ad-9814-44bf-ac31-cb508b764638";
name = Fore;
shapes = (
{
closed = 1;
nodes = (
(173,646,o),
(173,783,q),
(173,920,o),
(204,1015.5,q),
(235,1111,o),
(289,1186,q),
(343,1261,o),
(416.5,1316,q),
(490,1371,o),
(576,1406,q),
(841,1516,o),
(1134,1453,q),
(1326,1412,o),
(1468,1302,q),
(1615,1188,o),
(1674,1011,q),
(1703,922,o),
(1703,819.5,q),
(1703,717,o),
(1675.5,626,q),
(1648,535,o),
(1597.5,457,q),
(1547,379,o),
(1477,315.5,q),
(1407,252,o),
(1322,208,q),
(1145,115,o),
(958.5,115,q),
(772,115,o),
(632,163.5,q),
(492,212,o),
(390,302,q),
(288,392,o),
(230.5,519,q)
);
},
{
closed = 1;
nodes = (
(408,701,o),
(446,618,q),
(484,535,o),
(553,472,q),
(703,335,o),
(933,335,q),
(1181,335,o),
(1328,466,q),
(1468,593,o),
(1468,791,q),
(1468,1005,o),
(1324,1140,q),
(1176,1276,o),
(936,1276,q),
(690,1276,o),
(546,1138,q),
(408,1006,o),
(408,799,q)
);
},
{
closed = 1;
nodes = (
(1122,481,o),
(961,481,q),
(790,481,o),
(684,574,q),
(582,664,o),
(582,800,q),
(582,941,o),
(692,1036,q),
(806,1135,o),
(984,1135,q),
(1102,1135,o),
(1188,1095,q),
(1188,868,l),
(1187,868,l),
(1143,909,o),
(1040,924,q),
(1011,929,o),
(986,929,q),
(896,929,o),
(850.5,895,q),
(805,861,o),
(805,807,q),
(805,753,o),
(857.5,720,q),
(910,687,o),
(998,687,q),
(1083,687,o),
(1160,726,q),
(1183,738,o),
(1196,751,q),
(1198,750,l),
(1198,545,l)
);
}
);
width = 1877;
}
);
unicode = 169;
},
{
category = Letter;
glyphname = ordfeminine;
layers = (
{
layerId = "4de0c4ad-9814-44bf-ac31-cb508b764638";
name = Fore;
shapes = (
{
closed = 1;
nodes = (
(672,577,o),
(543.5,577,q),
(415,577,o),
(337.5,609,q),
(260,641,o),
(212,694,q),
(120,794,o),
(120,957,q),
(120,1128,o),
(232,1240,q),
(347,1355,o),
(536,1355,q),
(643,1355,o),
(736,1297,q),
(736,1361,l),
(991,1361,l),
(991,898,l),
(991,729,o),
(1072,694,q),
(1070,689,l),
(872,560,l),
(820,577,o),
(773,671,q)
);
},
{
closed = 1;
nodes = (
(646,1135,o),
(561.5,1135,q),
(477,1135,o),
(426,1090,q),
(375,1045,o),
(375,969,q),
(375,893,o),
(433,845,q),
(493,796,o),
(576.5,796,q),
(660,796,o),
(736,838,q),
(736,1093,l)
);
}
);
width = 1193;
}
);
unicode = 170;
},
{
category = Letter;
glyphname = guillemotleft;
layers = (
{
layerId = "4de0c4ad-9814-44bf-ac31-cb508b764638";
name = Fore;
shapes = (
{
closed = 1;
nodes = (
(201,498,o),
(201,517,q),
(201,551,o),
(224,595,q),
(425,915,l),
(680,915,l),
(453,527,l),
(686,140,l),
(431,140,l),
(229,449,l)
);
},
{
closed = 1;
nodes = (
(678,498,o),
(678,517,q),
(678,551,o),
(701,595,q),
(902,915,l),
(1157,915,l),
(930,527,l),
(1163,140,l),
(908,140,l),
(706,449,l)
);
}
);
width = 1364;
}
);
unicode = 171;
},
{
category = Letter;
glyphname = logicalnot;
layers = (
{
layerId = "4de0c4ad-9814-44bf-ac31-cb508b764638";
name = Fore;
shapes = (
{
closed = 1;
nodes = (
(310,500,o),
(262,495,q),
(265,742,l),
(288,736,o),
(397,736,q),
(1136,736,l),
(1246,736,o),
(1268,742,q),
(1268,338,l),
(1268,262,o),
(1273,214,q),
(1026,217,l),
(1032,240,o),
(1032,349,q),
(1032,500,l),
(386,500,l)
);
}
);
width = 1535;
}
);
unicode = 172;
},
{
category = Letter;
glyphname = registered;
layers = (
{
layerId = "4de0c4ad-9814-44bf-ac31-cb508b764638";
name = Fore;
shapes = (
{
closed = 1;
nodes = (
(171,646,o),
(171,783,q),
(171,920,o),
(202,1015.5,q),
(233,1111,o),
(287,1186,q),
(341,1261,o),
(414.5,1316,q),
(488,1371,o),
(574,1406,q),
(839,1516,o),
(1132,1453,q),
(1324,1412,o),
(1466,1302,q),
(1613,1188,o),
(1672,1011,q),
(1701,922,o),
(1701,819.5,q),
(1701,717,o),
(1673.5,626,q),
(1646,535,o),
(1595.5,457,q),
(1545,379,o),
(1475,315.5,q),
(1405,252,o),
(1320,208,q),
(1143,115,o),
(956.5,115,q),
(770,115,o),
(630,163.5,q),
(490,212,o),
(388,302,q),
(286,392,o),
(228.5,519,q)
);
},
{
closed = 1;
nodes = (
(406,701,o),
(444,618,q),
(482,535,o),
(551,472,q),
(701,335,o),
(931,335,q),
(1179,335,o),
(1326,466,q),
(1466,593,o),
(1466,791,q),
(1466,1005,o),
(1322,1140,q),
(1174,1276,o),
(934,1276,q),
(688,1276,o),
(544,1138,q),
(406,1006,o),
(406,799,q)
);
},
{
closed = 1;
nodes = (
(954,635,o),
(933,635,q),
(903,635,l),
(894,635,o),
(886,637,q),
(886,495,l),
(661,495,l),
(661,1105,l),
(761,1132,o),
(876,1132,q),
(991,1132,o),
(1060,1112,q),
(1129,1092,o),
(1174,1058,q),
(1261,991,o),
(1261,889,q),
(1261,787,o),
(1179,718,q),
(1233,614,l),
(1241,599,o),
(1252,580,q),
(1300,500,o),
(1308,494,q),
(1306,492,l),
(1283,495,o),
(1267,495,q),
(1224,495,l),
(1116,495,o),
(1060,491,q),
(986,639,l)
);
},
{
closed = 1;
nodes = (
(1045,804,o),
(1045,893,q),
(1045,926,o),
(1009.5,946,q),
(974,966,o),
(938,966,q),
(896,966,l),
(891,966,o),
(886,965,q),
(886,806,l),
(899,804,o),
(910,804,q),
(932,804,l)
);
}
);
width = 1872;
}
);
unicode = 174;
},
{
category = Letter;
glyphname = macron;
layers = (
{
layerId = "4de0c4ad-9814-44bf-ac31-cb508b764638";
name = Fore;
shapes = (
{
closed = 1;
nodes = (
(798,1473,o),
(798,1447,q),
(798,1413,l),
(798,1405,o),
(802,1353,q),
(127,1353,l),
(130,1379,l),
(135,1412,o),
(135,1439,q),
(135,1466,o),
(129,1523,q),
(802,1523,l)
);
}
);
width = 929;
}
);
unicode = 175;
},
{
category = Letter;
glyphname = degree;
layers = (
{
layerId = "4de0c4ad-9814-44bf-ac31-cb508b764638";
name = Fore;
shapes = (
{
closed = 1;
nodes = (
(426,732,o),
(362,758,q),
(298,784,o),
(252,830,q),
(153,926,o),
(153,1073,q),
(153,1219,o),
(249,1319,q),
(352,1426,o),
(522,1426,q),
(673,1426,o),
(775,1318,q),
(872,1216,o),
(872,1080,q),
(872,930,o),
(769,832,q),
(663,732,o),
(505,732,q)
);
},
{
closed = 1;
nodes = (
(482,925,o),
(517.5,925,q),
(553,925,o),
(581,936.5,q),
(609,948,o),
(630,969,q),
(673,1014,o),
(673,1083,q),
(673,1188,o),
(582,1226,q),
(552,1239,o),
(514.5,1239,q),
(477,1239,o),
(448,1226,q),
(419,1213,o),
(398,1192,q),
(356,1147,o),
(356,1097,q),
(356,1047,o),
(367.5,1018.5,q),
(379,990,o),
(400,969,q),
(421,948,o),
(451.5,936.5,q)
);
}
);
width = 1026;
}
);
unicode = 176;
},
{
category = Letter;
glyphname = plusminus;
layers = (
{
layerId = "4de0c4ad-9814-44bf-ac31-cb508b764638";
name = Fore;
shapes = (
{
closed = 1;
nodes = (
(800,502,o),
(805,454,q),
(558,457,l),
(564,480,o),
(564,589,q),
(564,800,l),
(351,800,l),
(275,800,o),
(227,795,q),
(230,1042,l),
(252,1036,o),
(362,1036,q),
(564,1036,l),
(564,1228,l),
(564,1338,o),
(558,1360,q),
(805,1363,l),
(800,1315,o),
(800,1239,q),
(800,1036,l),
(1001,1036,l),
(1110,1036,o),
(1133,1042,q),
(1136,795,l),
(1088,800,o),
(1012,800,q),
(800,800,l),
(800,578,l)
);
},
{
closed = 1;
nodes = (
(275,100,o),
(227,95,q),
(230,322,l),
(252,316,o),
(362,316,q),
(1001,316,l),
(1110,316,o),
(1133,322,q),
(1136,95,l),
(1088,100,o),
(1012,100,q),
(351,100,l)
);
}
);
width = 1364;
}
);
unicode = 177;
},
{
category = Letter;
glyphname = twosuperior;
layers = (
{
layerId = "4de0c4ad-9814-44bf-ac31-cb508b764638";
name = Fore;
shapes = (
{
closed = 1;
nodes = (
(518,612,o),
(405,612,q),
(217,612,o),
(99,604,q),
(190,749,l),
(374,1043,o),
(374,1118,q),
(374,1147,o),
(357,1170,q),
(340,1193,o),
(320,1193,q),
(300,1193,o),
(278.5,1189.5,q),
(257,1186,o),
(236,1178,q),
(188,1162,o),
(159,1137,q),
(152,1136,l),
(157,1365,l),
(215,1405,o),
(365,1405,q),
(482,1405,o),
(562,1348,q),
(644,1290,o),
(644,1190,q),
(644,1051,o),
(504,812,q),
(660,812,l),
(729,812,o),
(751,829,q),
(756,827,l),
(657,603,l)
);
}
);
width = 855;
}
);
unicode = 178;
},
{
category = Letter;
glyphname = threesuperior;
layers = (
{
layerId = "4de0c4ad-9814-44bf-ac31-cb508b764638";
name = Fore;
shapes = (
{
closed = 1;
nodes = (
(654,1022,o),
(691,967.5,q),
(728,913,o),
(728,852,q),
(728,791,o),
(704.5,744.5,q),
(681,698,o),
(637,666,q),
(546,598,o),
(390,598,q),
(211,598,o),
(114,671,q),
(112,870,l),
(117,876,l),
(167,826,o),
(305,804,q),
(345,797,o),
(383,797,q),
(497,797,o),
(497,860,q),
(497,885,o),
(477,900,q),
(440,929,o),
(405.5,929,q),
(371,929,o),
(355,927,q),
(339,925,o),
(326,923,q),
(298,919,o),
(295,916,q),
(292,921,l),
(297,1076,l),
(327,1091,o),
(388,1091,q),
(389,1091,l),
(441,1111,o),
(441,1146,q),
(441,1212,o),
(347.5,1212,q),
(254,1212,o),
(183,1170,q),
(181,1173,l),
(174,1363,l),
(252,1415,o),
(408,1415,q),
(531,1415,o),
(608,1364,q),
(684,1312,o),
(684,1216,q),
(684,1120,o),
(593,1054,q)
);
}
);
width = 855;
}
);
unicode = 179;
},
{
category = Letter;
glyphname = acute;
layers = (
{
layerId = "4de0c4ad-9814-44bf-ac31-cb508b764638";
name = Fore;
shapes = (
{
closed = 1;
nodes = (
(562,1503,o),
(732,1520,q),
(731,1513,l),
(469,1190,l),
(243,1190,l),
(412,1503,l)
);
}
);
width = 855;
}
);
unicode = 180;
},
{
category = Letter;
glyphname = mu;
layers = (
{
layerId = "4de0c4ad-9814-44bf-ac31-cb508b764638";
name = Fore;
shapes = (
{
closed = 1;
nodes = (
(243,-323,o),
(243,-45,q),
(243,820,l),
(243,962,o),
(230,1049,q),
(276,1045,o),
(322,1045,q),
(401,1045,l),
(434,1045,o),
(488,1048,q),
(488,302,l),
(554,220,o),
(685,220,q),
(771,220,o),
(834,281,q),
(834,1045,l),
(1079,1045,l),
(1079,374,l),
(1079,220,o),
(1185,220,q),
(1238,220,o),
(1266,252,q),
(1274,252,l),
(1217,4,l),
(1184,-15,o),
(1111,-15,q),
(974,-15,o),
(896,85,q),
(771,-15,o),
(633,-15,q),
(547,-15,o),
(465,26,q),
(471,-212,o),
(557,-271,q),
(557,-276,l),
(356,-407,l)
);
}
);
width = 1364;
}
);
unicode = (181,956);
},
{
category = Letter;
glyphname = paragraph;
layers = (
{
layerId = "4de0c4ad-9814-44bf-ac31-cb508b764638";
name = Fore;
shapes = (
{
closed = 1;
nodes = (
(479,0,o),
(397,0,q),
(315,0,o),
(251,28,q),
(251,267,l),
(258,269,l),
(312,239,o),
(355.5,239,q),
(399,239,o),
(416,245,q),
(433,251,o),
(444,266,q),
(467,295,o),
(467,369,q),
(467,563,l),
(299,569,o),
(202,687,q),
(116,791,o),
(116,944,q),
(116,1223,o),
(402,1304,q),
(496,1330,o),
(621,1330,q),
(1190,1330,l),
(1182,1248,o),
(1182,1091,q),
(1182,112,l),
(1182,26,o),
(1186,0,q),
(937,0,l),
(937,1092,l),
(889,1095,o),
(854,1095,q),
(787,1095,l),
(755,1095,o),
(722,1094,q),
(722,467,l),
(722,93,o),
(538,22,q)
);
}
);
width = 1364;
}
);
unicode = 182;
},
{
category = Letter;
glyphname = periodcentered;
layers = (
{
layerId = "4de0c4ad-9814-44bf-ac31-cb508b764638";
name = Fore;
shapes = (
{
closed = 1;
nodes = (
(118,661,o),
(118,708,q),
(118,755,o),
(117.5,772.5,q),
(117,790,o),
(116,807,q),
(115,824,o),
(114,839,q),
(111,864,l),
(401,864,l),
(398,826,o),
(398,802,q),
(396,760,l),
(396,741,o),
(396,688.5,q),
(396,636,o),
(401,600,q),
(109,600,l)
);
}
);
width = 510;
}
);
unicode = 183;
},
{
category = Letter;
glyphname = cedilla;
layers = (
{
layerId = "4de0c4ad-9814-44bf-ac31-cb508b764638";
name = Fore;
shapes = (
{
closed = 1;
nodes = (
(449,40,o),
(456,-11,q),
(465,-67,o),
(465,-151,q),
(465,-235,o),
(442.5,-290,q),
(420,-345,o),
(391,-362,q),
(332,-400,o),
(176,-432,q),
(170,-426,l),
(240,-327,o),
(240,0,q),
(449,40,l)
);
}
);
width = 673;
}
);
unicode = 184;
},
{
category = Letter;
glyphname = onesuperior;
layers = (
{
layerId = "4de0c4ad-9814-44bf-ac31-cb508b764638";
name = Fore;
shapes = (
{
closed = 1;
nodes = (
(464,1390,l),
(464,600,l),
(219,600,l),
(219,1390,l)
);
}
);
width = 684;
}
);
unicode = 185;
},
{
category = Letter;
glyphname = ordmasculine;
layers = (
{
layerId = "4de0c4ad-9814-44bf-ac31-cb508b764638";
name = Fore;
shapes = (
{
closed = 1;
nodes = (
(482,577,o),
(400.5,611,q),
(319,645,o),
(266,699,q),
(160,805,o),
(160,957,q),
(160,1126,o),
(285,1240,q),
(411,1355,o),
(601,1355,q),
(786,1355,o),
(908,1248,q),
(1032,1139,o),
(1032,972,q),
(1032,809,o),
(905,694,q),
(777,577,o),
(584,577,q)
);
},
{
closed = 1;
nodes = (
(560,793,o),
(601.5,793,q),
(643,793,o),
(676.5,806,q),
(710,819,o),
(734,842,q),
(788,891,o),
(788,959,q),
(788,1034,o),
(730,1084,q),
(674,1135,o),
(608,1135,q),
(542,1135,o),
(506.5,1119,q),
(471,1103,o),
(447,1078,q),
(400,1029,o),
(400,978,q),
(400,927,o),
(415.5,896,q),
(431,865,o),
(458,842,q),
(485,819,o),
(522.5,806,q)
);
}
);
width = 1193;
}
);
unicode = 186;
},
{
category = Letter;
glyphname = guillemotright;
layers = (
{
layerId = "4de0c4ad-9814-44bf-ac31-cb508b764638";
name = Fore;
shapes = (
{
closed = 1;
nodes = (
(686,498,o),
(686,517,q),
(686,551,o),
(663,595,q),
(462,915,l),
(207,915,l),
(434,527,l),
(201,140,l),
(456,140,l),
(658,449,l)
);
},
{
closed = 1;
nodes = (
(1163,498,o),
(1163,517,q),
(1163,551,o),
(1140,595,q),
(939,915,l),
(684,915,l),
(911,527,l),
(678,140,l),
(933,140,l),
(1135,449,l)
);
}
);
width = 1364;
}
);
unicode = 187;
},
{
category = Letter;
glyphname = onequarter;
layers = (
{
layerId = "4de0c4ad-9814-44bf-ac31-cb508b764638";
name = Fore;
shapes = (
{
closed = 1;
nodes = (
(495,1390,l),
(495,600,l),
(250,600,l),
(250,1390,l)
);
},
{
closed = 1;
nodes = (
(1347,1330,l),
(597,0,l),
(352,0,l),
(1102,1330,l)
);
},
{
closed = 1;
nodes = (
(1730,363,o),
(1784,377,q),
(1787,374,l),
(1725,143,l),
(1615,143,l),
(1615,0,l),
(1370,0,l),
(1370,143,l),
(984,143,l),
(964,187,l),
(1275,770,l),
(1615,769,l),
(1615,363,l),
(1636,363,l)
);
},
{
closed = 1;
nodes = (
(1370,600,l),
(1274,363,l),
(1370,363,l)
);
}
);
width = 2038;
}
);
unicode = 188;
},
{
category = Letter;
glyphname = onehalf;
layers = (
{
layerId = "4de0c4ad-9814-44bf-ac31-cb508b764638";
name = Fore;
shapes = (
{
closed = 1;
nodes = (
(522,1390,l),
(522,600,l),
(277,600,l),
(277,1390,l)
);
},
{
closed = 1;
nodes = (
(1350,1330,l),
(600,0,l),
(355,0,l),
(1105,1330,l)
);
},
{
closed = 1;
nodes = (
(1373,11,o),
(1108,-7,q),
(1199,138,l),
(1383,432,o),
(1383,507,q),
(1383,536,o),
(1366,559,q),
(1349,582,o),
(1329,582,q),
(1309,582,o),
(1287.5,578.5,q),
(1266,575,o),
(1244,568,q),
(1197,551,o),
(1168,526,q),
(1161,525,l),
(1166,754,l),
(1224,794,o),
(1374,794,q),
(1491,794,o),
(1570,738,q),
(1653,679,o),
(1653,579,q),
(1653,440,o),
(1513,201,q),
(1669,201,l),
(1738,201,o),
(1760,218,q),
(1765,216,l),
(1666,-8,l)
);
}
);
width = 2043;
}
);
unicode = 189;
},
{
category = Letter;
glyphname = threequarters;
layers = (
{
layerId = "4de0c4ad-9814-44bf-ac31-cb508b764638";
name = Fore;
shapes = (
{
closed = 1;
nodes = (
(1559,1330,l),
(809,0,l),
(564,0,l),
(1314,1330,l)
);
},
{
closed = 1;
nodes = (
(1940,363,o),
(1994,377,q),
(1997,374,l),
(1935,143,l),
(1825,143,l),
(1825,0,l),
(1580,0,l),
(1580,143,l),
(1194,143,l),
(1174,187,l),
(1485,770,l),
(1825,769,l),
(1825,363,l),
(1846,363,l)
);
},
{
closed = 1;
nodes = (
(1580,600,l),
(1484,363,l),
(1580,363,l)
);
},
{
closed = 1;
nodes = (
(758,1022,o),
(795,967.5,q),
(832,913,o),
(832,852,q),
(832,791,o),
(808.5,744.5,q),
(785,698,o),
(741,666,q),
(650,598,o),
(494,598,q),
(315,598,o),
(218,671,q),
(216,870,l),
(221,876,l),
(271,826,o),
(409,804,q),
(449,797,o),
(487,797,q),
(601,797,o),
(601,860,q),
(601,885,o),
(581,900,q),
(544,929,o),
(509.5,929,q),
(475,929,o),
(459,927,q),
(443,925,o),
(430,923,q),
(402,919,o),
(399,916,q),
(396,921,l),
(401,1076,l),
(431,1091,o),
(492,1091,q),
(493,1091,l),
(545,1111,o),
(545,1146,q),
(545,1212,o),
(451.5,1212,q),
(358,1212,o),
(287,1170,q),
(285,1173,l),
(278,1363,l),
(356,1415,o),
(512,1415,q),
(635,1415,o),
(712,1364,q),
(788,1312,o),
(788,1216,q),
(788,1120,o),
(697,1054,q)
);
}
);
width = 2214;
}
);
unicode = 190;
},
{
category = Letter;
glyphname = questiondown;
layers = (
{
layerId = "4de0c4ad-9814-44bf-ac31-cb508b764638";
name = Fore;
shapes = (
{
closed = 1;
nodes = (
(447,942,o),
(548,990,q),
(673,942,o),
(673,812,q),
(673,756,o),
(644,709,q),
(586,619,o),
(475,526,q),
(394,458,o),
(372,426,q),
(339,378,o),
(339,337,q),
(339,296,o),
(356,267.5,q),
(373,239,o),
(403,219,q),
(464,178,o),
(557,178,q),
(679,178,o),
(776,261,q),
(809,289,o),
(830,329,q),
(837,331,l),
(834,287,o),
(846,242,q),
(888,92,l),
(746,-42,o),
(521,-42,q),
(330,-42,o),
(202,67,q),
(82,171,o),
(82,316,q),
(82,388,o),
(112,440,q),
(161,526,o),
(240,595.5,q),
(319,665,o),
(349,696,q),
(379,727,o),
(394,748,q),
(417,780,o),
(417,809,q),
(417,838,o),
(399.5,855.5,q),
(382,873,o),
(360,877,q)
);
},
{
closed = 1;
nodes = (
(386,1143,o),
(386,1220.5,q),
(386,1298,o),
(382,1333,q),
(647,1333,l),
(639,1271,o),
(639,1210.5,q),
(639,1150,o),
(645,1093,q),
(382,1093,l)
);
}
);
width = 1026;
}
);
unicode = 191;
},
{
category = Letter;
glyphname = Agrave;
layers = (
{
layerId = "4de0c4ad-9814-44bf-ac31-cb508b764638";
name = Fore;
shapes = (
{
closed = 1;
nodes = (
(183,0,o),
(68,0,q),
(-11,0,l),
(424,1219,l),
(453,1301,o),
(453,1314.5,q),
(453,1328,o),
(452,1331,q),
(453,1333,l),
(518,1330,o),
(591,1330,q),
(651,1330,o),
(735,1332,q),
(736,1330,l),
(734,1326,o),
(734,1319,q),
(734,1300,o),
(764,1218,q),
(1208,-3,l),
(1188,-2,o),
(1161,-2,q),
(1161,-2,o),
(1109,0,q),
(1084,0,o),
(1064,0,q),
(909,0,l),
(815,288,l),
(363,288,l),
(269,-8,l)
);
},
{
closed = 1;
nodes = (
(586,993,l),
(439,528,l),
(737,528,l)
);
},
{
closed = 1;
nodes = (
(524,1788,o),
(674,1788,q),
(843,1475,l),
(617,1475,l),
(355,1798,l),
(354,1805,l)
);
}
);
width = 1197;
}
);
unicode = 192;
},
{
category = Letter;
glyphname = Aacute;
layers = (
{
layerId = "4de0c4ad-9814-44bf-ac31-cb508b764638";
name = Fore;
shapes = (
{
closed = 1;
nodes = (
(183,0,o),
(68,0,q),
(-11,0,l),
(424,1219,l),
(453,1301,o),
(453,1314.5,q),
(453,1328,o),
(452,1331,q),
(453,1333,l),
(518,1330,o),
(591,1330,q),
(651,1330,o),
(735,1332,q),
(736,1330,l),
(734,1326,o),
(734,1319,q),
(734,1300,o),
(764,1218,q),
(1208,-3,l),
(1188,-2,o),
(1161,-2,q),
(1161,-2,o),
(1109,0,q),
(1084,0,o),
(1064,0,q),
(909,0,l),
(815,288,l),
(363,288,l),
(269,-8,l)
);
},
{
closed = 1;
nodes = (
(586,993,l),
(439,528,l),
(737,528,l)
);
},
{
closed = 1;
nodes = (
(673,1788,o),
(843,1805,q),
(842,1798,l),
(580,1475,l),
(354,1475,l),
(523,1788,l)
);
}
);
width = 1197;
}
);
unicode = 193;
},
{
category = Letter;
glyphname = Acircumflex;
layers = (
{
layerId = "4de0c4ad-9814-44bf-ac31-cb508b764638";
name = Fore;
shapes = (
{
closed = 1;
nodes = (
(183,0,o),
(68,0,q),
(-11,0,l),
(424,1219,l),
(453,1301,o),
(453,1314.5,q),
(453,1328,o),
(452,1331,q),
(453,1333,l),
(518,1330,o),
(591,1330,q),
(651,1330,o),
(735,1332,q),
(736,1330,l),
(734,1326,o),
(734,1319,q),
(734,1300,o),
(764,1218,q),
(1208,-3,l),
(1188,-2,o),
(1161,-2,q),
(1161,-2,o),
(1109,0,q),
(1084,0,o),
(1064,0,q),
(909,0,l),
(815,288,l),
(363,288,l),
(269,-8,l)
);
},
{
closed = 1;
nodes = (
(586,993,l),
(439,528,l),
(737,528,l)
);
},
{
closed = 1;
nodes = (
(282,1473,o),
(234,1470,q),
(231,1473,l),
(473,1804,l),
(497,1801,o),
(539,1801,q),
(590,1801,l),
(711,1804,l),
(966,1473,l),
(962,1470,l),
(707,1473,l),
(594,1650,l),
(497,1473,l)
);
}
);
width = 1197;
}
);
unicode = 194;
},
{
category = Letter;
glyphname = Atilde;
layers = (
{
layerId = "4de0c4ad-9814-44bf-ac31-cb508b764638";
name = Fore;
shapes = (
{
closed = 1;
nodes = (
(183,0,o),
(68,0,q),
(-11,0,l),
(424,1219,l),
(453,1301,o),
(453,1314.5,q),
(453,1328,o),
(452,1331,q),
(453,1333,l),
(518,1330,o),
(591,1330,q),
(651,1330,o),
(735,1332,q),
(736,1330,l),
(734,1326,o),
(734,1319,q),
(734,1300,o),
(764,1218,q),
(1208,-3,l),
(1188,-2,o),
(1161,-2,q),
(1161,-2,o),
(1109,0,q),
(1084,0,o),
(1064,0,q),
(909,0,l),
(815,288,l),
(363,288,l),
(269,-8,l)
);
},
{
closed = 1;
nodes = (
(586,993,l),
(439,528,l),
(737,528,l)
);
},
{
closed = 1;
nodes = (
(341,1565,o),
(268,1490,q),
(264,1491,l),
(260,1690,l),
(328,1770,o),
(445,1770,q),
(537,1770,o),
(616,1715.5,q),
(695,1661,o),
(779,1661,q),
(898,1661,o),
(935,1745,q),
(937,1743,l),
(927,1527,l),
(910,1497,o),
(866,1477.5,q),
(822,1458,o),
(774,1458,q),
(726,1458,o),
(696.5,1466,q),
(667,1474,o),
(642,1486,q),
(617,1498,o),
(595.5,1511.5,q),
(574,1525,o),
(550,1537,q),
(494,1565,o),
(435,1565,q)
);
}
);
width = 1197;
}
);
unicode = 195;
},
{
category = Letter;
glyphname = Adieresis;
layers = (
{
layerId = "4de0c4ad-9814-44bf-ac31-cb508b764638";
name = Fore;
shapes = (
{
closed = 1;
nodes = (
(183,0,o),
(68,0,q),
(-11,0,l),
(424,1219,l),
(453,1301,o),
(453,1314.5,q),
(453,1328,o),
(452,1331,q),
(453,1333,l),
(518,1330,o),
(591,1330,q),
(651,1330,o),
(735,1332,q),
(736,1330,l),
(734,1326,o),
(734,1319,q),
(734,1300,o),
(764,1218,q),
(1208,-3,l),
(1188,-2,o),
(1161,-2,q),
(1161,-2,o),
(1109,0,q),
(1084,0,o),
(1064,0,q),
(909,0,l),
(815,288,l),
(363,288,l),
(269,-8,l)
);
},
{
closed = 1;
nodes = (
(586,993,l),
(439,528,l),
(737,528,l)
);
},
{
closed = 1;
nodes = (
(942,1665,o),
(942,1587.5,q),
(942,1510,o),
(946,1475,q),
(681,1475,l),
(689,1537,o),
(689,1597.5,q),
(689,1658,o),
(683,1715,q),
(946,1715,l)
);
},
{
closed = 1;
nodes = (
(512,1665,o),
(512,1587.5,q),
(512,1510,o),
(516,1475,q),
(251,1475,l),
(259,1537,o),
(259,1597.5,q),
(259,1658,o),
(253,1715,q),
(516,1715,l)
);
}
);
width = 1197;
}
);
unicode = 196;
},
{
category = Letter;
glyphname = Aring;
layers = (
{
layerId = "4de0c4ad-9814-44bf-ac31-cb508b764638";
name = Fore;
shapes = (
{
closed = 1;
nodes = (
(183,0,o),
(68,0,q),
(-11,0,l),
(424,1219,l),
(453,1301,o),
(453,1314.5,q),
(453,1328,o),
(452,1331,q),
(453,1333,l),
(518,1330,o),
(591,1330,q),
(651,1330,o),
(735,1332,q),
(736,1330,l),
(734,1326,o),
(734,1319,q),
(734,1300,o),
(764,1218,q),
(1208,-3,l),
(1188,-2,o),
(1161,-2,q),
(1161,-2,o),
(1109,0,q),
(1084,0,o),
(1064,0,q),
(909,0,l),
(815,288,l),
(363,288,l),
(269,-8,l)
);
},
{
closed = 1;
nodes = (
(586,993,l),
(439,528,l),
(737,528,l)
);
},
{
closed = 1;
nodes = (
(531,1367,o),
(481,1383,q),
(431,1399,o),
(395,1429,q),
(319,1492,o),
(319,1601,q),
(319,1708,o),
(394,1774,q),
(470,1843,o),
(606,1843,q),
(726,1843,o),
(802,1774,q),
(877,1707,o),
(877,1606,q),
(877,1496,o),
(797,1431,q),
(719,1367,o),
(592,1367,q)
);
},
{
closed = 1;
nodes = (
(569,1508,o),
(595.5,1508,q),
(622,1508,o),
(643,1515.5,q),
(664,1523,o),
(680,1536,q),
(715,1566,o),
(715,1595.5,q),
(715,1625,o),
(707.5,1642.5,q),
(700,1660,o),
(685,1674,q),
(651,1707,o),
(607.5,1707,q),
(564,1707,o),
(542,1698,q),
(520,1689,o),
(506,1674,q),
(478,1647,o),
(478,1617,q),
(478,1587,o),
(485.5,1569,q),
(493,1551,o),
(508,1537.5,q),
(523,1524,o),
(546,1516,q)
);
}
);
width = 1197;
}
);
unicode = 197;
},
{
category = Letter;
glyphname = AE;
layers = (
{
layerId = "4de0c4ad-9814-44bf-ac31-cb508b764638";
name = Fore;
shapes = (
{
closed = 1;
nodes = (
(171,0,o),
(64,0,q),
(-15,0,l),
(687,1219,l),
(720,1274,l),
(737,1300,o),
(737,1312.5,q),
(737,1325,o),
(735,1331,q),
(736,1333,l),
(800,1330,o),
(874,1330,q),
(1083,1330,l),
(1144,1330,o),
(1202,1330,q),
(1321,1332,l),
(1452,1333,o),
(1588,1338,q),
(1577,1250,o),
(1577,1103,q),
(1577,1087,o),
(1579,1079,q),
(1577,1076,l),
(1524,1091,o),
(1429,1091,q),
(1098,1091,l),
(1098,836,l),
(1360,836,l),
(1470,836,o),
(1492,842,q),
(1495,595,l),
(1447,600,o),
(1371,600,q),
(1098,600,l),
(1098,240,l),
(1522,240,l),
(1584,240,o),
(1608,252,q),
(1612,251,l),
(1602,0,l),
(843,0,l),
(845,288,l),
(438,288,l),
(279,-8,l)
);
},
{
closed = 1;
nodes = (
(851,1057,l),
(567,528,l),
(847,528,l)
);
}
);
width = 1706;
}
);
unicode = 198;
},
{
category = Letter;
glyphname = Ccedilla;
layers = (
{
layerId = "4de0c4ad-9814-44bf-ac31-cb508b764638";
name = Fore;
shapes = (
{
closed = 1;
nodes = (
(797,-76,o),
(797,-155.5,q),
(797,-235,o),
(774.5,-290,q),
(752,-345,o),
(723,-362,q),
(664,-400,o),
(508,-432,q),
(502,-426,l),
(551,-356,o),
(568,-128,q),
(572,-67,o),
(572,-16,q),
(325,21,o),
(185,208,q),
(52,387,o),
(52,659,q),
(52,982,o),
(234,1168,q),
(418,1355,o),
(749,1355,q),
(955,1355,o),
(1087,1290,q),
(1087,984,l),
(1085,982,l),
(1029,1068,o),
(849,1096,q),
(796,1105,o),
(715,1105,q),
(634,1105,o),
(556,1074.5,q),
(478,1044,o),
(428,988,q),
(331,879,o),
(331,677,q),
(331,442,o),
(454,327,q),
(556,231,o),
(724,231,q),
(914,231,o),
(1032,312,q),
(1075,341,o),
(1105,384,q),
(1108,382,l),
(1108,102,l),
(986,0,o),
(790,-20,q)
);
}
);
width = 1188;
}
);
unicode = 199;
},
{
category = Letter;
glyphname = Egrave;
layers = (
{
layerId = "4de0c4ad-9814-44bf-ac31-cb508b764638";
name = Fore;
shapes = (
{
closed = 1;
nodes = (
(903,240,o),
(927,252,q),
(931,251,l),
(921,0,l),
(172,0,l),
(172,1337,l),
(199,1335,o),
(232,1334,q),
(302,1332,l),
(372,1330,o),
(454,1330,q),
(683,1330,o),
(907,1338,q),
(896,1250,o),
(896,1103,q),
(896,1087,o),
(898,1079,q),
(896,1076,l),
(844,1091,o),
(748,1091,q),
(433,1091,l),
(433,836,l),
(670,836,l),
(780,836,o),
(802,842,q),
(805,595,l),
(757,600,o),
(681,600,q),
(433,600,l),
(433,240,l),
(841,240,l)
);
},
{
closed = 1;
nodes = (
(462,1788,o),
(612,1788,q),
(781,1475,l),
(555,1475,l),
(293,1798,l),
(292,1805,l)
);
}
);
width = 1026;
}
);
unicode = 200;
},
{
category = Letter;
glyphname = Eacute;
layers = (
{
layerId = "4de0c4ad-9814-44bf-ac31-cb508b764638";
name = Fore;
shapes = (
{
closed = 1;
nodes = (
(903,240,o),
(927,252,q),
(931,251,l),
(921,0,l),
(172,0,l),
(172,1337,l),
(199,1335,o),
(232,1334,q),
(302,1332,l),
(372,1330,o),
(454,1330,q),
(683,1330,o),
(907,1338,q),
(896,1250,o),
(896,1103,q),
(896,1087,o),
(898,1079,q),
(896,1076,l),
(844,1091,o),
(748,1091,q),
(433,1091,l),
(433,836,l),
(670,836,l),
(780,836,o),
(802,842,q),
(805,595,l),
(757,600,o),
(681,600,q),
(433,600,l),
(433,240,l),
(841,240,l)
);
},
{
closed = 1;
nodes = (
(611,1788,o),
(781,1805,q),
(780,1798,l),
(518,1475,l),
(292,1475,l),
(461,1788,l)
);
}
);
width = 1026;
}
);
unicode = 201;
},
{
category = Letter;
glyphname = Ecircumflex;
layers = (
{
layerId = "4de0c4ad-9814-44bf-ac31-cb508b764638";
name = Fore;
shapes = (
{
closed = 1;
nodes = (
(903,240,o),
(927,252,q),
(931,251,l),
(921,0,l),
(172,0,l),
(172,1337,l),
(199,1335,o),
(232,1334,q),
(302,1332,l),
(372,1330,o),
(454,1330,q),
(683,1330,o),
(907,1338,q),
(896,1250,o),
(896,1103,q),
(896,1087,o),
(898,1079,q),
(896,1076,l),
(844,1091,o),
(748,1091,q),
(433,1091,l),
(433,836,l),
(670,836,l),
(780,836,o),
(802,842,q),
(805,595,l),
(757,600,o),
(681,600,q),
(433,600,l),
(433,240,l),
(841,240,l)
);
},
{
closed = 1;
nodes = (
(220,1473,o),
(172,1470,q),
(169,1473,l),
(411,1804,l),
(435,1801,o),
(477,1801,q),
(528,1801,l),
(649,1804,l),
(904,1473,l),
(900,1470,l),
(645,1473,l),
(532,1650,l),
(435,1473,l)
);
}
);
width = 1026;
}
);
unicode = 202;
},
{
category = Letter;
glyphname = Edieresis;
layers = (
{
layerId = "4de0c4ad-9814-44bf-ac31-cb508b764638";
name = Fore;
shapes = (
{
closed = 1;
nodes = (
(903,240,o),
(927,252,q),
(931,251,l),
(921,0,l),
(172,0,l),
(172,1337,l),
(199,1335,o),
(232,1334,q),
(302,1332,l),
(372,1330,o),
(454,1330,q),
(683,1330,o),
(907,1338,q),
(896,1250,o),
(896,1103,q),
(896,1087,o),
(898,1079,q),
(896,1076,l),
(844,1091,o),
(748,1091,q),
(433,1091,l),
(433,836,l),
(670,836,l),
(780,836,o),
(802,842,q),
(805,595,l),
(757,600,o),
(681,600,q),
(433,600,l),
(433,240,l),
(841,240,l)
);
},
{
closed = 1;
nodes = (
(880,1665,o),
(880,1587.5,q),
(880,1510,o),
(884,1475,q),
(619,1475,l),
(627,1537,o),
(627,1597.5,q),
(627,1658,o),
(621,1715,q),
(884,1715,l)
);
},
{
closed = 1;
nodes = (
(450,1665,o),
(450,1587.5,q),
(450,1510,o),
(454,1475,q),
(189,1475,l),
(197,1537,o),
(197,1597.5,q),
(197,1658,o),
(191,1715,q),
(454,1715,l)
);
}
);
width = 1026;
}
);
unicode = 203;
},
{
category = Letter;
glyphname = Igrave;
layers = (
{
layerId = "4de0c4ad-9814-44bf-ac31-cb508b764638";
name = Fore;
shapes = (
{
closed = 1;
nodes = (
(303,1330,o),
(324,1330,q),
(396,1330,l),
(449,1330,o),
(481,1338,q),
(480,0,l),
(203,0,l),
(203,1334,l)
);
},
{
closed = 1;
nodes = (
(256,1788,o),
(406,1788,q),
(575,1475,l),
(349,1475,l),
(87,1798,l),
(86,1805,l)
);
}
);
width = 684;
}
);
unicode = 204;
},
{
category = Letter;
glyphname = Iacute;
layers = (
{
layerId = "4de0c4ad-9814-44bf-ac31-cb508b764638";
name = Fore;
shapes = (
{
closed = 1;
nodes = (
(303,1330,o),
(324,1330,q),
(396,1330,l),
(449,1330,o),
(481,1338,q),
(480,0,l),
(203,0,l),
(203,1334,l)
);
},
{
closed = 1;
nodes = (
(405,1788,o),
(575,1805,q),
(574,1798,l),
(312,1475,l),
(86,1475,l),
(255,1788,l)
);
}
);
width = 684;
}
);
unicode = 205;
},
{
category = Letter;
glyphname = Icircumflex;
layers = (
{
layerId = "4de0c4ad-9814-44bf-ac31-cb508b764638";
name = Fore;
shapes = (
{
closed = 1;
nodes = (
(303,1330,o),
(324,1330,q),
(396,1330,l),
(449,1330,o),
(481,1338,q),
(480,0,l),
(203,0,l),
(203,1334,l)
);
},
{
closed = 1;
nodes = (
(14,1473,o),
(-34,1470,q),
(-37,1473,l),
(205,1804,l),
(229,1801,o),
(271,1801,q),
(322,1801,l),
(443,1804,l),
(698,1473,l),
(694,1470,l),
(439,1473,l),
(326,1650,l),
(229,1473,l)
);
}
);
width = 684;
}
);
unicode = 206;
},
{
category = Letter;
glyphname = Idieresis;
layers = (
{
layerId = "4de0c4ad-9814-44bf-ac31-cb508b764638";
name = Fore;
shapes = (
{
closed = 1;
nodes = (
(303,1330,o),
(324,1330,q),
(396,1330,l),
(449,1330,o),
(481,1338,q),
(480,0,l),
(203,0,l),
(203,1334,l)
);
},
{
closed = 1;
nodes = (
(674,1665,o),
(674,1587.5,q),
(674,1510,o),
(678,1475,q),
(413,1475,l),
(421,1537,o),
(421,1597.5,q),
(421,1658,o),
(415,1715,q),
(678,1715,l)
);
},
{
closed = 1;
nodes = (
(244,1665,o),
(244,1587.5,q),
(244,1510,o),
(248,1475,q),
(-17,1475,l),
(-9,1537,o),
(-9,1597.5,q),
(-9,1658,o),
(-15,1715,q),
(248,1715,l)
);
}
);
width = 684;
}
);
unicode = 207;
},
{
category = Letter;
glyphname = Eth;
layers = (
{
layerId = "4de0c4ad-9814-44bf-ac31-cb508b764638";
name = Fore;
shapes = (
{
closed = 1;
nodes = (
(334,-25,o),
(191,1,q),
(191,548,l),
(92,548,l),
(92,784,l),
(191,784,l),
(191,1339,l),
(323,1355,o),
(497.5,1355,q),
(672,1355,o),
(813.5,1307.5,q),
(955,1260,o),
(1050,1172,q),
(1242,996,o),
(1242,679,q),
(1242,324,o),
(1028,140,q),
(836,-25,o),
(496,-25,q)
);
},
{
closed = 1;
nodes = (
(516,207,o),
(581,207,q),
(646,207,o),
(721,232.5,q),
(796,258,o),
(851,312,q),
(969,426,o),
(969,644,q),
(969,1002,o),
(708,1084,q),
(622,1111,o),
(509,1111,q),
(482,1111,l),
(467,1111,o),
(451,1110,q),
(451,784,l),
(751,784,l),
(751,548,l),
(451,548,l),
(451,219,l)
);
}
);
width = 1364;
}
);
unicode = 208;
},
{
category = Letter;
glyphname = Ntilde;
layers = (
{
layerId = "4de0c4ad-9814-44bf-ac31-cb508b764638";
name = Fore;
shapes = (
{
closed = 1;
nodes = (
(187,34,o),
(187,74,q),
(187,1330,l),
(387,1330,l),
(917,496,l),
(917,1262,l),
(917,1317,o),
(907,1330,q),
(1177,1330,l),
(1172,1290,o),
(1172,1242,q),
(1172,0,l),
(964,0,l),
(442,801,l),
(442,0,l),
(181,0,l)
);
},
{
closed = 1;
nodes = (
(422,1565,o),
(349,1490,q),
(345,1491,l),
(341,1690,l),
(409,1770,o),
(526,1770,q),
(618,1770,o),
(697,1715.5,q),
(776,1661,o),
(860,1661,q),
(979,1661,o),
(1016,1745,q),
(1018,1743,l),
(1008,1527,l),
(991,1497,o),
(947,1477.5,q),
(903,1458,o),
(855,1458,q),
(807,1458,o),
(777.5,1466,q),
(748,1474,o),
(723,1486,q),
(698,1498,o),
(676.5,1511.5,q),
(655,1525,o),
(631,1537,q),
(575,1565,o),
(516,1565,q)
);
}
);
width = 1359;
}
);
unicode = 209;
},
{
category = Letter;
glyphname = Ograve;
layers = (
{
layerId = "4de0c4ad-9814-44bf-ac31-cb508b764638";
name = Fore;
shapes = (
{
closed = 1;
nodes = (
(85,489,o),
(85,634.5,q),
(85,780,o),
(134,910,q),
(183,1040,o),
(274,1139,q),
(365,1238,o),
(494,1296.5,q),
(623,1355,o),
(783,1355,q),
(1059,1355,o),
(1248,1181,q),
(1450,995,o),
(1450,679,q),
(1450,373,o),
(1242,170,q),
(1114,45,o),
(937,-2,q),
(850,-25,o),
(733.5,-25,q),
(617,-25,o),
(494.5,23,q),
(372,71,o),
(281,158,q),
(190,245,o),
(137.5,367,q)
);
},
{
closed = 1;
nodes = (
(363,555,o),
(394,477,q),
(425,399,o),
(480,343,q),
(597,225,o),
(781,225,q),
(956,225,o),
(1062,338,q),
(1170,455,o),
(1170,657,q),
(1170,847,o),
(1067,974,q),
(956,1110,o),
(763,1110,q),
(576,1110,o),
(466,972,q),
(363,843,o),
(363,648,q)
);
},
{
closed = 1;
nodes = (
(693,1788,o),
(843,1788,q),
(1012,1475,l),
(786,1475,l),
(524,1798,l),
(523,1805,l)
);
}
);
width = 1535;
}
);
unicode = 210;
},
{
category = Letter;
glyphname = Oacute;
layers = (
{
layerId = "4de0c4ad-9814-44bf-ac31-cb508b764638";
name = Fore;
shapes = (
{
closed = 1;
nodes = (
(85,489,o),
(85,634.5,q),
(85,780,o),
(134,910,q),
(183,1040,o),
(274,1139,q),
(365,1238,o),
(494,1296.5,q),
(623,1355,o),
(783,1355,q),
(1059,1355,o),
(1248,1181,q),
(1450,995,o),
(1450,679,q),
(1450,373,o),
(1242,170,q),
(1114,45,o),
(937,-2,q),
(850,-25,o),
(733.5,-25,q),
(617,-25,o),
(494.5,23,q),
(372,71,o),
(281,158,q),
(190,245,o),
(137.5,367,q)
);
},
{
closed = 1;
nodes = (
(363,555,o),
(394,477,q),
(425,399,o),
(480,343,q),
(597,225,o),
(781,225,q),
(956,225,o),
(1062,338,q),
(1170,455,o),
(1170,657,q),
(1170,847,o),
(1067,974,q),
(956,1110,o),
(763,1110,q),
(576,1110,o),
(466,972,q),
(363,843,o),
(363,648,q)
);
},
{
closed = 1;
nodes = (
(842,1788,o),
(1012,1805,q),
(1011,1798,l),
(749,1475,l),
(523,1475,l),
(692,1788,l)
);
}
);
width = 1535;
}
);
unicode = 211;
},
{
category = Letter;
glyphname = Ocircumflex;
layers = (
{
layerId = "4de0c4ad-9814-44bf-ac31-cb508b764638";
name = Fore;
shapes = (
{
closed = 1;
nodes = (
(85,489,o),
(85,634.5,q),
(85,780,o),
(134,910,q),
(183,1040,o),
(274,1139,q),
(365,1238,o),
(494,1296.5,q),
(623,1355,o),
(783,1355,q),
(1059,1355,o),
(1248,1181,q),
(1450,995,o),
(1450,679,q),
(1450,373,o),
(1242,170,q),
(1114,45,o),
(937,-2,q),
(850,-25,o),
(733.5,-25,q),
(617,-25,o),
(494.5,23,q),
(372,71,o),
(281,158,q),
(190,245,o),
(137.5,367,q)
);
},
{
closed = 1;
nodes = (
(363,555,o),
(394,477,q),
(425,399,o),
(480,343,q),
(597,225,o),
(781,225,q),
(956,225,o),
(1062,338,q),
(1170,455,o),
(1170,657,q),
(1170,847,o),
(1067,974,q),
(956,1110,o),
(763,1110,q),
(576,1110,o),
(466,972,q),
(363,843,o),
(363,648,q)
);
},
{
closed = 1;
nodes = (
(451,1473,o),
(403,1470,q),
(400,1473,l),
(642,1804,l),
(666,1801,o),
(708,1801,q),
(759,1801,l),
(880,1804,l),
(1135,1473,l),
(1131,1470,l),
(876,1473,l),
(763,1650,l),
(666,1473,l)
);
}
);
width = 1535;
}
);
unicode = 212;
},
{
category = Letter;
glyphname = Otilde;
layers = (
{
layerId = "4de0c4ad-9814-44bf-ac31-cb508b764638";
name = Fore;
shapes = (
{
closed = 1;
nodes = (
(85,489,o),
(85,634.5,q),
(85,780,o),
(134,910,q),
(183,1040,o),
(274,1139,q),
(365,1238,o),
(494,1296.5,q),
(623,1355,o),
(783,1355,q),
(1059,1355,o),
(1248,1181,q),
(1450,995,o),
(1450,679,q),
(1450,373,o),
(1242,170,q),
(1114,45,o),
(937,-2,q),
(850,-25,o),
(733.5,-25,q),
(617,-25,o),
(494.5,23,q),
(372,71,o),
(281,158,q),
(190,245,o),
(137.5,367,q)
);
},
{
closed = 1;
nodes = (
(363,555,o),
(394,477,q),
(425,399,o),
(480,343,q),
(597,225,o),
(781,225,q),
(956,225,o),
(1062,338,q),
(1170,455,o),
(1170,657,q),
(1170,847,o),
(1067,974,q),
(956,1110,o),
(763,1110,q),
(576,1110,o),
(466,972,q),
(363,843,o),
(363,648,q)
);
},
{
closed = 1;
nodes = (
(510,1565,o),
(437,1490,q),
(433,1491,l),
(429,1690,l),
(497,1770,o),
(614,1770,q),
(706,1770,o),
(785,1715.5,q),
(864,1661,o),
(948,1661,q),
(1067,1661,o),
(1104,1745,q),
(1106,1743,l),
(1096,1527,l),
(1079,1497,o),
(1035,1477.5,q),
(991,1458,o),
(943,1458,q),
(895,1458,o),
(865.5,1466,q),
(836,1474,o),
(811,1486,q),
(786,1498,o),
(764.5,1511.5,q),
(743,1525,o),
(719,1537,q),
(663,1565,o),
(604,1565,q)
);
}
);
width = 1535;
}
);
unicode = 213;
},
{
category = Letter;
glyphname = Odieresis;
layers = (
{
layerId = "4de0c4ad-9814-44bf-ac31-cb508b764638";
name = Fore;
shapes = (
{
closed = 1;
nodes = (
(85,489,o),
(85,634.5,q),
(85,780,o),
(134,910,q),
(183,1040,o),
(274,1139,q),
(365,1238,o),
(494,1296.5,q),
(623,1355,o),
(783,1355,q),
(1059,1355,o),
(1248,1181,q),
(1450,995,o),
(1450,679,q),
(1450,373,o),
(1242,170,q),
(1114,45,o),
(937,-2,q),
(850,-25,o),
(733.5,-25,q),
(617,-25,o),
(494.5,23,q),
(372,71,o),
(281,158,q),
(190,245,o),
(137.5,367,q)
);
},
{
closed = 1;
nodes = (
(363,555,o),
(394,477,q),
(425,399,o),
(480,343,q),
(597,225,o),
(781,225,q),
(956,225,o),
(1062,338,q),
(1170,455,o),
(1170,657,q),
(1170,847,o),
(1067,974,q),
(956,1110,o),
(763,1110,q),
(576,1110,o),
(466,972,q),
(363,843,o),
(363,648,q)
);
},
{
closed = 1;
nodes = (
(1111,1665,o),
(1111,1587.5,q),
(1111,1510,o),
(1115,1475,q),
(850,1475,l),
(858,1537,o),
(858,1597.5,q),
(858,1658,o),
(852,1715,q),
(1115,1715,l)
);
},
{
closed = 1;
nodes = (
(681,1665,o),
(681,1587.5,q),
(681,1510,o),
(685,1475,q),
(420,1475,l),
(428,1537,o),
(428,1597.5,q),
(428,1658,o),
(422,1715,q),
(685,1715,l)
);
}
);
width = 1535;
}
);
unicode = 214;
},
{
category = Letter;
glyphname = multiply;
layers = (
{
layerId = "4de0c4ad-9814-44bf-ac31-cb508b764638";
name = Fore;
shapes = (
{
closed = 1;
nodes = (
(294,397,o),
(368,473,q),
(510,615,l),
(375,751,l),
(301,827,o),
(278,840,q),
(450,1017,l),
(488,972,o),
(535,926,q),
(678,783,l),
(820,925,l),
(896,999,o),
(909,1022,q),
(1086,850,l),
(1041,812,o),
(995,765,q),
(845,615,l),
(1002,459,l),
(1048,412,o),
(1093,374,q),
(916,202,l),
(903,225,o),
(827,299,q),
(678,448,l),
(528,298,l),
(481,252,o),
(443,207,q),
(271,384,l)
);
}
);
width = 1364;
}
);
unicode = 215;
},
{
category = Letter;
glyphname = Oslash;
layers = (
{
layerId = "4de0c4ad-9814-44bf-ac31-cb508b764638";
name = Fore;
shapes = (
{
closed = 1;
nodes = (
(610,-25,o),
(482,28,q),
(366,-170,l),
(170,-170,l),
(335,112,l),
(220,200,o),
(152.5,333,q),
(85,466,o),
(85,623,q),
(85,780,o),
(134,910,q),
(183,1040,o),
(274,1139,q),
(365,1238,o),
(494,1296.5,q),
(623,1355,o),
(770,1355,q),
(917,1355,o),
(1036,1310,q),
(1164,1530,l),
(1360,1530,l),
(1185,1231,l),
(1450,1042,o),
(1450,679,q),
(1450,373,o),
(1242,170,q),
(1043,-25,o),
(730,-25,q)
);
},
{
closed = 1;
nodes = (
(839,1110,o),
(752,1110,q),
(665,1110,o),
(590.5,1072.5,q),
(516,1035,o),
(466,972,q),
(363,843,o),
(363,648,q),
(363,467,o),
(474,350,q),
(905,1087,l)
);
},
{
closed = 1;
nodes = (
(696,225,o),
(781.5,225,q),
(867,225,o),
(938.5,254,q),
(1010,283,o),
(1062,338,q),
(1170,455,o),
(1170,657,q),
(1170,866,o),
(1047,995,q),
(615,255,l)
);
}
);
width = 1535;
}
);
unicode = 216;
},
{
category = Letter;
glyphname = Ugrave;
layers = (
{
layerId = "4de0c4ad-9814-44bf-ac31-cb508b764638";
name = Fore;
shapes = (
{
closed = 1;
nodes = (
(992,1330,o),
(1033,1330,q),
(1116,1330,l),
(1158,1330,o),
(1204,1338,q),
(1204,511,l),
(1204,265,o),
(1055,116,q),
(914,-25,o),
(701,-25,q),
(468,-25,o),
(324,96,q),
(163,232,o),
(163,488,q),
(163,1335,l),
(246,1330,o),
(319.5,1330,q),
(393,1330,o),
(441,1338,q),
(441,475,l),
(441,349,o),
(518,279,q),
(590,215,o),
(698,215,q),
(858,215,o),
(911,379,q),
(930,438,o),
(930,525,q),
(930,1335,l)
);
},
{
closed = 1;
nodes = (
(609,1788,o),
(759,1788,q),
(928,1475,l),
(702,1475,l),
(440,1798,l),
(439,1805,l)
);
}
);
width = 1368;
}
);
unicode = 217;
},
{
category = Letter;
glyphname = Uacute;
layers = (
{
layerId = "4de0c4ad-9814-44bf-ac31-cb508b764638";
name = Fore;
shapes = (
{
closed = 1;
nodes = (
(992,1330,o),
(1033,1330,q),
(1116,1330,l),
(1158,1330,o),
(1204,1338,q),
(1204,511,l),
(1204,265,o),
(1055,116,q),
(914,-25,o),
(701,-25,q),
(468,-25,o),
(324,96,q),
(163,232,o),
(163,488,q),
(163,1335,l),
(246,1330,o),
(319.5,1330,q),
(393,1330,o),
(441,1338,q),
(441,475,l),
(441,349,o),
(518,279,q),
(590,215,o),
(698,215,q),
(858,215,o),
(911,379,q),
(930,438,o),
(930,525,q),
(930,1335,l)
);
},
{
closed = 1;
nodes = (
(758,1788,o),
(928,1805,q),
(927,1798,l),
(665,1475,l),
(439,1475,l),
(608,1788,l)
);
}
);
width = 1368;
}
);
unicode = 218;
},
{
category = Letter;
glyphname = Ucircumflex;
layers = (
{
layerId = "4de0c4ad-9814-44bf-ac31-cb508b764638";
name = Fore;
shapes = (
{
closed = 1;
nodes = (
(992,1330,o),
(1033,1330,q),
(1116,1330,l),
(1158,1330,o),
(1204,1338,q),
(1204,511,l),
(1204,265,o),
(1055,116,q),
(914,-25,o),
(701,-25,q),
(468,-25,o),
(324,96,q),
(163,232,o),
(163,488,q),
(163,1335,l),
(246,1330,o),
(319.5,1330,q),
(393,1330,o),
(441,1338,q),
(441,475,l),
(441,349,o),
(518,279,q),
(590,215,o),
(698,215,q),
(858,215,o),
(911,379,q),
(930,438,o),
(930,525,q),
(930,1335,l)
);
},
{
closed = 1;
nodes = (
(367,1473,o),
(319,1470,q),
(316,1473,l),
(558,1804,l),
(582,1801,o),
(624,1801,q),
(675,1801,l),
(796,1804,l),
(1051,1473,l),
(1047,1470,l),
(792,1473,l),
(679,1650,l),
(582,1473,l)
);
}
);
width = 1368;
}
);
unicode = 219;
},
{
category = Letter;
glyphname = Udieresis;
layers = (
{
layerId = "4de0c4ad-9814-44bf-ac31-cb508b764638";
name = Fore;
shapes = (
{
closed = 1;
nodes = (
(992,1330,o),
(1033,1330,q),
(1116,1330,l),
(1158,1330,o),
(1204,1338,q),
(1204,511,l),
(1204,265,o),
(1055,116,q),
(914,-25,o),
(701,-25,q),
(468,-25,o),
(324,96,q),
(163,232,o),
(163,488,q),
(163,1335,l),
(246,1330,o),
(319.5,1330,q),
(393,1330,o),
(441,1338,q),
(441,475,l),
(441,349,o),
(518,279,q),
(590,215,o),
(698,215,q),
(858,215,o),
(911,379,q),
(930,438,o),
(930,525,q),
(930,1335,l)
);
},
{
closed = 1;
nodes = (
(1027,1665,o),
(1027,1587.5,q),
(1027,1510,o),
(1031,1475,q),
(766,1475,l),
(774,1537,o),
(774,1597.5,q),
(774,1658,o),
(768,1715,q),
(1031,1715,l)
);
},
{
closed = 1;
nodes = (
(597,1665,o),
(597,1587.5,q),
(597,1510,o),
(601,1475,q),
(336,1475,l),
(344,1537,o),
(344,1597.5,q),
(344,1658,o),
(338,1715,q),
(601,1715,l)
);
}
);
width = 1368;
}
);
unicode = 220;
},
{
category = Letter;
glyphname = Yacute;
layers = (
{
layerId = "4de0c4ad-9814-44bf-ac31-cb508b764638";
name = Fore;
shapes = (
{
closed = 1;
nodes = (
(464,39,o),
(464,182,q),
(464,460,l),
(291,841,o),
(243,935.5,q),
(195,1030,o),
(162,1085,q),
(58,1261,o),
(36.5,1287,q),
(15,1313,o),
(-7,1330,q),
(338,1330,l),
(349,1310,o),
(368,1271,q),
(610,760,l),
(627,802,o),
(650,854,q),
(868,1323,o),
(871,1330,q),
(1201,1330,l),
(1150,1289,o),
(1076,1158,q),
(1053,1119,o),
(1030,1069,q),
(804,598,l),
(766,513,o),
(739,445,q),
(739,158,l),
(739,58,o),
(751,0,q),
(451,0,l)
);
},
{
closed = 1;
nodes = (
(671,1788,o),
(841,1805,q),
(840,1798,l),
(578,1475,l),
(352,1475,l),
(521,1788,l)
);
}
);
width = 1193;
}
);
unicode = 221;
},
{
category = Letter;
glyphname = Thorn;
layers = (
{
layerId = "4de0c4ad-9814-44bf-ac31-cb508b764638";
name = Fore;
shapes = (
{
closed = 1;
nodes = (
(631,192,o),
(541.5,192,q),
(452,192,o),
(427,195,q),
(427,0,l),
(172,0,l),
(172,1330,l),
(427,1330,l),
(427,1134,l),
(736,1134,o),
(908,1002,q),
(1072,876,o),
(1072,663,q),
(1072,436,o),
(920,314,q),
(846,254,o),
(738.5,223,q)
);
},
{
closed = 1;
nodes = (
(571,904,o),
(516,904,q),
(461,904,o),
(427,900,q),
(427,424,l),
(466,421,o),
(498,421,q),
(644,421,o),
(725,478,q),
(806,535,o),
(806,642,q),
(806,757,o),
(726,828,q),
(686,863,o),
(628.5,883.5,q)
);
}
);
width = 1193;
}
);
unicode = 222;
},
{
category = Letter;
glyphname = germandbls;
layers = (
{
layerId = "4de0c4ad-9814-44bf-ac31-cb508b764638";
name = Fore;
shapes = (
{
closed = 1;
nodes = (
(935,213,o),
(935,359,q),
(935,451,o),
(745,546,q),
(630,614,o),
(595,657,q),
(537,727,o),
(537,791,q),
(537,855,o),
(558,901,q),
(579,947,o),
(615,986.5,q),
(651,1026,o),
(665.5,1048,q),
(680,1070,o),
(688,1088,q),
(703,1120,o),
(703,1144,q),
(703,1168,o),
(694.5,1183,q),
(686,1198,o),
(670,1210,q),
(634,1236,o),
(582.5,1236,q),
(531,1236,o),
(493.5,1218.5,q),
(456,1201,o),
(429,1156,q),
(372,1063,o),
(372,849,q),
(372,-45,l),
(372,-197,o),
(350,-262,q),
(315,-366,o),
(259,-407,q),
(58,-276,l),
(58,-271,l),
(104,-240,o),
(116,-125,q),
(127,-25,o),
(127,271,q),
(127,810,l),
(127,1445,o),
(602,1445,q),
(750,1445,o),
(850,1364,q),
(950,1283,o),
(950,1162,q),
(950,1080,o),
(894,1006,q),
(872,977,o),
(846,950.5,q),
(820,924,o),
(809,911,q),
(798,898,o),
(792,888,q),
(781,868,o),
(781,853,q),
(781,838,o),
(789.5,824.5,q),
(798,811,o),
(820,792,q),
(869,750,o),
(951,699.5,q),
(1033,649,o),
(1074.5,608,q),
(1116,567,o),
(1140,522,q),
(1182,443,o),
(1182,351.5,q),
(1182,260,o),
(1158,200,q),
(1134,140,o),
(1086,92,q),
(979,-15,o),
(795,-15,q),
(630,-15,o),
(547,40,q),
(537,290,l),
(541,295,l),
(591,246,o),
(648,229.5,q),
(705,213,o),
(774,213,q)
);
}
);
width = 1193;
}
);
unicode = 223;
},
{
category = Letter;
glyphname = agrave;
layers = (
{
layerId = "4de0c4ad-9814-44bf-ac31-cb508b764638";
name = Fore;
shapes = (
{
closed = 1;
nodes = (
(695,-15,o),
(580,-15,q),
(465,-15,o),
(383,6.5,q),
(301,28,o),
(244,70,q),
(128,155,o),
(128,316,q),
(128,460,o),
(270,556,q),
(424,660,o),
(688,660,q),
(728,659,l),
(740,658,o),
(755,657.5,q),
(770,657,o),
(782,655,q),
(774,815,o),
(644,842,q),
(601,851,o),
(552.5,851,q),
(504,851,o),
(457.5,842.5,q),
(411,834,o),
(367,820,q),
(270,789,o),
(228,749,q),
(225,751,l),
(195,972,l),
(372,1065,o),
(582,1065,q),
(908,1065,o),
(999,830,q),
(1028,755,o),
(1028,661,q),
(1028,299,l),
(1028,183,o),
(1110,141,q),
(929,-25,l),
(872,5,o),
(837,62,q)
);
},
{
closed = 1;
nodes = (
(756,480,o),
(727,480,q),
(687,480,l),
(466,480,o),
(406,382,q),
(388,353,o),
(388,321,q),
(388,289,o),
(399.5,264.5,q),
(411,240,o),
(438,224,q),
(490,194,o),
(592.5,194,q),
(695,194,o),
(784,243,q),
(783,254,o),
(783,266,q),
(783,475,l)
);
},
{
closed = 1;
nodes = (
(450,1503,o),
(600,1503,q),
(769,1190,l),
(543,1190,l),
(281,1513,l),
(280,1520,l)
);
}
);
width = 1193;
}
);
unicode = 224;
},
{
category = Letter;
glyphname = aacute;
layers = (
{
layerId = "4de0c4ad-9814-44bf-ac31-cb508b764638";
name = Fore;
shapes = (
{
closed = 1;
nodes = (
(695,-15,o),
(580,-15,q),
(465,-15,o),
(383,6.5,q),
(301,28,o),
(244,70,q),
(128,155,o),
(128,316,q),
(128,460,o),
(270,556,q),
(424,660,o),
(688,660,q),
(728,659,l),
(740,658,o),
(755,657.5,q),
(770,657,o),
(782,655,q),
(774,815,o),
(644,842,q),
(601,851,o),
(552.5,851,q),
(504,851,o),
(457.5,842.5,q),
(411,834,o),
(367,820,q),
(270,789,o),
(228,749,q),
(225,751,l),
(195,972,l),
(372,1065,o),
(582,1065,q),
(908,1065,o),
(999,830,q),
(1028,755,o),
(1028,661,q),
(1028,299,l),
(1028,183,o),
(1110,141,q),
(929,-25,l),
(872,5,o),
(837,62,q)
);
},
{
closed = 1;
nodes = (
(756,480,o),
(727,480,q),
(687,480,l),
(466,480,o),
(406,382,q),
(388,353,o),
(388,321,q),
(388,289,o),
(399.5,264.5,q),
(411,240,o),
(438,224,q),
(490,194,o),
(592.5,194,q),
(695,194,o),
(784,243,q),
(783,254,o),
(783,266,q),
(783,475,l)
);
},
{
closed = 1;
nodes = (
(719,1503,o),
(889,1520,q),
(888,1513,l),
(626,1190,l),
(400,1190,l),
(569,1503,l)
);
}
);
width = 1193;
}
);
unicode = 225;
},
{
category = Letter;
glyphname = acircumflex;
layers = (
{
layerId = "4de0c4ad-9814-44bf-ac31-cb508b764638";
name = Fore;
shapes = (
{
closed = 1;
nodes = (
(695,-15,o),
(580,-15,q),
(465,-15,o),
(383,6.5,q),
(301,28,o),
(244,70,q),
(128,155,o),
(128,316,q),
(128,460,o),
(270,556,q),
(424,660,o),
(688,660,q),
(728,659,l),
(740,658,o),
(755,657.5,q),
(770,657,o),
(782,655,q),
(774,815,o),
(644,842,q),
(601,851,o),
(552.5,851,q),
(504,851,o),
(457.5,842.5,q),
(411,834,o),
(367,820,q),
(270,789,o),
(228,749,q),
(225,751,l),
(195,972,l),
(372,1065,o),
(582,1065,q),
(908,1065,o),
(999,830,q),
(1028,755,o),
(1028,661,q),
(1028,299,l),
(1028,183,o),
(1110,141,q),
(929,-25,l),
(872,5,o),
(837,62,q)
);
},
{
closed = 1;
nodes = (
(756,480,o),
(727,480,q),
(687,480,l),
(466,480,o),
(406,382,q),
(388,353,o),
(388,321,q),
(388,289,o),
(399.5,264.5,q),
(411,240,o),
(438,224,q),
(490,194,o),
(592.5,194,q),
(695,194,o),
(784,243,q),
(783,254,o),
(783,266,q),
(783,475,l)
);
},
{
closed = 1;
nodes = (
(268,1188,o),
(220,1185,q),
(217,1188,l),
(459,1519,l),
(483,1516,o),
(525,1516,q),
(576,1516,l),
(697,1519,l),
(952,1188,l),
(948,1185,l),
(693,1188,l),
(580,1365,l),
(483,1188,l)
);
}
);
width = 1193;
}
);
unicode = 226;
},
{
category = Letter;
glyphname = atilde;
layers = (
{
layerId = "4de0c4ad-9814-44bf-ac31-cb508b764638";
name = Fore;
shapes = (
{
closed = 1;
nodes = (
(695,-15,o),
(580,-15,q),
(465,-15,o),
(383,6.5,q),
(301,28,o),
(244,70,q),
(128,155,o),
(128,316,q),
(128,460,o),
(270,556,q),
(424,660,o),
(688,660,q),
(728,659,l),
(740,658,o),
(755,657.5,q),
(770,657,o),
(782,655,q),
(774,815,o),
(644,842,q),
(601,851,o),
(552.5,851,q),
(504,851,o),
(457.5,842.5,q),
(411,834,o),
(367,820,q),
(270,789,o),
(228,749,q),
(225,751,l),
(195,972,l),
(372,1065,o),
(582,1065,q),
(908,1065,o),
(999,830,q),
(1028,755,o),
(1028,661,q),
(1028,299,l),
(1028,183,o),
(1110,141,q),
(929,-25,l),
(872,5,o),
(837,62,q)
);
},
{
closed = 1;
nodes = (
(756,480,o),
(727,480,q),
(687,480,l),
(466,480,o),
(406,382,q),
(388,353,o),
(388,321,q),
(388,289,o),
(399.5,264.5,q),
(411,240,o),
(438,224,q),
(490,194,o),
(592.5,194,q),
(695,194,o),
(784,243,q),
(783,254,o),
(783,266,q),
(783,475,l)
);
},
{
closed = 1;
nodes = (
(327,1280,o),
(254,1205,q),
(250,1206,l),
(246,1405,l),
(314,1485,o),
(431,1485,q),
(523,1485,o),
(602,1430.5,q),
(681,1376,o),
(765,1376,q),
(884,1376,o),
(921,1460,q),
(923,1458,l),
(913,1242,l),
(896,1212,o),
(852,1192.5,q),
(808,1173,o),
(760,1173,q),
(712,1173,o),
(682.5,1181,q),
(653,1189,o),
(628,1201,q),
(603,1213,o),
(581.5,1226.5,q),
(560,1240,o),
(536,1252,q),
(480,1280,o),
(421,1280,q)
);
}
);
width = 1193;
}
);
unicode = 227;
},
{
category = Letter;
glyphname = adieresis;
layers = (
{
layerId = "4de0c4ad-9814-44bf-ac31-cb508b764638";
name = Fore;
shapes = (
{
closed = 1;
nodes = (
(695,-15,o),
(580,-15,q),
(465,-15,o),
(383,6.5,q),
(301,28,o),
(244,70,q),
(128,155,o),
(128,316,q),
(128,460,o),
(270,556,q),
(424,660,o),
(688,660,q),
(728,659,l),
(740,658,o),
(755,657.5,q),
(770,657,o),
(782,655,q),
(774,815,o),
(644,842,q),
(601,851,o),
(552.5,851,q),
(504,851,o),
(457.5,842.5,q),
(411,834,o),
(367,820,q),
(270,789,o),
(228,749,q),
(225,751,l),
(195,972,l),
(372,1065,o),
(582,1065,q),
(908,1065,o),
(999,830,q),
(1028,755,o),
(1028,661,q),
(1028,299,l),
(1028,183,o),
(1110,141,q),
(929,-25,l),
(872,5,o),
(837,62,q)
);
},
{
closed = 1;
nodes = (
(756,480,o),
(727,480,q),
(687,480,l),
(466,480,o),
(406,382,q),
(388,353,o),
(388,321,q),
(388,289,o),
(399.5,264.5,q),
(411,240,o),
(438,224,q),
(490,194,o),
(592.5,194,q),
(695,194,o),
(784,243,q),
(783,254,o),
(783,266,q),
(783,475,l)
);
},
{
closed = 1;
nodes = (
(928,1380,o),
(928,1302.5,q),
(928,1225,o),
(932,1190,q),
(667,1190,l),
(675,1252,o),
(675,1312.5,q),
(675,1373,o),
(669,1430,q),
(932,1430,l)
);
},
{
closed = 1;
nodes = (
(498,1380,o),
(498,1302.5,q),
(498,1225,o),
(502,1190,q),
(237,1190,l),
(245,1252,o),
(245,1312.5,q),
(245,1373,o),
(239,1430,q),
(502,1430,l)
);
}
);
width = 1193;
}
);
unicode = 228;
},
{
category = Letter;
glyphname = aring;
layers = (
{
layerId = "4de0c4ad-9814-44bf-ac31-cb508b764638";
name = Fore;
shapes = (
{
closed = 1;
nodes = (
(695,-15,o),
(580,-15,q),
(465,-15,o),
(383,6.5,q),
(301,28,o),
(244,70,q),
(128,155,o),
(128,316,q),
(128,460,o),
(270,556,q),
(424,660,o),
(688,660,q),
(728,659,l),
(740,658,o),
(755,657.5,q),
(770,657,o),
(782,655,q),
(774,815,o),
(644,842,q),
(601,851,o),
(552.5,851,q),
(504,851,o),
(457.5,842.5,q),
(411,834,o),
(367,820,q),
(270,789,o),
(228,749,q),
(225,751,l),
(195,972,l),
(372,1065,o),
(582,1065,q),
(908,1065,o),
(999,830,q),
(1028,755,o),
(1028,661,q),
(1028,299,l),
(1028,183,o),
(1110,141,q),
(929,-25,l),
(872,5,o),
(837,62,q)
);
},
{
closed = 1;
nodes = (
(756,480,o),
(727,480,q),
(687,480,l),
(466,480,o),
(406,382,q),
(388,353,o),
(388,321,q),
(388,289,o),
(399.5,264.5,q),
(411,240,o),
(438,224,q),
(490,194,o),
(592.5,194,q),
(695,194,o),
(784,243,q),
(783,254,o),
(783,266,q),
(783,475,l)
);
},
{
closed = 1;
nodes = (
(517,1180,o),
(467,1196,q),
(417,1212,o),
(381,1242,q),
(305,1305,o),
(305,1414,q),
(305,1521,o),
(380,1588,q),
(456,1656,o),
(592,1656,q),
(712,1656,o),
(788,1587,q),
(863,1520,o),
(863,1419,q),
(863,1309,o),
(783,1244,q),
(705,1180,o),
(578,1180,q)
);
},
{
closed = 1;
nodes = (
(555,1321,o),
(581.5,1321,q),
(608,1321,o),
(629,1328.5,q),
(650,1336,o),
(666,1350,q),
(701,1379,o),
(701,1408.5,q),
(701,1438,o),
(693.5,1455.5,q),
(686,1473,o),
(671,1488,q),
(637,1520,o),
(593.5,1520,q),
(550,1520,o),
(528,1511,q),
(506,1502,o),
(492,1488,q),
(464,1460,o),
(464,1430,q),
(464,1400,o),
(471.5,1382,q),
(479,1364,o),
(494,1350.5,q),
(509,1337,o),
(532,1329,q)
);
}
);
width = 1193;
}
);
unicode = 229;
},
{
category = Letter;
glyphname = ae;
layers = (
{
layerId = "4de0c4ad-9814-44bf-ac31-cb508b764638";
name = Fore;
shapes = (
{
closed = 1;
nodes = (
(738,-15,o),
(523,-15,q),
(340,-15,o),
(231,84,q),
(125,181,o),
(125,332,q),
(125,497,o),
(274,608,q),
(426,721,o),
(654,721,q),
(684,721,o),
(701,718,q),
(664,859,o),
(490,859,q),
(373,859,o),
(274,776,q),
(243,750,o),
(220,719,q),
(217,721,l),
(187,952,l),
(330,1065,o),
(541.5,1065,q),
(753,1065,o),
(871,916,q),
(1024,1065,o),
(1278,1065,q),
(1480,1065,o),
(1618,930,q),
(1757,795,o),
(1757,582,q),
(1757,524,o),
(1745,476,q),
(1634,446,o),
(1328,446,q),
(1234,446,o),
(1161.5,446,q),
(1089,446,o),
(1040.5,446.5,q),
(992,447,o),
(959,447,q),
(985,339,o),
(1082,279.5,q),
(1179,220,o),
(1355,220,q),
(1531,220,o),
(1661,326,q),
(1656,215,o),
(1646,63,q),
(1566,11,o),
(1402,-9,q),
(1352,-15,o),
(1304,-15,q),
(1047,-15,o),
(892,104,q)
);
},
{
closed = 1;
nodes = (
(1005,665,o),
(1042,664,q),
(1115,664,l),
(1152,663,o),
(1186,663,q),
(1240,663,l),
(1296,663,o),
(1352,664,q),
(1444,667,l),
(1480,668,o),
(1508,670,q),
(1474,784,o),
(1338,823,q),
(1295,835,o),
(1248.5,835,q),
(1202,835,o),
(1161.5,823,q),
(1121,811,o),
(1086,790,q),
(1015,746,o),
(978,666,q)
);
},
{
closed = 1;
nodes = (
(707,369,o),
(707,512,q),
(687,515,o),
(639,515,q),
(591,515,o),
(537.5,503,q),
(484,491,o),
(446,470,q),
(370,426,o),
(370,355,q),
(370,284,o),
(418.5,241.5,q),
(467,199,o),
(541,199,q),
(679,199,o),
(765,271,q)
);
}
);
width = 1877;
}
);
unicode = 230;
},
{
category = Letter;
glyphname = ccedilla;
layers = (
{
layerId = "4de0c4ad-9814-44bf-ac31-cb508b764638";
name = Fore;
shapes = (
{
closed = 1;
nodes = (
(640,-69,o),
(640,-152,q),
(640,-235,o),
(617.5,-290,q),
(595,-345,o),
(566,-362,q),
(507,-400,o),
(351,-432,q),
(345,-426,l),
(415,-327,o),
(415,0,q),
(448,6,l),
(283,50,o),
(184,182,q),
(85,315,o),
(85,506,q),
(85,747,o),
(232,902,q),
(388,1065,o),
(649,1065,q),
(834,1065,o),
(959,984,q),
(919,728,l),
(912,729,l),
(864,787,o),
(811,805,q),
(725,835,o),
(639,835,q),
(553,835,o),
(504,813,q),
(455,791,o),
(420,752,q),
(350,672,o),
(350,540,q),
(350,306,o),
(512,234,q),
(568,210,o),
(630.5,210,q),
(693,210,o),
(739.5,221,q),
(786,232,o),
(824,251,q),
(905,291,o),
(934,344,q),
(941,341,l),
(964,97,l),
(856,-11,o),
(632,-15,q)
);
}
);
width = 1026;
}
);
unicode = 231;
},
{
category = Letter;
glyphname = egrave;
layers = (
{
layerId = "4de0c4ad-9814-44bf-ac31-cb508b764638";
name = Fore;
shapes = (
{
closed = 1;
nodes = (
(97,631,o),
(137,731,q),
(177,831,o),
(250,906,q),
(406,1065,o),
(658,1065,q),
(871,1065,o),
(1000,924,q),
(1127,788,o),
(1127,582,q),
(1127,503,o),
(1115,474,q),
(1015,446,o),
(708,446,q),
(356,446,l),
(382,339,o),
(477,279.5,q),
(572,220,o),
(724,220,q),
(883,220,o),
(997,277,q),
(1027,292,o),
(1042,305,q),
(1040,263,o),
(1037,219,q),
(1026,63,l),
(950,11,o),
(780,-9,q),
(730,-15,o),
(684,-15,q),
(430,-15,o),
(264,133,q),
(97,282,o),
(97,514,q)
);
},
{
closed = 1;
nodes = (
(820,855,o),
(627,855,q),
(475,855,o),
(396,724,q),
(372,684,o),
(359,636,q),
(383,635,o),
(418,634,q),
(492,634,l),
(529,633,o),
(563,633,q),
(620,633,l),
(671,633,o),
(720,634,q),
(802,637,l),
(835,638,o),
(861,640,q)
);
},
{
closed = 1;
nodes = (
(478,1503,o),
(628,1503,q),
(797,1190,l),
(571,1190,l),
(309,1513,l),
(308,1520,l)
);
}
);
width = 1197;
}
);
unicode = 232;
},
{
category = Letter;
glyphname = eacute;
layers = (
{
layerId = "4de0c4ad-9814-44bf-ac31-cb508b764638";
name = Fore;
shapes = (
{
closed = 1;
nodes = (
(97,631,o),
(137,731,q),
(177,831,o),
(250,906,q),
(406,1065,o),
(658,1065,q),
(871,1065,o),
(1000,924,q),
(1127,788,o),
(1127,582,q),
(1127,503,o),
(1115,474,q),
(1015,446,o),
(708,446,q),
(356,446,l),
(382,339,o),
(477,279.5,q),
(572,220,o),
(724,220,q),
(883,220,o),
(997,277,q),
(1027,292,o),
(1042,305,q),
(1040,263,o),
(1037,219,q),
(1026,63,l),
(950,11,o),
(780,-9,q),
(730,-15,o),
(684,-15,q),
(430,-15,o),
(264,133,q),
(97,282,o),
(97,514,q)
);
},
{
closed = 1;
nodes = (
(820,855,o),
(627,855,q),
(475,855,o),
(396,724,q),
(372,684,o),
(359,636,q),
(383,635,o),
(418,634,q),
(492,634,l),
(529,633,o),
(563,633,q),
(620,633,l),
(671,633,o),
(720,634,q),
(802,637,l),
(835,638,o),
(861,640,q)
);
},
{
closed = 1;
nodes = (
(747,1503,o),
(917,1520,q),
(916,1513,l),
(654,1190,l),
(428,1190,l),
(597,1503,l)
);
}
);
width = 1197;
}
);
unicode = 233;
},
{
category = Letter;
glyphname = ecircumflex;
layers = (
{
layerId = "4de0c4ad-9814-44bf-ac31-cb508b764638";
name = Fore;
shapes = (
{
closed = 1;
nodes = (
(97,631,o),
(137,731,q),
(177,831,o),
(250,906,q),
(406,1065,o),
(658,1065,q),
(871,1065,o),
(1000,924,q),
(1127,788,o),
(1127,582,q),
(1127,503,o),
(1115,474,q),
(1015,446,o),
(708,446,q),
(356,446,l),
(382,339,o),
(477,279.5,q),
(572,220,o),
(724,220,q),
(883,220,o),
(997,277,q),
(1027,292,o),
(1042,305,q),
(1040,263,o),
(1037,219,q),
(1026,63,l),
(950,11,o),
(780,-9,q),
(730,-15,o),
(684,-15,q),
(430,-15,o),
(264,133,q),
(97,282,o),
(97,514,q)
);
},
{
closed = 1;
nodes = (
(820,855,o),
(627,855,q),
(475,855,o),
(396,724,q),
(372,684,o),
(359,636,q),
(383,635,o),
(418,634,q),
(492,634,l),
(529,633,o),
(563,633,q),
(620,633,l),
(671,633,o),
(720,634,q),
(802,637,l),
(835,638,o),
(861,640,q)
);
},
{
closed = 1;
nodes = (
(296,1188,o),
(248,1185,q),
(245,1188,l),
(487,1519,l),
(511,1516,o),
(553,1516,q),
(604,1516,l),
(725,1519,l),
(980,1188,l),
(976,1185,l),
(721,1188,l),
(608,1365,l),
(511,1188,l)
);
}
);
width = 1197;
}
);
unicode = 234;
},
{
category = Letter;
glyphname = edieresis;
layers = (
{
layerId = "4de0c4ad-9814-44bf-ac31-cb508b764638";
name = Fore;
shapes = (
{
closed = 1;
nodes = (
(97,631,o),
(137,731,q),
(177,831,o),
(250,906,q),
(406,1065,o),
(658,1065,q),
(871,1065,o),
(1000,924,q),
(1127,788,o),
(1127,582,q),
(1127,503,o),
(1115,474,q),
(1015,446,o),
(708,446,q),
(356,446,l),
(382,339,o),
(477,279.5,q),
(572,220,o),
(724,220,q),
(883,220,o),
(997,277,q),
(1027,292,o),
(1042,305,q),
(1040,263,o),
(1037,219,q),
(1026,63,l),
(950,11,o),
(780,-9,q),
(730,-15,o),
(684,-15,q),
(430,-15,o),
(264,133,q),
(97,282,o),
(97,514,q)
);
},
{
closed = 1;
nodes = (
(820,855,o),
(627,855,q),
(475,855,o),
(396,724,q),
(372,684,o),
(359,636,q),
(383,635,o),
(418,634,q),
(492,634,l),
(529,633,o),
(563,633,q),
(620,633,l),
(671,633,o),
(720,634,q),
(802,637,l),
(835,638,o),
(861,640,q)
);
},
{
closed = 1;
nodes = (
(956,1380,o),
(956,1302.5,q),
(956,1225,o),
(960,1190,q),
(695,1190,l),
(703,1252,o),
(703,1312.5,q),
(703,1373,o),
(697,1430,q),
(960,1430,l)
);
},
{
closed = 1;
nodes = (
(526,1380,o),
(526,1302.5,q),
(526,1225,o),
(530,1190,q),
(265,1190,l),
(273,1252,o),
(273,1312.5,q),
(273,1373,o),
(267,1430,q),
(530,1430,l)
);
}
);
width = 1197;
}
);
unicode = 235;
},
{
category = Letter;
glyphname = igrave;
layers = (
{
layerId = "4de0c4ad-9814-44bf-ac31-cb508b764638";
name = Fore;
shapes = (
{
closed = 1;
nodes = (
(378,26,o),
(382,0,q),
(128,0,l),
(128,1045,l),
(378,1045,l),
(378,112,l)
);
},
{
closed = 1;
nodes = (
(109,1503,o),
(259,1503,q),
(428,1190,l),
(202,1190,l),
(-60,1513,l),
(-61,1520,l)
);
}
);
width = 513;
}
);
unicode = 236;
},
{
category = Letter;
glyphname = iacute;
layers = (
{
layerId = "4de0c4ad-9814-44bf-ac31-cb508b764638";
name = Fore;
shapes = (
{
closed = 1;
nodes = (
(378,26,o),
(382,0,q),
(128,0,l),
(128,1045,l),
(378,1045,l),
(378,112,l)
);
},
{
closed = 1;
nodes = (
(378,1503,o),
(548,1520,q),
(547,1513,l),
(285,1190,l),
(59,1190,l),
(228,1503,l)
);
}
);
width = 513;
}
);
unicode = 237;
},
{
category = Letter;
glyphname = icircumflex;
layers = (
{
layerId = "4de0c4ad-9814-44bf-ac31-cb508b764638";
name = Fore;
shapes = (
{
closed = 1;
nodes = (
(378,26,o),
(382,0,q),
(128,0,l),
(128,1045,l),
(378,1045,l),
(378,112,l)
);
},
{
closed = 1;
nodes = (
(-73,1188,o),
(-121,1185,q),
(-124,1188,l),
(118,1519,l),
(142,1516,o),
(184,1516,q),
(235,1516,l),
(356,1519,l),
(611,1188,l),
(607,1185,l),
(352,1188,l),
(239,1365,l),
(142,1188,l)
);
}
);
width = 513;
}
);
unicode = 238;
},
{
category = Letter;
glyphname = idieresis;
layers = (
{
layerId = "4de0c4ad-9814-44bf-ac31-cb508b764638";
name = Fore;
shapes = (
{
closed = 1;
nodes = (
(378,26,o),
(382,0,q),
(128,0,l),
(128,1045,l),
(378,1045,l),
(378,112,l)
);
},
{
closed = 1;
nodes = (
(587,1380,o),
(587,1302.5,q),
(587,1225,o),
(591,1190,q),
(326,1190,l),
(334,1252,o),
(334,1312.5,q),
(334,1373,o),
(328,1430,q),
(591,1430,l)
);
},
{
closed = 1;
nodes = (
(157,1380,o),
(157,1302.5,q),
(157,1225,o),
(161,1190,q),
(-104,1190,l),
(-96,1252,o),
(-96,1312.5,q),
(-96,1373,o),
(-102,1430,q),
(161,1430,l)
);
}
);
width = 513;
}
);
unicode = 239;
},
{
category = Letter;
glyphname = eth;
layers = (
{
layerId = "4de0c4ad-9814-44bf-ac31-cb508b764638";
name = Fore;
shapes = (
{
closed = 1;
nodes = (
(1074,839,o),
(1074,504,q),
(1074,279,o),
(924,128,q),
(780,-15,o),
(575,-15,q),
(368,-15,o),
(228,121,q),
(91,255,o),
(91,443,q),
(91,666,o),
(240,788,q),
(370,895,o),
(569,895,q),
(641,895,o),
(725,865,q),
(665,970,o),
(573,1077,q),
(266,961,l),
(209,1143,l),
(431,1223,l),
(376,1274,o),
(314,1326,q),
(181,1430,l),
(501,1430,l),
(585,1371,o),
(658,1306,q),
(897,1393,l),
(953,1220,l),
(799,1162,l)
);
},
{
closed = 1;
nodes = (
(829,512,l),
(787,597,o),
(726,631,q),
(665,665,o),
(599,665,q),
(533,665,o),
(492,652.5,q),
(451,640,o),
(420,616,q),
(349,561,o),
(349,465,q),
(349,366,o),
(419,294,q),
(491,220,o),
(598,220,q),
(691,220,o),
(755,284,q),
(830,361,o),
(830,496,q)
);
}
);
width = 1193;
}
);
unicode = 240;
},
{
category = Letter;
glyphname = ntilde;
layers = (
{
layerId = "4de0c4ad-9814-44bf-ac31-cb508b764638";
name = Fore;
shapes = (
{
closed = 1;
nodes = (
(410,40,o),
(418,0,q),
(167,0,l),
(167,1045,l),
(410,1045,l),
(410,956,l),
(542,1065,o),
(692,1065,q),
(856,1065,o),
(954,953.5,q),
(1052,842,o),
(1052,660,q),
(1052,262,l),
(1052,93,o),
(1057,59,q),
(1062,25,o),
(1070.5,15,q),
(1079,5,o),
(1085,-3,q),
(1083,-7,l),
(1002,0,o),
(965,0,q),
(895,0,l),
(863,0,o),
(809,-3,q),
(809,542,l),
(809,835,o),
(631,835,q),
(499,835,o),
(410,699,q),
(410,128,l)
);
},
{
closed = 1;
nodes = (
(389,1280,o),
(316,1205,q),
(312,1206,l),
(308,1405,l),
(376,1485,o),
(493,1485,q),
(585,1485,o),
(664,1430.5,q),
(743,1376,o),
(827,1376,q),
(946,1376,o),
(983,1460,q),
(985,1458,l),
(975,1242,l),
(958,1212,o),
(914,1192.5,q),
(870,1173,o),
(822,1173,q),
(774,1173,o),
(744.5,1181,q),
(715,1189,o),
(690,1201,q),
(665,1213,o),
(643.5,1226.5,q),
(622,1240,o),
(598,1252,q),
(542,1280,o),
(483,1280,q)
);
}
);
width = 1197;
}
);
unicode = 241;
},
{
category = Letter;
glyphname = ograve;
layers = (
{
layerId = "4de0c4ad-9814-44bf-ac31-cb508b764638";
name = Fore;
shapes = (
{
closed = 1;
nodes = (
(71,627,o),
(108.5,727.5,q),
(146,828,o),
(216,903,q),
(369,1065,o),
(613,1065,q),
(856,1065,o),
(999,912,q),
(1136,766,o),
(1136,533,q),
(1136,300,o),
(995,147,q),
(846,-15,o),
(600,-15,q),
(346,-15,o),
(202,144,q),
(71,289,o),
(71,517,q)
);
},
{
closed = 1;
nodes = (
(314,460,o),
(335,401,q),
(356,342,o),
(395,300,q),
(478,209,o),
(613,209,q),
(738,209,o),
(810,298,q),
(880,384,o),
(880,522,q),
(880,662,o),
(808,748,q),
(731,840,o),
(597,840,q),
(461,840,o),
(384,742,q),
(314,652,o),
(314,523,q)
);
},
{
closed = 1;
nodes = (
(464,1503,o),
(614,1503,q),
(783,1190,l),
(557,1190,l),
(295,1513,l),
(294,1520,l)
);
}
);
width = 1197;
}
);
unicode = 242;
},
{
category = Letter;
glyphname = oacute;
layers = (
{
layerId = "4de0c4ad-9814-44bf-ac31-cb508b764638";
name = Fore;
shapes = (
{
closed = 1;
nodes = (
(71,627,o),
(108.5,727.5,q),
(146,828,o),
(216,903,q),
(369,1065,o),
(613,1065,q),
(856,1065,o),
(999,912,q),
(1136,766,o),
(1136,533,q),
(1136,300,o),
(995,147,q),
(846,-15,o),
(600,-15,q),
(346,-15,o),
(202,144,q),
(71,289,o),
(71,517,q)
);
},
{
closed = 1;
nodes = (
(314,460,o),
(335,401,q),
(356,342,o),
(395,300,q),
(478,209,o),
(613,209,q),
(738,209,o),
(810,298,q),
(880,384,o),
(880,522,q),
(880,662,o),
(808,748,q),
(731,840,o),
(597,840,q),
(461,840,o),
(384,742,q),
(314,652,o),
(314,523,q)
);
},
{
closed = 1;
nodes = (
(733,1503,o),
(903,1520,q),
(902,1513,l),
(640,1190,l),
(414,1190,l),
(583,1503,l)
);
}
);
width = 1197;
}
);
unicode = 243;
},
{
category = Letter;
glyphname = ocircumflex;
layers = (
{
layerId = "4de0c4ad-9814-44bf-ac31-cb508b764638";
name = Fore;
shapes = (
{
closed = 1;
nodes = (
(71,627,o),
(108.5,727.5,q),
(146,828,o),
(216,903,q),
(369,1065,o),
(613,1065,q),
(856,1065,o),
(999,912,q),
(1136,766,o),
(1136,533,q),
(1136,300,o),
(995,147,q),
(846,-15,o),
(600,-15,q),
(346,-15,o),
(202,144,q),
(71,289,o),
(71,517,q)
);
},
{
closed = 1;
nodes = (
(314,460,o),
(335,401,q),
(356,342,o),
(395,300,q),
(478,209,o),
(613,209,q),
(738,209,o),
(810,298,q),
(880,384,o),
(880,522,q),
(880,662,o),
(808,748,q),
(731,840,o),
(597,840,q),
(461,840,o),
(384,742,q),
(314,652,o),
(314,523,q)
);
},
{
closed = 1;
nodes = (
(282,1188,o),
(234,1185,q),
(231,1188,l),
(473,1519,l),
(497,1516,o),
(539,1516,q),
(590,1516,l),
(711,1519,l),
(966,1188,l),
(962,1185,l),
(707,1188,l),
(594,1365,l),
(497,1188,l)
);
}
);
width = 1197;
}
);
unicode = 244;
},
{
category = Letter;
glyphname = otilde;
layers = (
{
layerId = "4de0c4ad-9814-44bf-ac31-cb508b764638";
name = Fore;
shapes = (
{
closed = 1;
nodes = (
(71,627,o),
(108.5,727.5,q),
(146,828,o),
(216,903,q),
(369,1065,o),
(613,1065,q),
(856,1065,o),
(999,912,q),
(1136,766,o),
(1136,533,q),
(1136,300,o),
(995,147,q),
(846,-15,o),
(600,-15,q),
(346,-15,o),
(202,144,q),
(71,289,o),
(71,517,q)
);
},
{
closed = 1;
nodes = (
(314,460,o),
(335,401,q),
(356,342,o),
(395,300,q),
(478,209,o),
(613,209,q),
(738,209,o),
(810,298,q),
(880,384,o),
(880,522,q),
(880,662,o),
(808,748,q),
(731,840,o),
(597,840,q),
(461,840,o),
(384,742,q),
(314,652,o),
(314,523,q)
);
},
{
closed = 1;
nodes = (
(341,1280,o),
(268,1205,q),
(264,1206,l),
(260,1405,l),
(328,1485,o),
(445,1485,q),
(537,1485,o),
(616,1430.5,q),
(695,1376,o),
(779,1376,q),
(898,1376,o),
(935,1460,q),
(937,1458,l),
(927,1242,l),
(910,1212,o),
(866,1192.5,q),
(822,1173,o),
(774,1173,q),
(726,1173,o),
(696.5,1181,q),
(667,1189,o),
(642,1201,q),
(617,1213,o),
(595.5,1226.5,q),
(574,1240,o),
(550,1252,q),
(494,1280,o),
(435,1280,q)
);
}
);
width = 1197;
}
);
unicode = 245;
},
{
category = Letter;
glyphname = odieresis;
layers = (
{
layerId = "4de0c4ad-9814-44bf-ac31-cb508b764638";
name = Fore;
shapes = (
{
closed = 1;
nodes = (
(71,627,o),
(108.5,727.5,q),
(146,828,o),
(216,903,q),
(369,1065,o),
(613,1065,q),
(856,1065,o),
(999,912,q),
(1136,766,o),
(1136,533,q),
(1136,300,o),
(995,147,q),
(846,-15,o),
(600,-15,q),
(346,-15,o),
(202,144,q),
(71,289,o),
(71,517,q)
);
},
{
closed = 1;
nodes = (
(314,460,o),
(335,401,q),
(356,342,o),
(395,300,q),
(478,209,o),
(613,209,q),
(738,209,o),
(810,298,q),
(880,384,o),
(880,522,q),
(880,662,o),
(808,748,q),
(731,840,o),
(597,840,q),
(461,840,o),
(384,742,q),
(314,652,o),
(314,523,q)
);
},
{
closed = 1;
nodes = (
(942,1380,o),
(942,1302.5,q),
(942,1225,o),
(946,1190,q),
(681,1190,l),
(689,1252,o),
(689,1312.5,q),
(689,1373,o),
(683,1430,q),
(946,1430,l)
);
},
{
closed = 1;
nodes = (
(512,1380,o),
(512,1302.5,q),
(512,1225,o),
(516,1190,q),
(251,1190,l),
(259,1252,o),
(259,1312.5,q),
(259,1373,o),
(253,1430,q),
(516,1430,l)
);
}
);
width = 1197;
}
);
unicode = 246;
},
{
category = Letter;
glyphname = divide;
layers = (
{
layerId = "4de0c4ad-9814-44bf-ac31-cb508b764638";
name = Fore;
shapes = (
{
closed = 1;
nodes = (
(825,1026,o),
(825,973.5,q),
(825,921,o),
(830,885,q),
(538,885,l),
(547,946,o),
(547,993,q),
(547,1040,o),
(546.5,1057.5,q),
(546,1075,o),
(545,1092,q),
(544,1109,o),
(542,1124,q),
(540,1149,l),
(830,1149,l),
(827,1111,o),
(827,1087,q),
(826,1044,l)
);
},
{
closed = 1;
nodes = (
(275,500,o),
(227,495,q),
(230,742,l),
(252,736,o),
(362,736,q),
(1001,736,l),
(1110,736,o),
(1133,742,q),
(1136,495,l),
(1088,500,o),
(1012,500,q),
(351,500,l)
);
},
{
closed = 1;
nodes = (
(825,238,o),
(825,185.5,q),
(825,133,o),
(830,97,q),
(538,97,l),
(547,158,o),
(547,205,q),
(547,252,o),
(546.5,269.5,q),
(546,287,o),
(545,304,q),
(544,321,o),
(542,336,q),
(540,361,l),
(830,361,l),
(827,323,o),
(827,299,q),
(826,256,l)
);
}
);
width = 1364;
}
);
unicode = 247;
},
{
category = Letter;
glyphname = oslash;
layers = (
{
layerId = "4de0c4ad-9814-44bf-ac31-cb508b764638";
name = Fore;
shapes = (
{
closed = 1;
nodes = (
(727,-15,o),
(611,-15,q),
(495,-15,o),
(401,15,q),
(299,-170,l),
(123,-170,l),
(264,87,l),
(71,236,o),
(71,512,q),
(71,748,o),
(216,903,q),
(369,1065,o),
(613,1065,q),
(705,1065,o),
(788,1040,q),
(871,1190,l),
(1047,1190,l),
(928,973,l),
(1029,902,o),
(1082.5,788,q),
(1136,674,o),
(1136,547.5,q),
(1136,421,o),
(1100,321.5,q),
(1064,222,o),
(995,147,q),
(926,72,o),
(826.5,28.5,q)
);
},
{
closed = 1;
nodes = (
(638,840,o),
(582,840,q),
(526,840,o),
(472.5,813,q),
(419,786,o),
(384,742,q),
(314,652,o),
(314,529,q),
(314,397,o),
(387,309,q),
(673,831,l)
);
},
{
closed = 1;
nodes = (
(562,209,o),
(619,209,q),
(676,209,o),
(726,232.5,q),
(776,256,o),
(810,298,q),
(880,384,o),
(880,522,q),
(880,664,o),
(805,751,q),
(515,223,l)
);
}
);
width = 1197;
}
);
unicode = 248;
},
{
category = Letter;
glyphname = ugrave;
layers = (
{
layerId = "4de0c4ad-9814-44bf-ac31-cb508b764638";
name = Fore;
shapes = (
{
closed = 1;
nodes = (
(645,-15,o),
(494,-15,q),
(332,-15,o),
(240,94,q),
(152,200,o),
(152,385,q),
(152,782,l),
(152,982,o),
(143.5,1011.5,q),
(135,1041,o),
(131,1049,q),
(177,1045,o),
(227,1045,q),
(310,1045,l),
(343,1045,o),
(397,1048,q),
(397,469,l),
(397,263,o),
(509,230,q),
(543,220,o),
(583,220,q),
(701,220,o),
(773,306,q),
(773,1045,l),
(1021,1045,l),
(1021,128,l),
(1021,40,o),
(1029,0,q),
(773,0,l),
(773,91,l)
);
},
{
closed = 1;
nodes = (
(436,1503,o),
(586,1503,q),
(755,1190,l),
(529,1190,l),
(267,1513,l),
(266,1520,l)
);
}
);
width = 1193;
}
);
unicode = 249;
},
{
category = Letter;
glyphname = uacute;
layers = (
{
layerId = "4de0c4ad-9814-44bf-ac31-cb508b764638";
name = Fore;
shapes = (
{
closed = 1;
nodes = (
(645,-15,o),
(494,-15,q),
(332,-15,o),
(240,94,q),
(152,200,o),
(152,385,q),
(152,782,l),
(152,982,o),
(143.5,1011.5,q),
(135,1041,o),
(131,1049,q),
(177,1045,o),
(227,1045,q),
(310,1045,l),
(343,1045,o),
(397,1048,q),
(397,469,l),
(397,263,o),
(509,230,q),
(543,220,o),
(583,220,q),
(701,220,o),
(773,306,q),
(773,1045,l),
(1021,1045,l),
(1021,128,l),
(1021,40,o),
(1029,0,q),
(773,0,l),
(773,91,l)
);
},
{
closed = 1;
nodes = (
(705,1503,o),
(875,1520,q),
(874,1513,l),
(612,1190,l),
(386,1190,l),
(555,1503,l)
);
}
);
width = 1193;
}
);
unicode = 250;
},
{
category = Letter;
glyphname = ucircumflex;
layers = (
{
layerId = "4de0c4ad-9814-44bf-ac31-cb508b764638";
name = Fore;
shapes = (
{
closed = 1;
nodes = (
(645,-15,o),
(494,-15,q),
(332,-15,o),
(240,94,q),
(152,200,o),
(152,385,q),
(152,782,l),
(152,982,o),
(143.5,1011.5,q),
(135,1041,o),
(131,1049,q),
(177,1045,o),
(227,1045,q),
(310,1045,l),
(343,1045,o),
(397,1048,q),
(397,469,l),
(397,263,o),
(509,230,q),
(543,220,o),
(583,220,q),
(701,220,o),
(773,306,q),
(773,1045,l),
(1021,1045,l),
(1021,128,l),
(1021,40,o),
(1029,0,q),
(773,0,l),
(773,91,l)
);
},
{
closed = 1;
nodes = (
(254,1188,o),
(206,1185,q),
(203,1188,l),
(445,1519,l),
(469,1516,o),
(511,1516,q),
(562,1516,l),
(683,1519,l),
(938,1188,l),
(934,1185,l),
(679,1188,l),
(566,1365,l),
(469,1188,l)
);
}
);
width = 1193;
}
);
unicode = 251;
},
{
category = Letter;
glyphname = udieresis;
layers = (
{
layerId = "4de0c4ad-9814-44bf-ac31-cb508b764638";
name = Fore;
shapes = (
{
closed = 1;
nodes = (
(645,-15,o),
(494,-15,q),
(332,-15,o),
(240,94,q),
(152,200,o),
(152,385,q),
(152,782,l),
(152,982,o),
(143.5,1011.5,q),
(135,1041,o),
(131,1049,q),
(177,1045,o),
(227,1045,q),
(310,1045,l),
(343,1045,o),
(397,1048,q),
(397,469,l),
(397,263,o),
(509,230,q),
(543,220,o),
(583,220,q),
(701,220,o),
(773,306,q),
(773,1045,l),
(1021,1045,l),
(1021,128,l),
(1021,40,o),
(1029,0,q),
(773,0,l),
(773,91,l)
);
},
{
closed = 1;
nodes = (
(914,1380,o),
(914,1302.5,q),
(914,1225,o),
(918,1190,q),
(653,1190,l),
(661,1252,o),
(661,1312.5,q),
(661,1373,o),
(655,1430,q),
(918,1430,l)
);
},
{
closed = 1;
nodes = (
(484,1380,o),
(484,1302.5,q),
(484,1225,o),
(488,1190,q),
(223,1190,l),
(231,1252,o),
(231,1312.5,q),
(231,1373,o),
(225,1430,q),
(488,1430,l)
);
}
);
width = 1193;
}
);
unicode = 252;
},
{
category = Letter;
glyphname = yacute;
layers = (
{
layerId = "4de0c4ad-9814-44bf-ac31-cb508b764638";
name = Fore;
shapes = (
{
closed = 1;
nodes = (
(117,-295,l),
(266,-174,o),
(364,62,q),
(410,173,l),
(27,1045,l),
(307,1045,l),
(547,441,l),
(770,1045,l),
(1058,1045,l),
(1006,973,o),
(931,777,q),
(781,406,l),
(480,-302,o),
(309,-438,q),
(51,-348,l)
);
},
{
closed = 1;
nodes = (
(704,1503,o),
(874,1520,q),
(873,1513,l),
(611,1190,l),
(385,1190,l),
(554,1503,l)
);
}
);
width = 1025;
}
);
unicode = 253;
},
{
category = Letter;
glyphname = thorn;
layers = (
{
layerId = "4de0c4ad-9814-44bf-ac31-cb508b764638";
name = Fore;
shapes = (
{
closed = 1;
nodes = (
(668,-18,o),
(579,-18,q),
(490,-18,o),
(407,19,q),
(407,-273,l),
(407,-359,o),
(411,-385,q),
(162,-385,l),
(162,1430,l),
(411,1430,l),
(407,1404,o),
(407,1318,q),
(407,1005,l),
(519,1065,o),
(629.5,1065,q),
(740,1065,o),
(826.5,1033,q),
(913,1001,o),
(980,936,q),
(1125,792,o),
(1125,536,q),
(1125,283,o),
(950,124,q),
(849,32,o),
(726,-2,q)
);
},
{
closed = 1;
nodes = (
(488,220,o),
(594,220,q),
(720,220,o),
(798,308,q),
(880,399,o),
(880,552,q),
(880,749,o),
(722,814,q),
(671,835,o),
(617,835,q),
(563,835,o),
(505,811.5,q),
(447,788,o),
(407,746,q),
(407,293,l)
);
}
);
width = 1193;
}
);
unicode = 254;
},
{
category = Letter;
glyphname = ydieresis;
layers = (
{
layerId = "4de0c4ad-9814-44bf-ac31-cb508b764638";
name = Fore;
shapes = (
{
closed = 1;
nodes = (
(117,-295,l),
(266,-174,o),
(364,62,q),
(410,173,l),
(27,1045,l),
(307,1045,l),
(547,441,l),
(770,1045,l),
(1058,1045,l),
(1006,973,o),
(931,777,q),
(781,406,l),
(480,-302,o),
(309,-438,q),
(51,-348,l)
);
},
{
closed = 1;
nodes = (
(913,1380,o),
(913,1302.5,q),
(913,1225,o),
(917,1190,q),
(652,1190,l),
(660,1252,o),
(660,1312.5,q),
(660,1373,o),
(654,1430,q),
(917,1430,l)
);
},
{
closed = 1;
nodes = (
(483,1380,o),
(483,1302.5,q),
(483,1225,o),
(487,1190,q),
(222,1190,l),
(230,1252,o),
(230,1312.5,q),
(230,1373,o),
(224,1430,q),
(487,1430,l)
);
}
);
width = 1025;
}
);
unicode = 255;
},
{
category = Letter;
glyphname = Amacron;
layers = (
{
layerId = "4de0c4ad-9814-44bf-ac31-cb508b764638";
name = Fore;
shapes = (
{
closed = 1;
nodes = (
(183,0,o),
(68,0,q),
(-11,0,l),
(424,1219,l),
(453,1301,o),
(453,1314.5,q),
(453,1328,o),
(452,1331,q),
(453,1333,l),
(518,1330,o),
(591,1330,q),
(651,1330,o),
(735,1332,q),
(736,1330,l),
(734,1326,o),
(734,1319,q),
(734,1300,o),
(764,1218,q),
(1208,-3,l),
(1188,-2,o),
(1161,-2,q),
(1161,-2,o),
(1109,0,q),
(1084,0,o),
(1064,0,q),
(909,0,l),
(815,288,l),
(363,288,l),
(269,-8,l)
);
},
{
closed = 1;
nodes = (
(586,993,l),
(439,528,l),
(737,528,l)
);
},
{
closed = 1;
nodes = (
(938,1650,o),
(938,1624,q),
(938,1590,l),
(938,1582,o),
(942,1530,q),
(267,1530,l),
(270,1556,l),
(275,1589,o),
(275,1616,q),
(275,1643,o),
(269,1700,q),
(942,1700,l)
);
}
);
width = 1197;
}
);
unicode = 256;
},
{
category = Letter;
glyphname = amacron;
layers = (
{
layerId = "4de0c4ad-9814-44bf-ac31-cb508b764638";
name = Fore;
shapes = (
{
closed = 1;
nodes = (
(695,-15,o),
(580,-15,q),
(465,-15,o),
(383,6.5,q),
(301,28,o),
(244,70,q),
(128,155,o),
(128,316,q),
(128,460,o),
(270,556,q),
(424,660,o),
(688,660,q),
(728,659,l),
(740,658,o),
(755,657.5,q),
(770,657,o),
(782,655,q),
(774,815,o),
(644,842,q),
(601,851,o),
(552.5,851,q),
(504,851,o),
(457.5,842.5,q),
(411,834,o),
(367,820,q),
(270,789,o),
(228,749,q),
(225,751,l),
(195,972,l),
(372,1065,o),
(582,1065,q),
(908,1065,o),
(999,830,q),
(1028,755,o),
(1028,661,q),
(1028,299,l),
(1028,183,o),
(1110,141,q),
(929,-25,l),
(872,5,o),
(837,62,q)
);
},
{
closed = 1;
nodes = (
(756,480,o),
(727,480,q),
(687,480,l),
(466,480,o),
(406,382,q),
(388,353,o),
(388,321,q),
(388,289,o),
(399.5,264.5,q),
(411,240,o),
(438,224,q),
(490,194,o),
(592.5,194,q),
(695,194,o),
(784,243,q),
(783,254,o),
(783,266,q),
(783,475,l)
);
},
{
closed = 1;
nodes = (
(918,1473,o),
(918,1447,q),
(918,1413,l),
(918,1405,o),
(922,1353,q),
(247,1353,l),
(250,1379,l),
(255,1412,o),
(255,1439,q),
(255,1466,o),
(249,1523,q),
(922,1523,l)
);
}
);
width = 1193;
}
);
unicode = 257;
},
{
category = Letter;
glyphname = Abreve;
layers = (
{
layerId = "4de0c4ad-9814-44bf-ac31-cb508b764638";
name = Fore;
shapes = (
{
closed = 1;
nodes = (
(183,0,o),
(68,0,q),
(-11,0,l),
(424,1219,l),
(453,1301,o),
(453,1314.5,q),
(453,1328,o),
(452,1331,q),
(453,1333,l),
(518,1330,o),
(591,1330,q),
(651,1330,o),
(735,1332,q),
(736,1330,l),
(734,1326,o),
(734,1319,q),
(734,1300,o),
(764,1218,q),
(1208,-3,l),
(1188,-2,o),
(1161,-2,q),
(1161,-2,o),
(1109,0,q),
(1084,0,o),
(1064,0,q),
(909,0,l),
(815,288,l),
(363,288,l),
(269,-8,l)
);
},
{
closed = 1;
nodes = (
(586,993,l),
(439,528,l),
(737,528,l)
);
},
{
closed = 1;
nodes = (
(953,1796,o),
(953,1738,q),
(953,1680,o),
(932.5,1623.5,q),
(912,1567,o),
(869,1522,q),
(772,1421,o),
(598,1421,q),
(424,1421,o),
(327,1522,q),
(243,1610,o),
(243,1737,q),
(243,1796,o),
(253,1806,q),
(386,1803,l),
(396,1724,o),
(423,1686,q),
(482,1602,o),
(598,1602,q),
(714,1602,o),
(769,1680,q),
(800,1724,o),
(810,1803,q),
(943,1806,l)
);
}
);
width = 1197;
}
);
unicode = 258;
},
{
category = Letter;
glyphname = abreve;
layers = (
{
layerId = "4de0c4ad-9814-44bf-ac31-cb508b764638";
name = Fore;
shapes = (
{
closed = 1;
nodes = (
(695,-15,o),
(580,-15,q),
(465,-15,o),
(383,6.5,q),
(301,28,o),
(244,70,q),
(128,155,o),
(128,316,q),
(128,460,o),
(270,556,q),
(424,660,o),
(688,660,q),
(728,659,l),
(740,658,o),
(755,657.5,q),
(770,657,o),
(782,655,q),
(774,815,o),
(644,842,q),
(601,851,o),
(552.5,851,q),
(504,851,o),
(457.5,842.5,q),
(411,834,o),
(367,820,q),
(270,789,o),
(228,749,q),
(225,751,l),
(195,972,l),
(372,1065,o),
(582,1065,q),
(908,1065,o),
(999,830,q),
(1028,755,o),
(1028,661,q),
(1028,299,l),
(1028,183,o),
(1110,141,q),
(929,-25,l),
(872,5,o),
(837,62,q)
);
},
{
closed = 1;
nodes = (
(756,480,o),
(727,480,q),
(687,480,l),
(466,480,o),
(406,382,q),
(388,353,o),
(388,321,q),
(388,289,o),
(399.5,264.5,q),
(411,240,o),
(438,224,q),
(490,194,o),
(592.5,194,q),
(695,194,o),
(784,243,q),
(783,254,o),
(783,266,q),
(783,475,l)
);
},
{
closed = 1;
nodes = (
(939,1600,o),
(939,1542,q),
(939,1484,o),
(918.5,1427.5,q),
(898,1371,o),
(855,1326,q),
(758,1225,o),
(584,1225,q),
(410,1225,o),
(313,1326,q),
(229,1414,o),
(229,1541,q),
(229,1600,o),
(239,1610,q),
(372,1607,l),
(382,1528,o),
(409,1490,q),
(468,1406,o),
(584,1406,q),
(700,1406,o),
(755,1484,q),
(786,1528,o),
(796,1607,q),
(929,1610,l)
);
}
);
width = 1193;
}
);
unicode = 259;
},
{
category = Letter;
glyphname = Aogonek;
layers = (
{
layerId = "4de0c4ad-9814-44bf-ac31-cb508b764638";
name = Fore;
shapes = (
{
closed = 1;
nodes = (
(183,0,o),
(68,0,q),
(-11,0,l),
(424,1219,l),
(453,1301,o),
(453,1314.5,q),
(453,1328,o),
(452,1331,q),
(453,1333,l),
(518,1330,o),
(591,1330,q),
(651,1330,o),
(735,1332,q),
(736,1330,l),
(734,1326,o),
(734,1319,q),
(734,1300,o),
(764,1218,q),
(1208,-3,l),
(1100,-3,o),
(1022,-72,q),
(949,-137,o),
(949,-218,q),
(949,-323,o),
(1140,-323,q),
(1177,-323,o),
(1199,-307,q),
(1201,-312,l),
(1097,-555,l),
(831,-555,o),
(738,-393,q),
(704,-334,o),
(704,-246,q),
(704,-143,o),
(796,-39,q),
(834,3,o),
(895,42,q),
(815,288,l),
(363,288,l),
(269,-8,l)
);
},
{
closed = 1;
nodes = (
(586,993,l),
(439,528,l),
(737,528,l)
);
}
);
width = 1197;
}
);
unicode = 260;
},
{
category = Letter;
glyphname = aogonek;
layers = (
{
layerId = "4de0c4ad-9814-44bf-ac31-cb508b764638";
name = Fore;
shapes = (
{
closed = 1;
nodes = (
(628,-15,o),
(546.5,-15,q),
(465,-15,o),
(383,6.5,q),
(301,28,o),
(244,70,q),
(128,155,o),
(128,316,q),
(128,460,o),
(270,556,q),
(424,660,o),
(688,660,q),
(728,659,l),
(740,658,o),
(755,657.5,q),
(770,657,o),
(782,655,q),
(774,815,o),
(644,842,q),
(601,851,o),
(552.5,851,q),
(504,851,o),
(457.5,842.5,q),
(411,834,o),
(367,820,q),
(270,789,o),
(228,749,q),
(225,751,l),
(195,972,l),
(372,1065,o),
(582,1065,q),
(908,1065,o),
(999,830,q),
(1028,755,o),
(1028,661,q),
(1028,299,l),
(1028,183,o),
(1110,141,q),
(929,-25,l),
(872,5,o),
(837,62,q),
(773,28,o),
(705,7,q),
(750,52,o),
(814,92,q),
(1029,141,l),
(1110,141,l),
(968,11,l),
(866,-83,o),
(841.5,-132.5,q),
(817,-182,o),
(817,-218,q),
(817,-323,o),
(1008,-323,q),
(1045,-323,o),
(1067,-307,q),
(1069,-312,l),
(965,-555,l),
(699,-555,o),
(606,-393,q),
(572,-334,o),
(572,-246,q),
(572,-173,o),
(642,-68,q),
(668,-30,o),
(705,7,q)
);
},
{
closed = 1;
nodes = (
(756,480,o),
(727,480,q),
(687,480,l),
(466,480,o),
(406,382,q),
(388,353,o),
(388,321,q),
(388,289,o),
(399.5,264.5,q),
(411,240,o),
(438,224,q),
(490,194,o),
(592.5,194,q),
(695,194,o),
(784,243,q),
(783,254,o),
(783,266,q),
(783,475,l)
);
}
);
width = 1193;
}
);
unicode = 261;
},
{
category = Letter;
glyphname = Cacute;
layers = (
{
layerId = "4de0c4ad-9814-44bf-ac31-cb508b764638";
name = Fore;
shapes = (
{
closed = 1;
nodes = (
(955,1355,o),
(1087,1290,q),
(1087,984,l),
(1085,982,l),
(1029,1068,o),
(849,1096,q),
(796,1105,o),
(715,1105,q),
(634,1105,o),
(556,1074.5,q),
(478,1044,o),
(428,988,q),
(331,879,o),
(331,677,q),
(331,442,o),
(454,327,q),
(556,231,o),
(724,231,q),
(914,231,o),
(1032,312,q),
(1075,341,o),
(1105,384,q),
(1108,382,l),
(1108,102,l),
(955,-25,o),
(696,-25,q),
(391,-25,o),
(218,169,q),
(52,354,o),
(52,659,q),
(52,982,o),
(234,1168,q),
(418,1355,o),
(768,1355,q)
);
},
{
closed = 1;
nodes = (
(744,1788,o),
(914,1805,q),
(913,1798,l),
(651,1475,l),
(425,1475,l),
(594,1788,l)
);
}
);
width = 1188;
}
);
unicode = 262;
},
{
category = Letter;
glyphname = cacute;
layers = (
{
layerId = "4de0c4ad-9814-44bf-ac31-cb508b764638";
name = Fore;
shapes = (
{
closed = 1;
nodes = (
(852,-15,o),
(613,-15,q),
(381,-15,o),
(234,126,q),
(85,269,o),
(85,506,q),
(85,747,o),
(232,902,q),
(388,1065,o),
(649,1065,q),
(834,1065,o),
(959,984,q),
(919,728,l),
(912,729,l),
(864,787,o),
(811,805,q),
(725,835,o),
(639,835,q),
(553,835,o),
(504,813,q),
(455,791,o),
(420,752,q),
(350,672,o),
(350,540,q),
(350,306,o),
(512,234,q),
(568,210,o),
(630.5,210,q),
(693,210,o),
(739.5,221,q),
(786,232,o),
(824,251,q),
(905,291,o),
(934,344,q),
(941,341,l),
(964,97,l)
);
},
{
closed = 1;
nodes = (
(722,1503,o),
(892,1520,q),
(891,1513,l),
(629,1190,l),
(403,1190,l),
(572,1503,l)
);
}
);
width = 1026;
}
);
unicode = 263;
},
{
category = Letter;
glyphname = Ccircumflex;
layers = (
{
layerId = "4de0c4ad-9814-44bf-ac31-cb508b764638";
name = Fore;
shapes = (
{
closed = 1;
nodes = (
(955,1355,o),
(1087,1290,q),
(1087,984,l),
(1085,982,l),
(1029,1068,o),
(849,1096,q),
(796,1105,o),
(715,1105,q),
(634,1105,o),
(556,1074.5,q),
(478,1044,o),
(428,988,q),
(331,879,o),
(331,677,q),
(331,442,o),
(454,327,q),
(556,231,o),
(724,231,q),
(914,231,o),
(1032,312,q),
(1075,341,o),
(1105,384,q),
(1108,382,l),
(1108,102,l),
(955,-25,o),
(696,-25,q),
(391,-25,o),
(218,169,q),
(52,354,o),
(52,659,q),
(52,982,o),
(234,1168,q),
(418,1355,o),
(768,1355,q)
);
},
{
closed = 1;
nodes = (
(353,1473,o),
(305,1470,q),
(302,1473,l),
(544,1804,l),
(568,1801,o),
(610,1801,q),
(661,1801,l),
(782,1804,l),
(1037,1473,l),
(1033,1470,l),
(778,1473,l),
(665,1650,l),
(568,1473,l)
);
}
);
width = 1188;
}
);
unicode = 264;
},
{
category = Letter;
glyphname = ccircumflex;
layers = (
{
layerId = "4de0c4ad-9814-44bf-ac31-cb508b764638";
name = Fore;
shapes = (
{
closed = 1;
nodes = (
(852,-15,o),
(613,-15,q),
(381,-15,o),
(234,126,q),
(85,269,o),
(85,506,q),
(85,747,o),
(232,902,q),
(388,1065,o),
(649,1065,q),
(834,1065,o),
(959,984,q),
(919,728,l),
(912,729,l),
(864,787,o),
(811,805,q),
(725,835,o),
(639,835,q),
(553,835,o),
(504,813,q),
(455,791,o),
(420,752,q),
(350,672,o),
(350,540,q),
(350,306,o),
(512,234,q),
(568,210,o),
(630.5,210,q),
(693,210,o),
(739.5,221,q),
(786,232,o),
(824,251,q),
(905,291,o),
(934,344,q),
(941,341,l),
(964,97,l)
);
},
{
closed = 1;
nodes = (
(271,1188,o),
(223,1185,q),
(220,1188,l),
(462,1519,l),
(486,1516,o),
(528,1516,q),
(579,1516,l),
(700,1519,l),
(955,1188,l),
(951,1185,l),
(696,1188,l),
(583,1365,l),
(486,1188,l)
);
}
);
width = 1026;
}
);
unicode = 265;
},
{
category = Letter;
glyphname = Cdotaccent;
layers = (
{
layerId = "4de0c4ad-9814-44bf-ac31-cb508b764638";
name = Fore;
shapes = (
{
closed = 1;
nodes = (
(955,1355,o),
(1087,1290,q),
(1087,984,l),
(1085,982,l),
(1029,1068,o),
(849,1096,q),
(796,1105,o),
(715,1105,q),
(634,1105,o),
(556,1074.5,q),
(478,1044,o),
(428,988,q),
(331,879,o),
(331,677,q),
(331,442,o),
(454,327,q),
(556,231,o),
(724,231,q),
(914,231,o),
(1032,312,q),
(1075,341,o),
(1105,384,q),
(1108,382,l),
(1108,102,l),
(955,-25,o),
(696,-25,q),
(391,-25,o),
(218,169,q),
(52,354,o),
(52,659,q),
(52,982,o),
(234,1168,q),
(418,1355,o),
(768,1355,q)
);
},
{
closed = 1;
nodes = (
(564,1722,o),
(648,1814,q),
(839,1663,l),
(789,1599,o),
(771,1575,q),
(736,1526,l),
(719,1503,o),
(700,1474,q),
(499,1618,l)
);
}
);
width = 1188;
}
);
unicode = 266;
},
{
category = Letter;
glyphname = cdotaccent;
layers = (
{
layerId = "4de0c4ad-9814-44bf-ac31-cb508b764638";
name = Fore;
shapes = (
{
closed = 1;
nodes = (
(852,-15,o),
(613,-15,q),
(381,-15,o),
(234,126,q),
(85,269,o),
(85,506,q),
(85,747,o),
(232,902,q),
(388,1065,o),
(649,1065,q),
(834,1065,o),
(959,984,q),
(919,728,l),
(912,729,l),
(864,787,o),
(811,805,q),
(725,835,o),
(639,835,q),
(553,835,o),
(504,813,q),
(455,791,o),
(420,752,q),
(350,672,o),
(350,540,q),
(350,306,o),
(512,234,q),
(568,210,o),
(630.5,210,q),
(693,210,o),
(739.5,221,q),
(786,232,o),
(824,251,q),
(905,291,o),
(934,344,q),
(941,341,l),
(964,97,l)
);
},
{
closed = 1;
nodes = (
(482,1440,o),
(566,1532,q),
(757,1381,l),
(707,1317,o),
(689,1293,q),
(654,1244,l),
(637,1221,o),
(618,1192,q),
(417,1336,l)
);
}
);
width = 1026;
}
);
unicode = 267;
},
{
category = Letter;
glyphname = Ccaron;
layers = (
{
layerId = "4de0c4ad-9814-44bf-ac31-cb508b764638";
name = Fore;
shapes = (
{
closed = 1;
nodes = (
(955,1355,o),
(1087,1290,q),
(1087,984,l),
(1085,982,l),
(1029,1068,o),
(849,1096,q),
(796,1105,o),
(715,1105,q),
(634,1105,o),
(556,1074.5,q),
(478,1044,o),
(428,988,q),
(331,879,o),
(331,677,q),
(331,442,o),
(454,327,q),
(556,231,o),
(724,231,q),
(914,231,o),
(1032,312,q),
(1075,341,o),
(1105,384,q),
(1108,382,l),
(1108,102,l),
(955,-25,o),
(696,-25,q),
(391,-25,o),
(218,169,q),
(52,354,o),
(52,659,q),
(52,982,o),
(234,1168,q),
(418,1355,o),
(768,1355,q)
);
},
{
closed = 1;
nodes = (
(610,1369,l),
(568,1369,o),
(544,1366,q),
(302,1697,l),
(305,1700,l),
(353,1697,o),
(568,1697,q),
(665,1520,l),
(778,1697,l),
(1033,1700,l),
(1037,1697,l),
(782,1366,l),
(661,1369,l)
);
}
);
width = 1188;
}
);
unicode = 268;
},
{
category = Letter;
glyphname = ccaron;
layers = (
{
layerId = "4de0c4ad-9814-44bf-ac31-cb508b764638";
name = Fore;
shapes = (
{
closed = 1;
nodes = (
(852,-15,o),
(613,-15,q),
(381,-15,o),
(234,126,q),
(85,269,o),
(85,506,q),
(85,747,o),
(232,902,q),
(388,1065,o),
(649,1065,q),
(834,1065,o),
(959,984,q),
(919,728,l),
(912,729,l),
(864,787,o),
(811,805,q),
(725,835,o),
(639,835,q),
(553,835,o),
(504,813,q),
(455,791,o),
(420,752,q),
(350,672,o),
(350,540,q),
(350,306,o),
(512,234,q),
(568,210,o),
(630.5,210,q),
(693,210,o),
(739.5,221,q),
(786,232,o),
(824,251,q),
(905,291,o),
(934,344,q),
(941,341,l),
(964,97,l)
);
},
{
closed = 1;
nodes = (
(528,1188,l),
(486,1188,o),
(462,1185,q),
(220,1516,l),
(223,1519,l),
(271,1516,o),
(486,1516,q),
(583,1339,l),
(696,1516,l),
(951,1519,l),
(955,1516,l),
(700,1185,l),
(579,1188,l)
);
}
);
width = 1026;
}
);
unicode = 269;
},
{
category = Letter;
glyphname = Dcaron;
layers = (
{
layerId = "4de0c4ad-9814-44bf-ac31-cb508b764638";
name = Fore;
shapes = (
{
closed = 1;
nodes = (
(334,-25,o),
(191,1,q),
(191,1339,l),
(323,1355,o),
(497.5,1355,q),
(672,1355,o),
(813.5,1307.5,q),
(955,1260,o),
(1050,1172,q),
(1242,996,o),
(1242,679,q),
(1242,324,o),
(1028,140,q),
(836,-25,o),
(496,-25,q)
);
},
{
closed = 1;
nodes = (
(516,207,o),
(581,207,q),
(646,207,o),
(721,232.5,q),
(796,258,o),
(851,312,q),
(969,426,o),
(969,644,q),
(969,1002,o),
(708,1084,q),
(622,1111,o),
(509,1111,q),
(482,1111,l),
(467,1111,o),
(451,1110,q),
(451,219,l)
);
},
{
closed = 1;
nodes = (
(661,1369,l),
(619,1369,o),
(595,1366,q),
(353,1697,l),
(356,1700,l),
(404,1697,o),
(619,1697,q),
(716,1520,l),
(829,1697,l),
(1084,1700,l),
(1088,1697,l),
(833,1366,l),
(712,1369,l)
);
}
);
width = 1364;
}
);
unicode = 270;
},
{
category = Letter;
glyphname = dcaron;
layers = (
{
layerId = "4de0c4ad-9814-44bf-ac31-cb508b764638";
name = Fore;
shapes = (
{
closed = 1;
nodes = (
(737,-15,o),
(610,-15,q),
(483,-15,o),
(388,25,q),
(293,65,o),
(226,135,q),
(88,279,o),
(88,509,q),
(88,747,o),
(248,905,q),
(409,1065,o),
(660,1065,q),
(737,1065,o),
(811,1045,q),
(811,1490,l),
(1056,1490,l),
(1056,421,l),
(1056,288,o),
(1068.5,247,q),
(1081,206,o),
(1096.5,187,q),
(1112,168,o),
(1136,151,q),
(948,-15,l),
(896,13,o),
(864,56,q)
);
},
{
closed = 1;
nodes = (
(741,215,o),
(811,247,q),
(811,801,l),
(741,830,o),
(659,830,q),
(577,830,o),
(518.5,808,q),
(460,786,o),
(418,747,q),
(330,665,o),
(330,534,q),
(330,391,o),
(410,306,q),
(496,215,o),
(657,215,q)
);
},
{
closed = 1;
nodes = (
(1428,1340,o),
(1428,1286.5,q),
(1428,1233,o),
(1424.5,1183,q),
(1421,1133,o),
(1415,1093,q),
(1400,1007,o),
(1379,993,q),
(1354,977,o),
(1295,966,q),
(1184,943,l),
(1178,949,l),
(1194,977,o),
(1194,1129,q),
(1194,1228,l),
(1194,1330,o),
(1188,1405,q),
(1417,1445,l)
);
}
);
width = 1427;
}
);
unicode = 271;
},
{
category = Letter;
glyphname = Dcroat;
layers = (
{
layerId = "4de0c4ad-9814-44bf-ac31-cb508b764638";
name = Fore;
shapes = (
{
closed = 1;
nodes = (
(334,-25,o),
(191,1,q),
(191,548,l),
(92,548,l),
(92,784,l),
(191,784,l),
(191,1339,l),
(323,1355,o),
(497.5,1355,q),
(672,1355,o),
(813.5,1307.5,q),
(955,1260,o),
(1050,1172,q),
(1242,996,o),
(1242,679,q),
(1242,324,o),
(1028,140,q),
(836,-25,o),
(496,-25,q)
);
},
{
closed = 1;
nodes = (
(516,207,o),
(581,207,q),
(646,207,o),
(721,232.5,q),
(796,258,o),
(851,312,q),
(969,426,o),
(969,644,q),
(969,1002,o),
(708,1084,q),
(622,1111,o),
(509,1111,q),
(482,1111,l),
(467,1111,o),
(451,1110,q),
(451,784,l),
(751,784,l),
(751,548,l),
(451,548,l),
(451,219,l)
);
}
);
width = 1364;
}
);
unicode = 272;
},
{
category = Letter;
glyphname = dcroat;
layers = (
{
layerId = "4de0c4ad-9814-44bf-ac31-cb508b764638";
name = Fore;
shapes = (
{
closed = 1;
nodes = (
(737,-15,o),
(610,-15,q),
(483,-15,o),
(388,25,q),
(293,65,o),
(226,135,q),
(88,279,o),
(88,509,q),
(88,747,o),
(248,905,q),
(409,1065,o),
(660,1065,q),
(737,1065,o),
(811,1045,q),
(811,1171,l),
(739,1171,l),
(663,1171,o),
(615,1166,q),
(618,1353,l),
(640,1347,o),
(750,1347,q),
(811,1347,l),
(811,1490,l),
(1056,1490,l),
(1056,1347,l),
(1150,1347,o),
(1171,1353,q),
(1174,1166,l),
(1127,1171,o),
(1056,1171,q),
(1056,421,l),
(1056,288,o),
(1068.5,247,q),
(1081,206,o),
(1096.5,187,q),
(1112,168,o),
(1136,151,q),
(948,-15,l),
(896,13,o),
(864,56,q)
);
},
{
closed = 1;
nodes = (
(741,215,o),
(811,247,q),
(811,801,l),
(741,830,o),
(659,830,q),
(577,830,o),
(518.5,808,q),
(460,786,o),
(418,747,q),
(330,665,o),
(330,534,q),
(330,391,o),
(410,306,q),
(496,215,o),
(657,215,q)
);
}
);
width = 1242;
}
);
unicode = 273;
},
{
category = Letter;
glyphname = Emacron;
layers = (
{
layerId = "4de0c4ad-9814-44bf-ac31-cb508b764638";
name = Fore;
shapes = (
{
closed = 1;
nodes = (
(903,240,o),
(927,252,q),
(931,251,l),
(921,0,l),
(172,0,l),
(172,1337,l),
(199,1335,o),
(232,1334,q),
(302,1332,l),
(372,1330,o),
(454,1330,q),
(683,1330,o),
(907,1338,q),
(896,1250,o),
(896,1103,q),
(896,1087,o),
(898,1079,q),
(896,1076,l),
(844,1091,o),
(748,1091,q),
(433,1091,l),
(433,836,l),
(670,836,l),
(780,836,o),
(802,842,q),
(805,595,l),
(757,600,o),
(681,600,q),
(433,600,l),
(433,240,l),
(841,240,l)
);
},
{
closed = 1;
nodes = (
(876,1650,o),
(876,1624,q),
(876,1590,l),
(876,1582,o),
(880,1530,q),
(205,1530,l),
(208,1556,l),
(213,1589,o),
(213,1616,q),
(213,1643,o),
(207,1700,q),
(880,1700,l)
);
}
);
width = 1026;
}
);
unicode = 274;
},
{
category = Letter;
glyphname = emacron;
layers = (
{
layerId = "4de0c4ad-9814-44bf-ac31-cb508b764638";
name = Fore;
shapes = (
{
closed = 1;
nodes = (
(97,631,o),
(137,731,q),
(177,831,o),
(250,906,q),
(406,1065,o),
(658,1065,q),
(871,1065,o),
(1000,924,q),
(1127,788,o),
(1127,582,q),
(1127,503,o),
(1115,474,q),
(1015,446,o),
(708,446,q),
(356,446,l),
(382,339,o),
(477,279.5,q),
(572,220,o),
(724,220,q),
(883,220,o),
(997,277,q),
(1027,292,o),
(1042,305,q),
(1040,263,o),
(1037,219,q),
(1026,63,l),
(950,11,o),
(780,-9,q),
(730,-15,o),
(684,-15,q),
(430,-15,o),
(264,133,q),
(97,282,o),
(97,514,q)
);
},
{
closed = 1;
nodes = (
(820,855,o),
(627,855,q),
(475,855,o),
(396,724,q),
(372,684,o),
(359,636,q),
(383,635,o),
(418,634,q),
(492,634,l),
(529,633,o),
(563,633,q),
(620,633,l),
(671,633,o),
(720,634,q),
(802,637,l),
(835,638,o),
(861,640,q)
);
},
{
closed = 1;
nodes = (
(946,1473,o),
(946,1447,q),
(946,1413,l),
(946,1405,o),
(950,1353,q),
(275,1353,l),
(278,1379,l),
(283,1412,o),
(283,1439,q),
(283,1466,o),
(277,1523,q),
(950,1523,l)
);
}
);
width = 1197;
}
);
unicode = 275;
},
{
category = Letter;
glyphname = Ebreve;
layers = (
{
layerId = "4de0c4ad-9814-44bf-ac31-cb508b764638";
name = Fore;
shapes = (
{
closed = 1;
nodes = (
(903,240,o),
(927,252,q),
(931,251,l),
(921,0,l),
(172,0,l),
(172,1337,l),
(199,1335,o),
(232,1334,q),
(302,1332,l),
(372,1330,o),
(454,1330,q),
(683,1330,o),
(907,1338,q),
(896,1250,o),
(896,1103,q),
(896,1087,o),
(898,1079,q),
(896,1076,l),
(844,1091,o),
(748,1091,q),
(433,1091,l),
(433,836,l),
(670,836,l),
(780,836,o),
(802,842,q),
(805,595,l),
(757,600,o),
(681,600,q),
(433,600,l),
(433,240,l),
(841,240,l)
);
},
{
closed = 1;
nodes = (
(891,1796,o),
(891,1738,q),
(891,1680,o),
(870.5,1623.5,q),
(850,1567,o),
(807,1522,q),
(710,1421,o),
(536,1421,q),
(362,1421,o),
(265,1522,q),
(181,1610,o),
(181,1737,q),
(181,1796,o),
(191,1806,q),
(324,1803,l),
(334,1724,o),
(361,1686,q),
(420,1602,o),
(536,1602,q),
(652,1602,o),
(707,1680,q),
(738,1724,o),
(748,1803,q),
(881,1806,l)
);
}
);
width = 1026;
}
);
unicode = 276;
},
{
category = Letter;
glyphname = ebreve;
layers = (
{
layerId = "4de0c4ad-9814-44bf-ac31-cb508b764638";
name = Fore;
shapes = (
{
closed = 1;
nodes = (
(97,631,o),
(137,731,q),
(177,831,o),
(250,906,q),
(406,1065,o),
(658,1065,q),
(871,1065,o),
(1000,924,q),
(1127,788,o),
(1127,582,q),
(1127,503,o),
(1115,474,q),
(1015,446,o),
(708,446,q),
(356,446,l),
(382,339,o),
(477,279.5,q),
(572,220,o),
(724,220,q),
(883,220,o),
(997,277,q),
(1027,292,o),
(1042,305,q),
(1040,263,o),
(1037,219,q),
(1026,63,l),
(950,11,o),
(780,-9,q),
(730,-15,o),
(684,-15,q),
(430,-15,o),
(264,133,q),
(97,282,o),
(97,514,q)
);
},
{
closed = 1;
nodes = (
(820,855,o),
(627,855,q),
(475,855,o),
(396,724,q),
(372,684,o),
(359,636,q),
(383,635,o),
(418,634,q),
(492,634,l),
(529,633,o),
(563,633,q),
(620,633,l),
(671,633,o),
(720,634,q),
(802,637,l),
(835,638,o),
(861,640,q)
);
},
{
closed = 1;
nodes = (
(967,1600,o),
(967,1542,q),
(967,1484,o),
(946.5,1427.5,q),
(926,1371,o),
(883,1326,q),
(786,1225,o),
(612,1225,q),
(438,1225,o),
(341,1326,q),
(257,1414,o),
(257,1541,q),
(257,1600,o),
(267,1610,q),
(400,1607,l),
(410,1528,o),
(437,1490,q),
(496,1406,o),
(612,1406,q),
(728,1406,o),
(783,1484,q),
(814,1528,o),
(824,1607,q),
(957,1610,l)
);
}
);
width = 1197;
}
);
unicode = 277;
},
{
category = Letter;
glyphname = Edotaccent;
layers = (
{
layerId = "4de0c4ad-9814-44bf-ac31-cb508b764638";
name = Fore;
shapes = (
{
closed = 1;
nodes = (
(903,240,o),
(927,252,q),
(931,251,l),
(921,0,l),
(172,0,l),
(172,1337,l),
(199,1335,o),
(232,1334,q),
(302,1332,l),
(372,1330,o),
(454,1330,q),
(683,1330,o),
(907,1338,q),
(896,1250,o),
(896,1103,q),
(896,1087,o),
(898,1079,q),
(896,1076,l),
(844,1091,o),
(748,1091,q),
(433,1091,l),
(433,836,l),
(670,836,l),
(780,836,o),
(802,842,q),
(805,595,l),
(757,600,o),
(681,600,q),
(433,600,l),
(433,240,l),
(841,240,l)
);
},
{
closed = 1;
nodes = (
(431,1722,o),
(515,1814,q),
(706,1663,l),
(656,1599,o),
(638,1575,q),
(603,1526,l),
(586,1503,o),
(567,1474,q),
(366,1618,l)
);
}
);
width = 1026;
}
);
unicode = 278;
},
{
category = Letter;
glyphname = edotaccent;
layers = (
{
layerId = "4de0c4ad-9814-44bf-ac31-cb508b764638";
name = Fore;
shapes = (
{
closed = 1;
nodes = (
(97,631,o),
(137,731,q),
(177,831,o),
(250,906,q),
(406,1065,o),
(658,1065,q),
(871,1065,o),
(1000,924,q),
(1127,788,o),
(1127,582,q),
(1127,503,o),
(1115,474,q),
(1015,446,o),
(708,446,q),
(356,446,l),
(382,339,o),
(477,279.5,q),
(572,220,o),
(724,220,q),
(883,220,o),
(997,277,q),
(1027,292,o),
(1042,305,q),
(1040,263,o),
(1037,219,q),
(1026,63,l),
(950,11,o),
(780,-9,q),
(730,-15,o),
(684,-15,q),
(430,-15,o),
(264,133,q),
(97,282,o),
(97,514,q)
);
},
{
closed = 1;
nodes = (
(820,855,o),
(627,855,q),
(475,855,o),
(396,724,q),
(372,684,o),
(359,636,q),
(383,635,o),
(418,634,q),
(492,634,l),
(529,633,o),
(563,633,q),
(620,633,l),
(671,633,o),
(720,634,q),
(802,637,l),
(835,638,o),
(861,640,q)
);
},
{
closed = 1;
nodes = (
(507,1440,o),
(591,1532,q),
(782,1381,l),
(732,1317,o),
(714,1293,q),
(679,1244,l),
(662,1221,o),
(643,1192,q),
(442,1336,l)
);
}
);
width = 1197;
}
);
unicode = 279;
},
{
category = Letter;
glyphname = Eogonek;
layers = (
{
layerId = "4de0c4ad-9814-44bf-ac31-cb508b764638";
name = Fore;
shapes = (
{
closed = 1;
nodes = (
(900,-320,o),
(922,-304,q),
(924,-309,l),
(820,-552,l),
(554,-552,o),
(461,-390,q),
(427,-331,o),
(427,-243,q),
(427,-161,o),
(490,-71,q),
(516,-35,o),
(557,0,q),
(172,0,l),
(172,1337,l),
(199,1335,o),
(232,1334,q),
(302,1332,l),
(372,1330,o),
(454,1330,q),
(683,1330,o),
(907,1338,q),
(896,1250,o),
(896,1103,q),
(896,1087,o),
(898,1079,q),
(896,1076,l),
(844,1091,o),
(748,1091,q),
(433,1091,l),
(433,836,l),
(670,836,l),
(780,836,o),
(802,842,q),
(805,595,l),
(757,600,o),
(681,600,q),
(433,600,l),
(433,240,l),
(841,240,l),
(903,240,o),
(927,252,q),
(931,251,l),
(921,14,l),
(931,0,l),
(920,0,l),
(816,-4,o),
(742,-72,q),
(672,-137,o),
(672,-215,q),
(672,-320,o),
(863,-320,q)
);
}
);
width = 1026;
}
);
unicode = 280;
},
{
category = Letter;
glyphname = eogonek;
layers = (
{
layerId = "4de0c4ad-9814-44bf-ac31-cb508b764638";
name = Fore;
shapes = (
{
closed = 1;
nodes = (
(542,-138,o),
(672,-15,q),
(423,-11,o),
(261,136,q),
(97,285,o),
(97,516,q),
(97,749,o),
(250,906,q),
(406,1065,o),
(658,1065,q),
(871,1065,o),
(1000,924,q),
(1127,788,o),
(1127,582,q),
(1127,503,o),
(1115,474,q),
(1015,446,o),
(708,446,q),
(356,446,l),
(382,339,o),
(477,279.5,q),
(572,220,o),
(724,220,q),
(883,220,o),
(997,277,q),
(1027,292,o),
(1042,305,q),
(1040,263,o),
(1037,219,q),
(1026,63,l),
(1008,52,l),
(885,-23,o),
(822,-112,q),
(777,-175,o),
(777,-210,q),
(777,-245,o),
(793.5,-266,q),
(810,-287,o),
(836,-300,q),
(883,-323,o),
(939,-323,q),
(995,-323,o),
(1017,-307,q),
(1019,-312,l),
(915,-555,l),
(542,-555,o),
(542,-256,q)
);
},
{
closed = 1;
nodes = (
(820,855,o),
(627,855,q),
(475,855,o),
(396,724,q),
(372,684,o),
(359,636,q),
(383,635,o),
(418,634,q),
(492,634,l),
(529,633,o),
(563,633,q),
(620,633,l),
(671,633,o),
(720,634,q),
(802,637,l),
(835,638,o),
(861,640,q)
);
}
);
width = 1197;
}
);
unicode = 281;
},
{
category = Letter;
glyphname = Ecaron;
layers = (
{
layerId = "4de0c4ad-9814-44bf-ac31-cb508b764638";
name = Fore;
shapes = (
{
closed = 1;
nodes = (
(903,240,o),
(927,252,q),
(931,251,l),
(921,0,l),
(172,0,l),
(172,1337,l),
(199,1335,o),
(232,1334,q),
(302,1332,l),
(372,1330,o),
(454,1330,q),
(683,1330,o),
(907,1338,q),
(896,1250,o),
(896,1103,q),
(896,1087,o),
(898,1079,q),
(896,1076,l),
(844,1091,o),
(748,1091,q),
(433,1091,l),
(433,836,l),
(670,836,l),
(780,836,o),
(802,842,q),
(805,595,l),
(757,600,o),
(681,600,q),
(433,600,l),
(433,240,l),
(841,240,l)
);
},
{
closed = 1;
nodes = (
(477,1369,l),
(435,1369,o),
(411,1366,q),
(169,1697,l),
(172,1700,l),
(220,1697,o),
(435,1697,q),
(532,1520,l),
(645,1697,l),
(900,1700,l),
(904,1697,l),
(649,1366,l),
(528,1369,l)
);
}
);
width = 1026;
}
);
unicode = 282;
},
{
category = Letter;
glyphname = ecaron;
layers = (
{
layerId = "4de0c4ad-9814-44bf-ac31-cb508b764638";
name = Fore;
shapes = (
{
closed = 1;
nodes = (
(97,631,o),
(137,731,q),
(177,831,o),
(250,906,q),
(406,1065,o),
(658,1065,q),
(871,1065,o),
(1000,924,q),
(1127,788,o),
(1127,582,q),
(1127,503,o),
(1115,474,q),
(1015,446,o),
(708,446,q),
(356,446,l),
(382,339,o),
(477,279.5,q),
(572,220,o),
(724,220,q),
(883,220,o),
(997,277,q),
(1027,292,o),
(1042,305,q),
(1040,263,o),
(1037,219,q),
(1026,63,l),
(950,11,o),
(780,-9,q),
(730,-15,o),
(684,-15,q),
(430,-15,o),
(264,133,q),
(97,282,o),
(97,514,q)
);
},
{
closed = 1;
nodes = (
(820,855,o),
(627,855,q),
(475,855,o),
(396,724,q),
(372,684,o),
(359,636,q),
(383,635,o),
(418,634,q),
(492,634,l),
(529,633,o),
(563,633,q),
(620,633,l),
(671,633,o),
(720,634,q),
(802,637,l),
(835,638,o),
(861,640,q)
);
},
{
closed = 1;
nodes = (
(553,1188,l),
(511,1188,o),
(487,1185,q),
(245,1516,l),
(248,1519,l),
(296,1516,o),
(511,1516,q),
(608,1339,l),
(721,1516,l),
(976,1519,l),
(980,1516,l),
(725,1185,l),
(604,1188,l)
);
}
);
width = 1197;
}
);
unicode = 283;
},
{
category = Letter;
glyphname = Gcircumflex;
layers = (
{
layerId = "4de0c4ad-9814-44bf-ac31-cb508b764638";
name = Fore;
shapes = (
{
closed = 1;
nodes = (
(1249,768,o),
(1249,639,q),
(1249,329,l),
(1249,188,o),
(1103,84,q),
(952,-25,o),
(733,-25,q),
(429,-25,o),
(248,166,q),
(73,348,o),
(73,630,q),
(73,930,o),
(251,1130,q),
(450,1355,o),
(799,1355,q),
(1032,1355,o),
(1168,1265,q),
(1152,970,l),
(1144,968,l),
(1109,1029,o),
(1006,1068,q),
(908,1105,o),
(800.5,1105,q),
(693,1105,o),
(612.5,1071,q),
(532,1037,o),
(476,974,q),
(358,845,o),
(358,633,q),
(358,448,o),
(462,336,q),
(566,225,o),
(730,225,q),
(911,225,o),
(974,319,q),
(994,349,o),
(994,387,q),
(994,553,l),
(865,553,l),
(761,553,o),
(752,535,q),
(749,536,l),
(740,797,l),
(768,789,o),
(967,789,q),
(1085,789,l),
(1195,789,o),
(1265,804,q),
(1268,802,l)
);
},
{
closed = 1;
nodes = (
(405,1473,o),
(357,1470,q),
(354,1473,l),
(596,1804,l),
(620,1801,o),
(662,1801,q),
(713,1801,l),
(834,1804,l),
(1089,1473,l),
(1085,1470,l),
(830,1473,l),
(717,1650,l),
(620,1473,l)
);
}
);
width = 1364;
}
);
unicode = 284;
},
{
category = Letter;
glyphname = gcircumflex;
layers = (
{
layerId = "4de0c4ad-9814-44bf-ac31-cb508b764638";
name = Fore;
shapes = (
{
closed = 1;
nodes = (
(379,229,o),
(379,200.5,q),
(379,172,o),
(388,156.5,q),
(397,141,o),
(427,127,q),
(493,96,o),
(644,72.5,q),
(795,49,o),
(880.5,14,q),
(966,-21,o),
(1019,-72,q),
(1118,-169,o),
(1118,-347,q),
(1118,-525,o),
(993,-620.5,q),
(868,-716,o),
(622,-716,q),
(374,-716,o),
(222,-608,q),
(70,-500,o),
(66,-321,q),
(60,-113,o),
(229,-20,q),
(183,18,o),
(167.5,69.5,q),
(152,121,o),
(152,187,q),
(152,298,o),
(249,375,q),
(136,482,o),
(136,641,q),
(136,819,o),
(264,939,q),
(399,1065,o),
(614,1065,q),
(727,1065,o),
(826,1023,q),
(956,1078,o),
(1017,1119.5,q),
(1078,1161,o),
(1095,1180,q),
(1101,1179,l),
(1110,1155,o),
(1122,1111,q),
(1140,1039,l),
(1164,950,o),
(1169,917,q),
(1125,869,o),
(1014,849,q),
(1057,766,o),
(1057,673,q),
(1057,580,o),
(1025,504.5,q),
(993,429,o),
(934,372,q),
(803,249,o),
(600,249,q),
(501,249,o),
(416,278,q)
);
},
{
closed = 1;
nodes = (
(376,692,o),
(376,655,q),
(376,618,o),
(391.5,584,q),
(407,550,o),
(437,523,q),
(504,463,o),
(612,463,q),
(694,463,o),
(754,518,q),
(817,578,o),
(817,662.5,q),
(817,747,o),
(760,799,q),
(703,851,o),
(603,851,q),
(438,851,o),
(390,728,q)
);
},
{
closed = 1;
nodes = (
(881,-504,o),
(881,-332,q),
(881,-250,o),
(801,-200,q),
(711,-143,o),
(492,-111,q),
(440,-102,l),
(374,-137,o),
(343,-192,q),
(312,-247,o),
(312.5,-296.5,q),
(313,-346,o),
(336,-382,q),
(359,-418,o),
(400,-445,q),
(491,-504,o),
(635,-504,q)
);
},
{
closed = 1;
nodes = (
(324,1188,o),
(276,1185,q),
(273,1188,l),
(515,1519,l),
(539,1516,o),
(581,1516,q),
(632,1516,l),
(753,1519,l),
(1008,1188,l),
(1004,1185,l),
(749,1188,l),
(636,1365,l),
(539,1188,l)
);
}
);
width = 1193;
}
);
unicode = 285;
},
{
category = Letter;
glyphname = Gbreve;
layers = (
{
layerId = "4de0c4ad-9814-44bf-ac31-cb508b764638";
name = Fore;
shapes = (
{
closed = 1;
nodes = (
(1249,768,o),
(1249,639,q),
(1249,329,l),
(1249,188,o),
(1103,84,q),
(952,-25,o),
(733,-25,q),
(429,-25,o),
(248,166,q),
(73,348,o),
(73,630,q),
(73,930,o),
(251,1130,q),
(450,1355,o),
(799,1355,q),
(1032,1355,o),
(1168,1265,q),
(1152,970,l),
(1144,968,l),
(1109,1029,o),
(1006,1068,q),
(908,1105,o),
(800.5,1105,q),
(693,1105,o),
(612.5,1071,q),
(532,1037,o),
(476,974,q),
(358,845,o),
(358,633,q),
(358,448,o),
(462,336,q),
(566,225,o),
(730,225,q),
(911,225,o),
(974,319,q),
(994,349,o),
(994,387,q),
(994,553,l),
(865,553,l),
(761,553,o),
(752,535,q),
(749,536,l),
(740,797,l),
(768,789,o),
(967,789,q),
(1085,789,l),
(1195,789,o),
(1265,804,q),
(1268,802,l)
);
},
{
closed = 1;
nodes = (
(1076,1796,o),
(1076,1738,q),
(1076,1680,o),
(1055.5,1623.5,q),
(1035,1567,o),
(992,1522,q),
(895,1421,o),
(721,1421,q),
(547,1421,o),
(450,1522,q),
(366,1610,o),
(366,1737,q),
(366,1796,o),
(376,1806,q),
(509,1803,l),
(519,1724,o),
(546,1686,q),
(605,1602,o),
(721,1602,q),
(837,1602,o),
(892,1680,q),
(923,1724,o),
(933,1803,q),
(1066,1806,l)
);
}
);
width = 1364;
}
);
unicode = 286;
},
{
category = Letter;
glyphname = gbreve;
layers = (
{
layerId = "4de0c4ad-9814-44bf-ac31-cb508b764638";
name = Fore;
shapes = (
{
closed = 1;
nodes = (
(379,229,o),
(379,200.5,q),
(379,172,o),
(388,156.5,q),
(397,141,o),
(427,127,q),
(493,96,o),
(644,72.5,q),
(795,49,o),
(880.5,14,q),
(966,-21,o),
(1019,-72,q),
(1118,-169,o),
(1118,-347,q),
(1118,-525,o),
(993,-620.5,q),
(868,-716,o),
(622,-716,q),
(374,-716,o),
(222,-608,q),
(70,-500,o),
(66,-321,q),
(60,-113,o),
(229,-20,q),
(183,18,o),
(167.5,69.5,q),
(152,121,o),
(152,187,q),
(152,298,o),
(249,375,q),
(136,482,o),
(136,641,q),
(136,819,o),
(264,939,q),
(399,1065,o),
(614,1065,q),
(727,1065,o),
(826,1023,q),
(956,1078,o),
(1017,1119.5,q),
(1078,1161,o),
(1095,1180,q),
(1101,1179,l),
(1110,1155,o),
(1122,1111,q),
(1140,1039,l),
(1164,950,o),
(1169,917,q),
(1125,869,o),
(1014,849,q),
(1057,766,o),
(1057,673,q),
(1057,580,o),
(1025,504.5,q),
(993,429,o),
(934,372,q),
(803,249,o),
(600,249,q),
(501,249,o),
(416,278,q)
);
},
{
closed = 1;
nodes = (
(376,692,o),
(376,655,q),
(376,618,o),
(391.5,584,q),
(407,550,o),
(437,523,q),
(504,463,o),
(612,463,q),
(694,463,o),
(754,518,q),
(817,578,o),
(817,662.5,q),
(817,747,o),
(760,799,q),
(703,851,o),
(603,851,q),
(438,851,o),
(390,728,q)
);
},
{
closed = 1;
nodes = (
(881,-504,o),
(881,-332,q),
(881,-250,o),
(801,-200,q),
(711,-143,o),
(492,-111,q),
(440,-102,l),
(374,-137,o),
(343,-192,q),
(312,-247,o),
(312.5,-296.5,q),
(313,-346,o),
(336,-382,q),
(359,-418,o),
(400,-445,q),
(491,-504,o),
(635,-504,q)
);
},
{
closed = 1;
nodes = (
(995,1600,o),
(995,1542,q),
(995,1484,o),
(974.5,1427.5,q),
(954,1371,o),
(911,1326,q),
(814,1225,o),
(640,1225,q),
(466,1225,o),
(369,1326,q),
(285,1414,o),
(285,1541,q),
(285,1600,o),
(295,1610,q),
(428,1607,l),
(438,1528,o),
(465,1490,q),
(524,1406,o),
(640,1406,q),
(756,1406,o),
(811,1484,q),
(842,1528,o),
(852,1607,q),
(985,1610,l)
);
}
);
width = 1193;
}
);
unicode = 287;
},
{
category = Letter;
glyphname = Gdotaccent;
layers = (
{
layerId = "4de0c4ad-9814-44bf-ac31-cb508b764638";
name = Fore;
shapes = (
{
closed = 1;
nodes = (
(1249,768,o),
(1249,639,q),
(1249,329,l),
(1249,188,o),
(1103,84,q),
(952,-25,o),
(733,-25,q),
(429,-25,o),
(248,166,q),
(73,348,o),
(73,630,q),
(73,930,o),
(251,1130,q),
(450,1355,o),
(799,1355,q),
(1032,1355,o),
(1168,1265,q),
(1152,970,l),
(1144,968,l),
(1109,1029,o),
(1006,1068,q),
(908,1105,o),
(800.5,1105,q),
(693,1105,o),
(612.5,1071,q),
(532,1037,o),
(476,974,q),
(358,845,o),
(358,633,q),
(358,448,o),
(462,336,q),
(566,225,o),
(730,225,q),
(911,225,o),
(974,319,q),
(994,349,o),
(994,387,q),
(994,553,l),
(865,553,l),
(761,553,o),
(752,535,q),
(749,536,l),
(740,797,l),
(768,789,o),
(967,789,q),
(1085,789,l),
(1195,789,o),
(1265,804,q),
(1268,802,l)
);
},
{
closed = 1;
nodes = (
(616,1722,o),
(700,1814,q),
(891,1663,l),
(841,1599,o),
(823,1575,q),
(788,1526,l),
(771,1503,o),
(752,1474,q),
(551,1618,l)
);
}
);
width = 1364;
}
);
unicode = 288;
},
{
category = Letter;
glyphname = gdotaccent;
layers = (
{
layerId = "4de0c4ad-9814-44bf-ac31-cb508b764638";
name = Fore;
shapes = (
{
closed = 1;
nodes = (
(379,229,o),
(379,200.5,q),
(379,172,o),
(388,156.5,q),
(397,141,o),
(427,127,q),
(493,96,o),
(644,72.5,q),
(795,49,o),
(880.5,14,q),
(966,-21,o),
(1019,-72,q),
(1118,-169,o),
(1118,-347,q),
(1118,-525,o),
(993,-620.5,q),
(868,-716,o),
(622,-716,q),
(374,-716,o),
(222,-608,q),
(70,-500,o),
(66,-321,q),
(60,-113,o),
(229,-20,q),
(183,18,o),
(167.5,69.5,q),
(152,121,o),
(152,187,q),
(152,298,o),
(249,375,q),
(136,482,o),
(136,641,q),
(136,819,o),
(264,939,q),
(399,1065,o),
(614,1065,q),
(727,1065,o),
(826,1023,q),
(956,1078,o),
(1017,1119.5,q),
(1078,1161,o),
(1095,1180,q),
(1101,1179,l),
(1110,1155,o),
(1122,1111,q),
(1140,1039,l),
(1164,950,o),
(1169,917,q),
(1125,869,o),
(1014,849,q),
(1057,766,o),
(1057,673,q),
(1057,580,o),
(1025,504.5,q),
(993,429,o),
(934,372,q),
(803,249,o),
(600,249,q),
(501,249,o),
(416,278,q)
);
},
{
closed = 1;
nodes = (
(376,692,o),
(376,655,q),
(376,618,o),
(391.5,584,q),
(407,550,o),
(437,523,q),
(504,463,o),
(612,463,q),
(694,463,o),
(754,518,q),
(817,578,o),
(817,662.5,q),
(817,747,o),
(760,799,q),
(703,851,o),
(603,851,q),
(438,851,o),
(390,728,q)
);
},
{
closed = 1;
nodes = (
(881,-504,o),
(881,-332,q),
(881,-250,o),
(801,-200,q),
(711,-143,o),
(492,-111,q),
(440,-102,l),
(374,-137,o),
(343,-192,q),
(312,-247,o),
(312.5,-296.5,q),
(313,-346,o),
(336,-382,q),
(359,-418,o),
(400,-445,q),
(491,-504,o),
(635,-504,q)
);
},
{
closed = 1;
nodes = (
(535,1440,o),
(619,1532,q),
(810,1381,l),
(760,1317,o),
(742,1293,q),
(707,1244,l),
(690,1221,o),
(671,1192,q),
(470,1336,l)
);
}
);
width = 1193;
}
);
unicode = 289;
},
{
category = Letter;
glyphname = Gcommaaccent;
layers = (
{
layerId = "4de0c4ad-9814-44bf-ac31-cb508b764638";
name = Fore;
shapes = (
{
closed = 1;
nodes = (
(1249,768,o),
(1249,639,q),
(1249,329,l),
(1249,188,o),
(1103,84,q),
(952,-25,o),
(733,-25,q),
(429,-25,o),
(248,166,q),
(73,348,o),
(73,630,q),
(73,930,o),
(251,1130,q),
(450,1355,o),
(799,1355,q),
(1032,1355,o),
(1168,1265,q),
(1152,970,l),
(1144,968,l),
(1109,1029,o),
(1006,1068,q),
(908,1105,o),
(800.5,1105,q),
(693,1105,o),
(612.5,1071,q),
(532,1037,o),
(476,974,q),
(358,845,o),
(358,633,q),
(358,448,o),
(462,336,q),
(566,225,o),
(730,225,q),
(911,225,o),
(974,319,q),
(994,349,o),
(994,387,q),
(994,553,l),
(865,553,l),
(761,553,o),
(752,535,q),
(749,536,l),
(740,797,l),
(768,789,o),
(967,789,q),
(1085,789,l),
(1195,789,o),
(1265,804,q),
(1268,802,l)
);
},
{
closed = 1;
nodes = (
(600,-499,o),
(600,-385,q),
(600,-271,o),
(589,-191,q),
(838,-151,l),
(846,-202,l),
(854,-258,o),
(854,-317.5,q),
(854,-377,o),
(848,-413.5,q),
(842,-450,o),
(832,-476,q),
(808,-534,o),
(750,-558,q),
(686,-584,o),
(545,-613,q),
(539,-607,l)
);
}
);
width = 1364;
}
);
unicode = 290;
},
{
category = Letter;
glyphname = gcommaaccent;
layers = (
{
layerId = "4de0c4ad-9814-44bf-ac31-cb508b764638";
name = Fore;
shapes = (
{
closed = 1;
nodes = (
(379,229,o),
(379,200.5,q),
(379,172,o),
(388,156.5,q),
(397,141,o),
(427,127,q),
(493,96,o),
(644,72.5,q),
(795,49,o),
(880.5,14,q),
(966,-21,o),
(1019,-72,q),
(1118,-169,o),
(1118,-347,q),
(1118,-525,o),
(993,-620.5,q),
(868,-716,o),
(622,-716,q),
(374,-716,o),
(222,-608,q),
(70,-500,o),
(66,-321,q),
(60,-113,o),
(229,-20,q),
(183,18,o),
(167.5,69.5,q),
(152,121,o),
(152,187,q),
(152,298,o),
(249,375,q),
(136,482,o),
(136,641,q),
(136,819,o),
(264,939,q),
(399,1065,o),
(614,1065,q),
(727,1065,o),
(826,1023,q),
(956,1078,o),
(1017,1119.5,q),
(1078,1161,o),
(1095,1180,q),
(1101,1179,l),
(1110,1155,o),
(1122,1111,q),
(1140,1039,l),
(1164,950,o),
(1169,917,q),
(1125,869,o),
(1014,849,q),
(1057,766,o),
(1057,673,q),
(1057,580,o),
(1025,504.5,q),
(993,429,o),
(934,372,q),
(803,249,o),
(600,249,q),
(501,249,o),
(416,278,q)
);
},
{
closed = 1;
nodes = (
(376,692,o),
(376,655,q),
(376,618,o),
(391.5,584,q),
(407,550,o),
(437,523,q),
(504,463,o),
(612,463,q),
(694,463,o),
(754,518,q),
(817,578,o),
(817,662.5,q),
(817,747,o),
(760,799,q),
(703,851,o),
(603,851,q),
(438,851,o),
(390,728,q)
);
},
{
closed = 1;
nodes = (
(881,-504,o),
(881,-332,q),
(881,-250,o),
(801,-200,q),
(711,-143,o),
(492,-111,q),
(440,-102,l),
(374,-137,o),
(343,-192,q),
(312,-247,o),
(312.5,-296.5,q),
(313,-346,o),
(336,-382,q),
(359,-418,o),
(400,-445,q),
(491,-504,o),
(635,-504,q)
);
},
{
closed = 1;
nodes = (
(678,1658,o),
(678,1544,q),
(678,1430,o),
(689,1350,q),
(440,1310,l),
(432,1361,l),
(424,1417,o),
(424,1476.5,q),
(424,1536,o),
(430,1572.5,q),
(436,1609,o),
(446,1635,q),
(470,1693,o),
(528,1717,q),
(592,1743,o),
(733,1772,q),
(739,1766,l)
);
}
);
width = 1193;
}
);
unicode = 291;
},
{
category = Letter;
glyphname = Hcircumflex;
layers = (
{
layerId = "4de0c4ad-9814-44bf-ac31-cb508b764638";
name = Fore;
shapes = (
{
closed = 1;
nodes = (
(346,0,o),
(214,0,q),
(182,0,l),
(182,1335,l),
(244,1330,o),
(270,1330,q),
(311,1330,l),
(390,1330,o),
(442,1338,q),
(442,805,l),
(912,805,l),
(912,1335,l),
(995,1330,o),
(1073.5,1330,q),
(1152,1330,o),
(1172,1338,q),
(1172,-6,l),
(1124,0,o),
(982,0,q),
(912,0,l),
(912,565,l),
(442,565,l),
(442,-6,l)
);
},
{
closed = 1;
nodes = (
(366,1473,o),
(318,1470,q),
(315,1473,l),
(557,1804,l),
(581,1801,o),
(623,1801,q),
(674,1801,l),
(795,1804,l),
(1050,1473,l),
(1046,1470,l),
(791,1473,l),
(678,1650,l),
(581,1473,l)
);
}
);
width = 1364;
}
);
unicode = 292;
},
{
category = Letter;
glyphname = hcircumflex;
layers = (
{
layerId = "4de0c4ad-9814-44bf-ac31-cb508b764638";
name = Fore;
shapes = (
{
closed = 1;
nodes = (
(418,26,o),
(422,0,q),
(173,0,l),
(173,1430,l),
(418,1430,l),
(418,967,l),
(547,1065,o),
(684,1065,q),
(852,1065,o),
(954,954,q),
(1054,843,o),
(1054,660,q),
(1054,262,l),
(1054,93,o),
(1059,59,q),
(1064,25,o),
(1072.5,15,q),
(1081,5,o),
(1087,-3,q),
(1085,-7,l),
(1004,0,o),
(967,0,q),
(896,0,l),
(863,0,o),
(809,-3,q),
(809,576,l),
(809,714,o),
(748,780,q),
(702,830,o),
(623,830,q),
(506,830,o),
(418,695,q),
(418,112,l)
);
},
{
closed = 1;
nodes = (
(348,1473,o),
(300,1470,q),
(297,1473,l),
(539,1804,l),
(563,1801,o),
(605,1801,q),
(656,1801,l),
(777,1804,l),
(1032,1473,l),
(1028,1470,l),
(773,1473,l),
(660,1650,l),
(563,1473,l)
);
}
);
width = 1193;
}
);
unicode = 293;
},
{
category = Letter;
glyphname = Hbar;
layers = (
{
layerId = "4de0c4ad-9814-44bf-ac31-cb508b764638";
name = Fore;
shapes = (
{
closed = 1;
nodes = (
(346,0,o),
(214,0,q),
(182,0,l),
(182,975,l),
(58,975,l),
(68,1014,l),
(72,1026,o),
(72,1053,q),
(72,1080,o),
(62,1120,q),
(182,1120,l),
(182,1335,l),
(244,1330,o),
(270,1330,q),
(311,1330,l),
(390,1330,o),
(442,1338,q),
(442,1120,l),
(912,1120,l),
(912,1335,l),
(995,1330,o),
(1073.5,1330,q),
(1152,1330,o),
(1172,1338,q),
(1172,1120,l),
(1299,1120,l),
(1293,1088,o),
(1293,1061,q),
(1293,1024,l),
(1293,1008,o),
(1299,975,q),
(1172,975,l),
(1172,-6,l),
(1124,0,o),
(982,0,q),
(912,0,l),
(912,565,l),
(442,565,l),
(442,-6,l)
);
},
{
closed = 1;
nodes = (
(912,975,l),
(442,975,l),
(442,805,l),
(912,805,l)
);
}
);
width = 1364;
}
);
unicode = 294;
},
{
category = Letter;
glyphname = hbar;
layers = (
{
layerId = "4de0c4ad-9814-44bf-ac31-cb508b764638";
name = Fore;
shapes = (
{
closed = 1;
nodes = (
(418,26,o),
(422,0,q),
(173,0,l),
(173,1140,l),
(96,1140,l),
(100,1166,l),
(104,1199,o),
(104,1226,q),
(104,1253,o),
(98,1310,q),
(173,1310,l),
(173,1430,l),
(418,1430,l),
(418,1310,l),
(652,1310,l),
(648,1260,o),
(648,1234,q),
(648,1198,l),
(648,1192,o),
(652,1140,q),
(418,1140,l),
(418,967,l),
(547,1065,o),
(684,1065,q),
(852,1065,o),
(954,954,q),
(1054,843,o),
(1054,660,q),
(1054,262,l),
(1054,93,o),
(1059,59,q),
(1064,25,o),
(1072.5,15,q),
(1081,5,o),
(1087,-3,q),
(1085,-7,l),
(1004,0,o),
(967,0,q),
(896,0,l),
(863,0,o),
(809,-3,q),
(809,576,l),
(809,714,o),
(748,780,q),
(702,830,o),
(623,830,q),
(506,830,o),
(418,695,q),
(418,112,l)
);
}
);
width = 1193;
}
);
unicode = 295;
},
{
category = Letter;
glyphname = Itilde;
layers = (
{
layerId = "4de0c4ad-9814-44bf-ac31-cb508b764638";
name = Fore;
shapes = (
{
closed = 1;
nodes = (
(303,1330,o),
(324,1330,q),
(396,1330,l),
(449,1330,o),
(481,1338,q),
(480,0,l),
(203,0,l),
(203,1334,l)
);
},
{
closed = 1;
nodes = (
(73,1565,o),
(0,1490,q),
(-4,1491,l),
(-8,1690,l),
(60,1770,o),
(177,1770,q),
(269,1770,o),
(348,1715.5,q),
(427,1661,o),
(511,1661,q),
(630,1661,o),
(667,1745,q),
(669,1743,l),
(659,1527,l),
(642,1497,o),
(598,1477.5,q),
(554,1458,o),
(506,1458,q),
(458,1458,o),
(428.5,1466,q),
(399,1474,o),
(374,1486,q),
(349,1498,o),
(327.5,1511.5,q),
(306,1525,o),
(282,1537,q),
(226,1565,o),
(167,1565,q)
);
}
);
width = 684;
}
);
unicode = 296;
},
{
category = Letter;
glyphname = itilde;
layers = (
{
layerId = "4de0c4ad-9814-44bf-ac31-cb508b764638";
name = Fore;
shapes = (
{
closed = 1;
nodes = (
(378,26,o),
(382,0,q),
(128,0,l),
(128,1045,l),
(378,1045,l),
(378,112,l)
);
},
{
closed = 1;
nodes = (
(-14,1280,o),
(-87,1205,q),
(-91,1206,l),
(-95,1405,l),
(-27,1485,o),
(90,1485,q),
(182,1485,o),
(261,1430.5,q),
(340,1376,o),
(424,1376,q),
(543,1376,o),
(580,1460,q),
(582,1458,l),
(572,1242,l),
(555,1212,o),
(511,1192.5,q),
(467,1173,o),
(419,1173,q),
(371,1173,o),
(341.5,1181,q),
(312,1189,o),
(287,1201,q),
(262,1213,o),
(240.5,1226.5,q),
(219,1240,o),
(195,1252,q),
(139,1280,o),
(80,1280,q)
);
}
);
width = 513;
}
);
unicode = 297;
},
{
category = Letter;
glyphname = Imacron;
layers = (
{
layerId = "4de0c4ad-9814-44bf-ac31-cb508b764638";
name = Fore;
shapes = (
{
closed = 1;
nodes = (
(303,1330,o),
(324,1330,q),
(396,1330,l),
(449,1330,o),
(481,1338,q),
(480,0,l),
(203,0,l),
(203,1334,l)
);
},
{
closed = 1;
nodes = (
(670,1650,o),
(670,1624,q),
(670,1590,l),
(670,1582,o),
(674,1530,q),
(-1,1530,l),
(2,1556,l),
(7,1589,o),
(7,1616,q),
(7,1643,o),
(1,1700,q),
(674,1700,l)
);
}
);
width = 684;
}
);
unicode = 298;
},
{
category = Letter;
glyphname = imacron;
layers = (
{
layerId = "4de0c4ad-9814-44bf-ac31-cb508b764638";
name = Fore;
shapes = (
{
closed = 1;
nodes = (
(461,26,o),
(465,0,q),
(211,0,l),
(211,1045,l),
(461,1045,l),
(461,112,l)
);
},
{
closed = 1;
nodes = (
(660,1473,o),
(660,1447,q),
(660,1413,l),
(660,1405,o),
(664,1353,q),
(-11,1353,l),
(-8,1379,l),
(-3,1412,o),
(-3,1439,q),
(-3,1466,o),
(-9,1523,q),
(664,1523,l)
);
}
);
width = 684;
}
);
unicode = 299;
},
{
category = Letter;
glyphname = Ibreve;
layers = (
{
layerId = "4de0c4ad-9814-44bf-ac31-cb508b764638";
name = Fore;
shapes = (
{
closed = 1;
nodes = (
(303,1330,o),
(324,1330,q),
(396,1330,l),
(449,1330,o),
(481,1338,q),
(480,0,l),
(203,0,l),
(203,1334,l)
);
},
{
closed = 1;
nodes = (
(686,1796,o),
(686,1738,q),
(686,1680,o),
(665.5,1623.5,q),
(645,1567,o),
(602,1522,q),
(505,1421,o),
(331,1421,q),
(157,1421,o),
(60,1522,q),
(-24,1610,o),
(-24,1737,q),
(-24,1796,o),
(-14,1806,q),
(119,1803,l),
(129,1724,o),
(156,1686,q),
(215,1602,o),
(331,1602,q),
(447,1602,o),
(502,1680,q),
(533,1724,o),
(543,1803,q),
(676,1806,l)
);
}
);
width = 684;
}
);
unicode = 300;
},
{
category = Letter;
glyphname = ibreve;
layers = (
{
layerId = "4de0c4ad-9814-44bf-ac31-cb508b764638";
name = Fore;
shapes = (
{
closed = 1;
nodes = (
(461,26,o),
(465,0,q),
(211,0,l),
(211,1045,l),
(461,1045,l),
(461,112,l)
);
},
{
closed = 1;
nodes = (
(681,1600,o),
(681,1542,q),
(681,1484,o),
(660.5,1427.5,q),
(640,1371,o),
(597,1326,q),
(500,1225,o),
(326,1225,q),
(152,1225,o),
(55,1326,q),
(-29,1414,o),
(-29,1541,q),
(-29,1600,o),
(-19,1610,q),
(114,1607,l),
(124,1528,o),
(151,1490,q),
(210,1406,o),
(326,1406,q),
(442,1406,o),
(497,1484,q),
(528,1528,o),
(538,1607,q),
(671,1610,l)
);
}
);
width = 684;
}
);
unicode = 301;
},
{
category = Letter;
glyphname = Iogonek;
layers = (
{
layerId = "4de0c4ad-9814-44bf-ac31-cb508b764638";
name = Fore;
shapes = (
{
closed = 1;
nodes = (
(471,-323,o),
(505,-323,q),
(539,-323,o),
(561,-307,q),
(563,-312,l),
(459,-555,l),
(282,-555,o),
(189,-504,q),
(66,-435,o),
(66,-276,q),
(66,-178,o),
(134,-76,q),
(161,-36,o),
(203,0,q),
(203,1334,l),
(303,1330,o),
(324,1330,q),
(365,1330,l),
(449,1330,o),
(481,1338,q),
(480,0,l),
(458,0,l),
(398,-36,o),
(355,-116,q),
(321,-178,o),
(321,-211.5,q),
(321,-245,o),
(337.5,-266,q),
(354,-287,o),
(380.5,-300,q),
(407,-313,o),
(439,-318,q)
);
}
);
width = 684;
}
);
unicode = 302;
},
{
category = Letter;
glyphname = iogonek;
layers = (
{
layerId = "4de0c4ad-9814-44bf-ac31-cb508b764638";
name = Fore;
shapes = (
{
closed = 1;
nodes = (
(195,1468,o),
(282,1563,q),
(497,1394,l),
(454,1341,o),
(417,1290,q),
(417,1290,o),
(340,1181,q),
(115,1343,l)
);
},
{
closed = 1;
nodes = (
(386,-323,o),
(420,-323,q),
(454,-323,o),
(476,-307,q),
(478,-312,l),
(374,-555,l),
(197,-555,o),
(104,-504,q),
(-19,-435,o),
(-19,-276,q),
(-19,-178,o),
(50,-76,q),
(76,-36,o),
(118,0,q),
(128,3,l),
(128,1045,l),
(378,1045,l),
(378,112,l),
(378,26,o),
(382,0,q),
(373,0,l),
(313,-36,o),
(270,-116,q),
(236,-178,o),
(236,-211.5,q),
(236,-245,o),
(252.5,-266,q),
(269,-287,o),
(295.5,-300,q),
(322,-313,o),
(354,-318,q)
);
}
);
width = 513;
}
);
unicode = 303;
},
{
category = Letter;
glyphname = Idotaccent;
layers = (
{
layerId = "4de0c4ad-9814-44bf-ac31-cb508b764638";
name = Fore;
shapes = (
{
closed = 1;
nodes = (
(303,1330,o),
(324,1330,q),
(396,1330,l),
(449,1330,o),
(481,1338,q),
(480,0,l),
(203,0,l),
(203,1334,l)
);
},
{
closed = 1;
nodes = (
(226,1722,o),
(310,1814,q),
(501,1663,l),
(451,1599,o),
(433,1575,q),
(398,1526,l),
(381,1503,o),
(362,1474,q),
(161,1618,l)
);
}
);
width = 684;
}
);
unicode = 304;
},
{
category = Letter;
glyphname = dotlessi;
layers = (
{
layerId = "4de0c4ad-9814-44bf-ac31-cb508b764638";
name = Fore;
shapes = (
{
closed = 1;
nodes = (
(378,26,o),
(382,0,q),
(128,0,l),
(128,1045,l),
(378,1045,l),
(378,112,l)
);
}
);
width = 513;
}
);
unicode = 305;
},
{
category = Letter;
glyphname = IJ;
layers = (
{
layerId = "4de0c4ad-9814-44bf-ac31-cb508b764638";
name = Fore;
shapes = (
{
closed = 1;
nodes = (
(303,1330,o),
(324,1330,q),
(396,1330,l),
(449,1330,o),
(481,1338,q),
(480,0,l),
(203,0,l),
(203,1334,l)
);
},
{
closed = 1;
nodes = (
(1194,1330,o),
(1222,1330,q),
(1300,1330,l),
(1349,1330,o),
(1397,1338,q),
(1397,442,l),
(1397,222,o),
(1280,96,q),
(1169,-25,o),
(980,-25,q),
(850,-25,o),
(762,27,q),
(729,46,o),
(696,73,q),
(696,362,l),
(703,364,l),
(745,298,o),
(801.5,256,q),
(858,214,o),
(942,214,q),
(1132,214,o),
(1132,434,q),
(1132,1335,l)
);
}
);
width = 1544;
}
);
unicode = 306;
},
{
category = Letter;
glyphname = ij;
layers = (
{
layerId = "4de0c4ad-9814-44bf-ac31-cb508b764638";
name = Fore;
shapes = (
{
closed = 1;
nodes = (
(195,1468,o),
(282,1563,q),
(497,1394,l),
(454,1341,o),
(417,1290,q),
(417,1290,o),
(340,1181,q),
(115,1343,l)
);
},
{
closed = 1;
nodes = (
(378,26,o),
(382,0,q),
(128,0,l),
(128,1045,l),
(378,1045,l),
(378,112,l)
);
},
{
closed = 1;
nodes = (
(673,1440,o),
(757,1532,q),
(948,1381,l),
(898,1317,o),
(880,1293,q),
(845,1244,l),
(828,1221,o),
(809,1192,q),
(608,1336,l)
);
},
{
closed = 1;
nodes = (
(645,-155,o),
(645,65,q),
(645,1045,l),
(888,1045,l),
(888,137,l),
(888,-283,o),
(649,-360,q),
(571,-385,o),
(472,-385,q),
(368,-122,l),
(370,-117,l),
(427,-155,o),
(497,-155,q)
);
}
);
width = 1026;
}
);
unicode = 307;
},
{
category = Letter;
glyphname = Jcircumflex;
layers = (
{
layerId = "4de0c4ad-9814-44bf-ac31-cb508b764638";
name = Fore;
shapes = (
{
closed = 1;
nodes = (
(510,1330,o),
(538,1330,q),
(616,1330,l),
(665,1330,o),
(713,1338,q),
(713,442,l),
(713,222,o),
(596,96,q),
(485,-25,o),
(296,-25,q),
(166,-25,o),
(78,27,q),
(45,46,o),
(12,73,q),
(12,362,l),
(19,364,l),
(61,298,o),
(117.5,256,q),
(174,214,o),
(258,214,q),
(448,214,o),
(448,434,q),
(448,1335,l)
);
},
{
closed = 1;
nodes = (
(266,1473,o),
(218,1470,q),
(215,1473,l),
(457,1804,l),
(481,1801,o),
(523,1801,q),
(574,1801,l),
(695,1804,l),
(950,1473,l),
(946,1470,l),
(691,1473,l),
(578,1650,l),
(481,1473,l)
);
}
);
width = 860;
}
);
unicode = 308;
},
{
category = Letter;
glyphname = jcircumflex;
layers = (
{
layerId = "4de0c4ad-9814-44bf-ac31-cb508b764638";
name = Fore;
shapes = (
{
closed = 1;
nodes = (
(132,-155,o),
(132,65,q),
(132,1045,l),
(377,1045,l),
(377,137,l),
(377,-283,o),
(138,-360,q),
(60,-385,o),
(-39,-385,q),
(-143,-122,l),
(-141,-117,l),
(-84,-155,o),
(-14,-155,q)
);
},
{
closed = 1;
nodes = (
(-59,1188,o),
(-107,1185,q),
(-110,1188,l),
(132,1519,l),
(156,1516,o),
(198,1516,q),
(249,1516,l),
(370,1519,l),
(625,1188,l),
(621,1185,l),
(366,1188,l),
(253,1365,l),
(156,1188,l)
);
}
);
width = 515;
}
);
unicode = 309;
},
{
category = Letter;
glyphname = Kcommaaccent;
layers = (
{
layerId = "4de0c4ad-9814-44bf-ac31-cb508b764638";
name = Fore;
shapes = (
{
closed = 1;
nodes = (
(358,0,o),
(251,0,q),
(172,0,l),
(172,1334,l),
(212,1332,l),
(254,1330,o),
(275,1330,q),
(304,1330,l),
(392,1330,o),
(427,1338,q),
(427,773,l),
(832,1334,l),
(896,1330,o),
(940,1330,q),
(995,1330,l),
(1098,1330,o),
(1142,1338,q),
(756,834,l),
(1136,80,l),
(1160,25,o),
(1181,0,q),
(1120,0,l),
(909,0,o),
(857,-8,q),
(846,59,o),
(827,109,q),
(572,595,l),
(427,405,l),
(427,-6,l)
);
},
{
closed = 1;
nodes = (
(591,-499,o),
(591,-385,q),
(591,-271,o),
(580,-191,q),
(829,-151,l),
(837,-202,l),
(845,-258,o),
(845,-317.5,q),
(845,-377,o),
(839,-413.5,q),
(833,-450,o),
(823,-476,q),
(799,-534,o),
(741,-558,q),
(677,-584,o),
(536,-613,q),
(530,-607,l)
);
}
);
width = 1193;
}
);
unicode = 310;
},
{
category = Letter;
glyphname = kcommaaccent;
layers = (
{
layerId = "4de0c4ad-9814-44bf-ac31-cb508b764638";
name = Fore;
shapes = (
{
closed = 1;
nodes = (
(407,46,o),
(414,0,q),
(162,0,l),
(162,1430,l),
(407,1430,l),
(407,554,l),
(864,1045,l),
(1161,1045,l),
(767,630,l),
(992,323,l),
(1065,207,o),
(1102,153,q),
(1168,60,l),
(1198,21,o),
(1218,0,q),
(1060,0,l),
(972,0,o),
(909,-15,q),
(597,441,l),
(407,239,l),
(407,132,l)
);
},
{
closed = 1;
nodes = (
(545,-499,o),
(545,-385,q),
(545,-271,o),
(534,-191,q),
(783,-151,l),
(791,-202,l),
(799,-258,o),
(799,-317.5,q),
(799,-377,o),
(793,-413.5,q),
(787,-450,o),
(777,-476,q),
(753,-534,o),
(695,-558,q),
(631,-584,o),
(490,-613,q),
(484,-607,l)
);
}
);
width = 1193;
}
);
unicode = 311;
},
{
category = Letter;
glyphname = kgreenlandic;
layers = (
{
layerId = "4de0c4ad-9814-44bf-ac31-cb508b764638";
name = Fore;
shapes = (
{
closed = 1;
nodes = (
(407,46,o),
(414,0,q),
(162,0,l),
(162,1045,l),
(407,1045,l),
(407,554,l),
(864,1045,l),
(1161,1045,l),
(767,630,l),
(992,323,l),
(1065,207,o),
(1102,153,q),
(1168,60,l),
(1198,21,o),
(1218,0,q),
(1060,0,l),
(972,0,o),
(909,-15,q),
(597,441,l),
(407,239,l),
(407,132,l)
);
}
);
width = 1194;
}
);
unicode = 312;
},
{
category = Letter;
glyphname = Lacute;
layers = (
{
layerId = "4de0c4ad-9814-44bf-ac31-cb508b764638";
name = Fore;
shapes = (
{
closed = 1;
nodes = (
(220,0,o),
(172,-6,q),
(172,1336,l),
(196,1330,o),
(271.5,1330,q),
(347,1330,o),
(447,1334,q),
(447,240,l),
(654,240,l),
(744,240,o),
(798,246,q),
(791,12,o),
(791,3,q),
(791,-7,l),
(693,0,o),
(462,0,q),
(367,0,l)
);
},
{
closed = 1;
nodes = (
(620,1788,o),
(790,1805,q),
(789,1798,l),
(527,1475,l),
(301,1475,l),
(470,1788,l)
);
}
);
width = 855;
}
);
unicode = 313;
},
{
category = Letter;
glyphname = lacute;
layers = (
{
layerId = "4de0c4ad-9814-44bf-ac31-cb508b764638";
name = Fore;
shapes = (
{
closed = 1;
nodes = (
(379,26,o),
(383,0,q),
(129,0,l),
(129,1355,l),
(379,1355,l),
(379,112,l)
);
},
{
closed = 1;
nodes = (
(357,1788,o),
(527,1805,q),
(526,1798,l),
(264,1475,l),
(38,1475,l),
(207,1788,l)
);
}
);
width = 513;
}
);
unicode = 314;
},
{
category = Letter;
glyphname = Lcommaaccent;
layers = (
{
layerId = "4de0c4ad-9814-44bf-ac31-cb508b764638";
name = Fore;
shapes = (
{
closed = 1;
nodes = (
(220,0,o),
(172,-6,q),
(172,1336,l),
(196,1330,o),
(271.5,1330,q),
(347,1330,o),
(447,1334,q),
(447,240,l),
(654,240,l),
(744,240,o),
(798,246,q),
(791,12,o),
(791,3,q),
(791,-7,l),
(693,0,o),
(462,0,q),
(367,0,l)
);
},
{
closed = 1;
nodes = (
(440,-499,o),
(440,-385,q),
(440,-271,o),
(429,-191,q),
(678,-151,l),
(686,-202,l),
(694,-258,o),
(694,-317.5,q),
(694,-377,o),
(688,-413.5,q),
(682,-450,o),
(672,-476,q),
(648,-534,o),
(590,-558,q),
(526,-584,o),
(385,-613,q),
(379,-607,l)
);
}
);
width = 855;
}
);
unicode = 315;
},
{
category = Letter;
glyphname = lcommaaccent;
layers = (
{
layerId = "4de0c4ad-9814-44bf-ac31-cb508b764638";
name = Fore;
shapes = (
{
closed = 1;
nodes = (
(379,26,o),
(383,0,q),
(129,0,l),
(129,1490,l),
(379,1490,l),
(379,112,l)
);
},
{
closed = 1;
nodes = (
(152,-499,o),
(152,-385,q),
(152,-271,o),
(141,-191,q),
(390,-151,l),
(398,-202,l),
(406,-258,o),
(406,-317.5,q),
(406,-377,o),
(400,-413.5,q),
(394,-450,o),
(384,-476,q),
(360,-534,o),
(302,-558,q),
(238,-584,o),
(97,-613,q),
(91,-607,l)
);
}
);
width = 513;
}
);
unicode = 316;
},
{
category = Letter;
glyphname = Lcaron;
layers = (
{
layerId = "4de0c4ad-9814-44bf-ac31-cb508b764638";
name = Fore;
shapes = (
{
closed = 1;
nodes = (
(220,0,o),
(172,-6,q),
(172,1336,l),
(196,1330,o),
(271.5,1330,q),
(347,1330,o),
(447,1334,q),
(447,240,l),
(654,240,l),
(744,240,o),
(798,246,q),
(791,12,o),
(791,3,q),
(791,-7,l),
(693,0,o),
(462,0,q),
(367,0,l)
);
},
{
closed = 1;
nodes = (
(872,1340,o),
(872,1286.5,q),
(872,1233,o),
(868.5,1183,q),
(865,1133,o),
(859,1093,q),
(844,1007,o),
(823,993,q),
(798,977,o),
(739,966,q),
(628,943,l),
(622,949,l),
(638,977,o),
(638,1129,q),
(638,1228,l),
(638,1330,o),
(632,1405,q),
(861,1445,l)
);
}
);
width = 980;
}
);
unicode = 317;
},
{
category = Letter;
glyphname = lcaron;
layers = (
{
layerId = "4de0c4ad-9814-44bf-ac31-cb508b764638";
name = Fore;
shapes = (
{
closed = 1;
nodes = (
(379,26,o),
(383,0,q),
(129,0,l),
(129,1490,l),
(379,1490,l),
(379,112,l)
);
},
{
closed = 1;
nodes = (
(739,1340,o),
(739,1286.5,q),
(739,1233,o),
(735.5,1183,q),
(732,1133,o),
(726,1093,q),
(711,1007,o),
(690,993,q),
(665,977,o),
(606,966,q),
(495,943,l),
(489,949,l),
(505,977,o),
(505,1129,q),
(505,1228,l),
(505,1330,o),
(499,1405,q),
(728,1445,l)
);
}
);
width = 679;
}
);
unicode = 318;
},
{
category = Letter;
glyphname = Ldot;
layers = (
{
layerId = "4de0c4ad-9814-44bf-ac31-cb508b764638";
name = Fore;
shapes = (
{
closed = 1;
nodes = (
(220,0,o),
(172,-6,q),
(172,1336,l),
(196,1330,o),
(271.5,1330,q),
(347,1330,o),
(447,1334,q),
(447,240,l),
(654,240,l),
(744,240,o),
(798,246,q),
(791,12,o),
(791,3,q),
(791,-7,l),
(693,0,o),
(462,0,q),
(367,0,l)
);
},
{
closed = 1;
nodes = (
(699,748,o),
(699,795,q),
(699,842,o),
(698.5,859.5,q),
(698,877,o),
(697,894,q),
(696,911,o),
(695,926,q),
(692,951,l),
(982,951,l),
(979,913,o),
(979,889,q),
(977,847,l),
(977,828,o),
(977,775.5,q),
(977,723,o),
(982,687,q),
(690,687,l)
);
}
);
width = 1022;
}
);
unicode = 319;
},
{
category = Letter;
glyphname = ldot;
layers = (
{
layerId = "4de0c4ad-9814-44bf-ac31-cb508b764638";
name = Fore;
shapes = (
{
closed = 1;
nodes = (
(570,656,o),
(570,736,q),
(570,816,o),
(564,854,q),
(798,854,l),
(793,789,o),
(793,714.5,q),
(793,640,o),
(798,605,q),
(562,605,l)
);
},
{
closed = 1;
nodes = (
(427,26,o),
(431,0,q),
(177,0,l),
(177,1490,l),
(427,1490,l),
(427,112,l)
);
}
);
width = 851;
}
);
unicode = 320;
},
{
category = Letter;
glyphname = Lslash;
layers = (
{
layerId = "4de0c4ad-9814-44bf-ac31-cb508b764638";
name = Fore;
shapes = (
{
closed = 1;
nodes = (
(220,0,o),
(172,-6,q),
(172,569,l),
(29,520,l),
(30,539,o),
(30,560,q),
(30,634,l),
(26,729,o),
(25,745,q),
(172,796,l),
(172,1336,l),
(196,1330,o),
(271.5,1330,q),
(347,1330,o),
(447,1334,q),
(447,892,l),
(705,982,l),
(706,870,l),
(706,780,l),
(706,765,o),
(707,753,q),
(447,663,l),
(447,240,l),
(654,240,l),
(744,240,o),
(798,246,q),
(791,12,o),
(791,3,q),
(791,-7,l),
(693,0,o),
(462,0,q),
(367,0,l)
);
}
);
width = 895;
}
);
unicode = 321;
},
{
category = Letter;
glyphname = lslash;
layers = (
{
layerId = "4de0c4ad-9814-44bf-ac31-cb508b764638";
name = Fore;
shapes = (
{
closed = 1;
nodes = (
(427,26,o),
(431,0,q),
(177,0,l),
(177,601,l),
(30,545,l),
(31,564,o),
(31,582,q),
(31,649,l),
(29,700,l),
(28,726,o),
(26,750,q),
(177,806,l),
(177,1430,l),
(427,1430,l),
(427,899,l),
(564,950,l),
(562,924,o),
(562,897,q),
(562,848,l),
(562,801,o),
(566,751,q),
(427,697,l),
(427,112,l)
);
}
);
width = 604;
}
);
unicode = 322;
},
{
category = Letter;
glyphname = Nacute;
layers = (
{
layerId = "4de0c4ad-9814-44bf-ac31-cb508b764638";
name = Fore;
shapes = (
{
closed = 1;
nodes = (
(187,34,o),
(187,74,q),
(187,1330,l),
(387,1330,l),
(917,496,l),
(917,1262,l),
(917,1317,o),
(907,1330,q),
(1177,1330,l),
(1172,1290,o),
(1172,1242,q),
(1172,0,l),
(964,0,l),
(442,801,l),
(442,0,l),
(181,0,l)
);
},
{
closed = 1;
nodes = (
(754,1788,o),
(924,1805,q),
(923,1798,l),
(661,1475,l),
(435,1475,l),
(604,1788,l)
);
}
);
width = 1359;
}
);
unicode = 323;
},
